<svg width="764" height="547" viewBox="0 0 764 547" fill="none" xmlns="http://www.w3.org/2000/svg">
<path d="M591.546 260.003V491.057H165.673V260.003L378.619 131.025L591.546 260.003Z" fill="#F1F2F2"/>
<path d="M591.546 492.014H165.616C165.363 492.014 165.12 491.913 164.941 491.733C164.762 491.554 164.661 491.311 164.661 491.057V260.003C164.662 259.836 164.707 259.672 164.791 259.528C164.874 259.383 164.994 259.264 165.139 259.18L378.18 130.202C378.329 130.109 378.501 130.059 378.677 130.059C378.852 130.059 379.024 130.109 379.173 130.202L592.1 259.18C592.241 259.266 592.357 259.387 592.437 259.531C592.518 259.675 592.559 259.838 592.558 260.003V491.057C592.559 491.188 592.532 491.317 592.481 491.437C592.429 491.557 592.354 491.665 592.259 491.755C592.164 491.844 592.052 491.913 591.929 491.958C591.807 492.003 591.676 492.021 591.546 492.014ZM166.628 490.1H590.648V260.5L378.638 132.097L166.628 260.5V490.1Z" fill="#231F20"/>
<path d="M471.101 163.8C471.101 163.8 480.938 145.394 479.658 133.187C478.378 120.98 466.288 118.799 466.288 118.799C466.288 118.799 437.122 103.588 430.361 93.0454L430.59 108.467C425.294 106.635 420.408 103.782 416.208 100.067C416.208 100.067 411.662 107.931 416.571 114.934C416.571 114.934 407.976 116.618 402.322 110.916C402.322 110.916 405.206 134.067 425.586 137.052C439.013 138.927 456.49 164.7 471.101 163.8Z" fill="white"/>
<path d="M470.356 164.776C462.296 164.776 453.644 157.506 445.278 150.484C438.097 144.457 431.335 138.755 425.491 137.913C404.633 134.852 401.444 111.126 401.405 110.935C401.383 110.738 401.423 110.539 401.518 110.365C401.614 110.192 401.761 110.052 401.94 109.966C402.118 109.88 402.318 109.852 402.514 109.885C402.709 109.918 402.889 110.011 403.029 110.151C404.646 111.588 406.544 112.671 408.604 113.33C410.663 113.989 412.836 114.209 414.986 113.977C411.166 106.955 415.234 99.7229 415.425 99.4168C415.491 99.2935 415.584 99.1867 415.697 99.1041C415.81 99.0216 415.94 98.9654 416.077 98.9397C416.215 98.914 416.356 98.9194 416.491 98.9557C416.626 98.9919 416.751 99.0579 416.857 99.1489C420.678 102.422 424.998 105.057 429.654 106.955L429.444 92.8923C429.437 92.6863 429.498 92.4837 429.62 92.3171C429.741 92.1505 429.915 92.0296 430.113 91.9739C430.311 91.9101 430.525 91.9129 430.721 91.982C430.918 92.051 431.086 92.1826 431.201 92.3566C437.543 102.229 464.626 116.637 466.651 117.708C468.122 118.034 479.333 120.846 480.613 133.015C481.912 145.471 472.343 163.513 471.942 164.279C471.864 164.422 471.752 164.542 471.615 164.629C471.478 164.716 471.321 164.767 471.159 164.776H470.356ZM403.812 113.269C405.264 119.239 410.344 133.742 425.777 136.019C432.137 136.956 439.147 142.811 446.501 149.01C454.618 155.822 462.984 162.863 470.356 162.863H470.509C472.018 159.897 479.83 143.978 478.703 133.187C477.519 121.707 466.613 119.794 466.154 119.641L465.887 119.545C464.76 118.971 440.369 106.152 431.392 95.8389L431.583 108.352C431.584 108.499 431.552 108.644 431.489 108.776C431.426 108.909 431.335 109.025 431.221 109.117C431.104 109.21 430.967 109.273 430.821 109.303C430.675 109.333 430.524 109.329 430.38 109.29C425.326 107.561 420.647 104.886 416.59 101.407C415.609 103.431 415.167 105.676 415.307 107.922C415.448 110.168 416.166 112.34 417.392 114.226C417.478 114.361 417.531 114.515 417.548 114.674C417.565 114.833 417.544 114.994 417.488 115.144C417.427 115.291 417.33 115.421 417.207 115.521C417.083 115.621 416.937 115.689 416.781 115.718C412.305 116.494 407.699 115.624 403.812 113.269Z" fill="#231F20"/>
<path d="M455.974 354.349C455.974 354.349 502.979 297.313 510.753 253.746C518.526 210.18 491.366 200.173 481.893 196.92C472.419 193.668 423.046 173.157 398.254 191.065C373.462 208.974 348.766 320.694 348.766 320.694L455.974 354.349Z" fill="#018ABE"/>
<path d="M286.5 411.118L337.058 347.978C337.058 347.978 372.24 303.034 352.586 298.231C352.586 298.231 325.311 301.79 280.751 317.365C267.515 321.976 244.767 374.631 230.403 411.118H286.5Z" fill="#231F20"/>
<path d="M286.5 412.075H230.308C230.152 412.075 230 412.037 229.863 411.963C229.726 411.89 229.61 411.783 229.525 411.654C229.454 411.518 229.417 411.367 229.417 411.214C229.417 411.06 229.454 410.91 229.525 410.774C245.454 370.287 267.228 321.038 280.445 316.427C324.566 301.12 352.185 297.294 352.471 297.294H352.815C354.205 297.541 355.505 298.153 356.582 299.067C357.659 299.981 358.475 301.165 358.946 302.498C363.473 315.509 338.872 347.155 337.822 348.418L287.245 411.558C287.173 411.699 287.067 411.82 286.937 411.91C286.807 412.001 286.657 412.057 286.5 412.075ZM231.817 410.161H286.041L336.16 347.308C336.408 347.002 361.162 315.164 356.998 303.149C356.643 302.144 356.028 301.251 355.216 300.562C354.404 299.873 353.424 299.412 352.376 299.226C349.969 299.551 323 303.569 280.923 318.245C271.22 321.631 253.801 354.254 231.721 410.161H231.817Z" fill="#231F20"/>
<path d="M371.17 411.118L384.006 379.797C384.006 379.797 415.33 389.191 436.225 381.308C450.932 375.76 455.42 356.722 462.067 341.3C462.067 341.3 374.207 320.445 354.592 311.95C354.592 311.95 353.369 311.95 330.888 335.599C320.842 346.218 312.839 378.572 307.071 411.118H371.17Z" fill="#231F20"/>
<path d="M371.17 412.075H307.07C306.929 412.076 306.788 412.046 306.659 411.987C306.53 411.927 306.416 411.839 306.326 411.73C306.24 411.624 306.177 411.501 306.141 411.369C306.105 411.238 306.096 411.1 306.115 410.965C313.45 369.637 321.567 343.998 330.201 334.948C352.968 310.917 354.19 310.974 354.629 310.993C354.743 310.975 354.859 310.975 354.973 310.993C374.36 319.527 461.418 340.172 462.22 340.382C462.354 340.415 462.48 340.477 462.588 340.563C462.697 340.648 462.786 340.756 462.85 340.879C462.907 341.006 462.936 341.143 462.936 341.281C462.936 341.42 462.907 341.557 462.85 341.683C461.609 344.553 460.424 347.614 459.278 350.561C454.14 363.82 448.812 377.539 436.454 382.207C417.163 389.478 389.697 382.399 384.464 380.945L371.953 411.558C371.88 411.706 371.768 411.831 371.631 411.922C371.493 412.012 371.334 412.065 371.17 412.075ZM308.14 410.161H370.54L383.146 379.433C383.232 379.213 383.398 379.033 383.61 378.931C383.823 378.828 384.066 378.809 384.292 378.878C384.616 378.878 415.558 388.081 435.862 380.409C447.322 376.066 452.574 362.749 457.578 349.796C458.591 347.174 459.641 344.477 460.73 341.894C450.588 339.464 373.806 320.981 354.668 312.945C353.579 313.768 349.071 317.728 331.557 336.192C323.401 344.897 315.322 370.44 308.197 410.161H308.14Z" fill="#231F20"/>
<path d="M398.254 191.065C398.254 191.065 377.244 214.025 365.517 225.505C353.789 236.985 330.793 251.852 330.793 251.852C330.793 251.852 262.224 257.382 261.498 258.472C260.772 259.563 261.498 282.37 261.498 282.37C261.498 282.37 328.501 295.246 340.725 293.027C352.949 290.808 381.79 271.387 381.79 271.387L398.254 191.065Z" fill="#018ABE"/>
<path d="M427.439 179.662L425.319 201.264C425.319 201.264 429.139 213.662 443.693 211.442C458.247 209.223 460.883 199.235 460.883 199.235L470.319 157.027C470.319 157.027 461.59 150.713 453.358 126.031C453.358 126.031 422.95 120.291 421.9 132.039C421.9 132.039 415.903 153.086 416.342 164.202C416.743 175.013 427.248 179.49 427.439 179.662Z" fill="white"/>
<path d="M440.351 212.667C436.874 212.692 433.475 211.636 430.622 209.646C427.769 207.655 425.603 204.826 424.421 201.551C424.393 201.431 424.393 201.307 424.421 201.187L426.446 180.14C419.627 176.428 415.654 170.574 415.406 164.145C414.967 152.971 420.754 132.556 421.002 131.618C421.097 130.65 421.401 129.714 421.892 128.875C422.383 128.036 423.051 127.314 423.848 126.758C431.488 120.904 452.67 124.845 453.549 124.845C453.719 124.879 453.877 124.957 454.008 125.071C454.138 125.185 454.237 125.331 454.294 125.496C462.278 149.47 470.815 155.956 470.911 156.109C471.057 156.221 471.169 156.372 471.233 156.544C471.297 156.717 471.311 156.904 471.274 157.085L461.838 199.293C461.705 199.771 458.782 209.95 443.865 212.246C442.705 212.469 441.531 212.61 440.351 212.667ZM426.293 201.187C426.828 202.679 430.839 212.476 443.483 210.524C457.178 208.419 459.871 199.044 459.89 199.044L469.192 157.467C467.186 155.726 459.642 148.149 452.556 126.854C449.194 126.28 431.316 123.525 424.899 128.404C424.295 128.824 423.791 129.373 423.424 130.011C423.058 130.65 422.837 131.362 422.779 132.097C422.779 132.479 416.8 153.143 417.221 164.126C417.545 172.277 423.848 176.735 427.573 178.648C427.736 178.726 427.889 178.823 428.031 178.935C428.136 179.035 428.217 179.157 428.267 179.293C428.316 179.43 428.334 179.575 428.318 179.719L426.293 201.187Z" fill="#231F20"/>
<path d="M459.851 157.754C460.506 155.847 461.759 154.203 463.423 153.067C465.922 151.228 469.048 150.457 472.114 150.924C475.647 151.919 477.443 156.243 476.679 159.84C476.205 161.996 475.193 163.996 473.736 165.653C472.279 167.309 470.426 168.568 468.351 169.311C466.922 169.734 465.424 169.871 463.943 169.713C462.462 169.556 461.026 169.107 459.718 168.392" fill="white"/>
<path d="M465.161 170.727C463.099 170.737 461.069 170.223 459.259 169.234C459.149 169.174 459.051 169.093 458.972 168.995C458.893 168.897 458.835 168.784 458.799 168.663C458.764 168.542 458.752 168.416 458.766 168.29C458.779 168.165 458.817 168.044 458.877 167.933C458.937 167.823 459.019 167.725 459.117 167.646C459.214 167.567 459.327 167.508 459.447 167.472C459.568 167.437 459.694 167.426 459.819 167.439C459.944 167.452 460.066 167.49 460.176 167.551C462.598 168.864 465.44 169.167 468.083 168.392C469.989 167.698 471.689 166.532 473.025 165.004C474.36 163.475 475.289 161.633 475.723 159.649C476.354 156.645 474.921 152.703 471.903 151.861C470.524 151.643 469.116 151.7 467.759 152.028C466.402 152.356 465.123 152.95 463.996 153.775C462.502 154.782 461.381 156.255 460.806 157.965C460.725 158.219 460.547 158.43 460.31 158.552C460.074 158.674 459.799 158.697 459.546 158.615C459.292 158.534 459.082 158.355 458.96 158.119C458.838 157.882 458.815 157.606 458.896 157.353C459.614 155.249 460.995 153.436 462.831 152.187C464.187 151.182 465.732 150.462 467.374 150.071C469.015 149.679 470.718 149.625 472.381 149.91C476.545 151.058 478.455 156.032 477.633 159.936C477.143 162.291 476.056 164.48 474.477 166.293C472.899 168.105 470.881 169.481 468.618 170.287C467.494 170.604 466.329 170.752 465.161 170.727Z" fill="#231F20"/>
<path d="M438.555 147.174C438.555 147.174 429.807 157.333 431.335 159.476C432.863 161.619 437.924 160.93 437.924 160.93" fill="white"/>
<path d="M436.149 162.002C435.133 162.112 434.105 161.998 433.138 161.667C432.172 161.337 431.289 160.798 430.552 160.089C428.852 157.697 434.372 150.522 437.829 146.695C438.002 146.539 438.226 146.451 438.459 146.449C438.692 146.447 438.918 146.53 439.094 146.683C439.271 146.836 439.385 147.048 439.416 147.279C439.446 147.51 439.392 147.745 439.262 147.939C435.06 152.837 431.717 158.041 432.118 159.094C432.978 160.28 436.072 160.356 437.848 160.127C438.102 160.094 438.358 160.163 438.56 160.319C438.762 160.475 438.895 160.705 438.928 160.959C438.96 161.213 438.891 161.469 438.736 161.672C438.58 161.875 438.35 162.007 438.097 162.04C437.447 162.064 436.797 162.052 436.149 162.002Z" fill="#231F20"/>
<path d="M454.447 145.887C454.676 144.468 454.052 143.187 453.052 143.025C452.052 142.863 451.056 143.882 450.827 145.3C450.598 146.719 451.223 148 452.222 148.162C453.222 148.324 454.218 147.306 454.447 145.887Z" fill="#231F20"/>
<path d="M430.548 146.806C431.56 146.771 432.34 145.578 432.29 144.141C432.241 142.705 431.38 141.569 430.368 141.605C429.356 141.64 428.576 142.833 428.625 144.269C428.675 145.705 429.536 146.841 430.548 146.806Z" fill="#231F20"/>
<path d="M427.439 179.662C427.439 179.662 440.542 184.082 448.888 180.332C448.888 180.332 438.383 197.552 425.968 194.471L427.439 179.662Z" fill="#231F20"/>
<path d="M429.062 195.811C427.948 195.816 426.838 195.681 425.758 195.409C425.537 195.351 425.344 195.218 425.212 195.033C425.079 194.848 425.016 194.622 425.032 194.395L426.483 179.585C426.496 179.441 426.541 179.301 426.613 179.175C426.686 179.05 426.785 178.942 426.904 178.858C427.032 178.797 427.172 178.765 427.314 178.765C427.456 178.765 427.597 178.797 427.725 178.858C427.859 178.858 440.598 183.106 448.506 179.547C448.693 179.467 448.901 179.449 449.1 179.493C449.298 179.538 449.478 179.644 449.614 179.796C449.733 179.96 449.797 180.157 449.797 180.36C449.797 180.563 449.733 180.761 449.614 180.925C449.308 181.499 440.446 195.811 429.062 195.811ZM427.018 193.725C435.594 195.237 443.253 186.493 446.462 182.245C439.605 183.929 431.278 181.881 428.26 181.001L427.018 193.725Z" fill="#231F20"/>
<path d="M427.611 150.981H426.98L419.933 150.426C417.914 150.265 416.043 149.308 414.728 147.766C413.414 146.223 412.765 144.221 412.923 142.199L413.381 136.459C413.405 136.208 413.527 135.977 413.72 135.816C413.913 135.655 414.162 135.577 414.413 135.598L434.773 137.205C435.026 137.233 435.258 137.356 435.423 137.55C435.506 137.643 435.569 137.752 435.608 137.87C435.648 137.989 435.662 138.114 435.652 138.238L435.193 143.978C435.035 145.897 434.161 147.685 432.745 148.986C431.329 150.288 429.475 151.007 427.553 151L427.611 150.981ZM415.215 137.588L414.833 142.295C414.717 143.809 415.204 145.307 416.189 146.462C417.173 147.617 418.574 148.333 420.085 148.456L427.133 149.01C427.882 149.08 428.636 148.997 429.352 148.767C430.067 148.536 430.729 148.164 431.297 147.671C432.438 146.706 433.157 145.333 433.303 143.844L433.665 139.138L415.215 137.588Z" fill="#231F20"/>
<path d="M452.937 153.067H452.307L445.259 152.493C443.241 152.332 441.369 151.375 440.055 149.832C438.741 148.289 438.091 146.287 438.249 144.265L438.708 138.525C438.718 138.4 438.752 138.277 438.809 138.165C438.866 138.052 438.945 137.952 439.041 137.87C439.137 137.789 439.248 137.727 439.368 137.688C439.487 137.649 439.614 137.635 439.739 137.645L460.1 139.272C460.223 139.281 460.343 139.315 460.453 139.371C460.563 139.428 460.66 139.505 460.74 139.599C460.82 139.694 460.881 139.803 460.918 139.921C460.956 140.038 460.97 140.162 460.959 140.286L460.52 146.026C460.366 147.947 459.494 149.74 458.077 151.046C456.661 152.351 454.805 153.073 452.88 153.067H452.937ZM452.46 151.153C453.973 151.271 455.47 150.782 456.624 149.795C457.729 148.814 458.413 147.443 458.534 145.968L458.916 141.261L440.522 139.673L440.159 144.361C440.043 145.875 440.531 147.374 441.515 148.528C442.5 149.683 443.901 150.4 445.412 150.522L452.46 151.153Z" fill="#231F20"/>
<path d="M439.3 143.156L434.334 142.754C434.208 142.744 434.086 142.71 433.974 142.652C433.862 142.595 433.762 142.516 433.68 142.42C433.599 142.324 433.537 142.213 433.498 142.093C433.459 141.973 433.445 141.846 433.455 141.721C433.484 141.47 433.607 141.24 433.798 141.077C433.989 140.914 434.236 140.829 434.487 140.84L439.453 141.242C439.706 141.242 439.949 141.343 440.128 141.522C440.307 141.702 440.408 141.945 440.408 142.199C440.408 142.453 440.307 142.696 440.128 142.875C439.949 143.055 439.706 143.156 439.453 143.156H439.3Z" fill="#231F20"/>
<path d="M436.225 176.907C430.247 176.907 425.529 172.277 423.638 166.881C423.587 166.73 423.574 166.569 423.6 166.412C423.627 166.255 423.693 166.107 423.791 165.982C423.875 165.849 423.995 165.743 424.137 165.675C424.279 165.608 424.437 165.581 424.593 165.599C432.744 166.026 440.894 164.722 448.506 161.772C448.657 161.706 448.823 161.68 448.987 161.697C449.151 161.713 449.308 161.772 449.442 161.868C449.579 161.963 449.689 162.092 449.76 162.244C449.83 162.395 449.859 162.563 449.843 162.729C449.843 163.169 448.85 173.673 439.625 176.314C438.526 176.676 437.381 176.875 436.225 176.907ZM425.93 167.57C427.935 171.798 432.577 176.448 439.052 174.573C445.011 172.87 446.997 167.091 447.628 164.26C440.654 166.669 433.303 167.79 425.93 167.57Z" fill="#231F20"/>
<path d="M506.36 214.638C517.476 219.861 535.526 342.238 515.91 350.484C485.35 363.246 402.628 319.871 402.628 319.871L418.901 287.784C418.901 287.784 475.093 304.545 478.99 293.104C482.886 281.662 463.595 218.732 470.166 211.883C476.736 205.033 506.36 214.638 506.36 214.638Z" fill="#018ABE"/>
<path d="M421.976 300.738C412.415 298.785 403.096 295.789 394.186 291.802C387.348 288.531 381.446 285.393 373.825 283.747C364.369 281.69 354.624 281.328 345.041 282.676C344.654 282.707 344.281 282.831 343.953 283.039C342.826 283.996 344.488 285.642 345.863 286.082C349.583 287.177 353.446 287.706 357.323 287.651C347.521 288.555 337.885 290.776 328.673 294.252C327.622 294.653 326.381 295.4 326.553 296.49C326.725 297.581 328.558 297.906 329.857 297.696L352.586 293.869C346.776 294.561 341.122 296.216 335.854 298.767C335.109 299.131 334.25 299.666 334.212 300.508C334.212 301.962 336.236 302.23 337.669 301.943C344.643 300.533 351.481 298.516 358.106 295.916L343.036 302.134C342.967 302.392 342.95 302.661 342.986 302.925C343.022 303.189 343.11 303.444 343.245 303.673C343.381 303.903 343.56 304.104 343.773 304.263C343.987 304.423 344.229 304.538 344.488 304.603C345.541 304.805 346.63 304.72 347.639 304.354L363.74 300.03L353.407 303.856C351.784 304.45 349.816 305.559 350.084 307.281C350.389 309.309 353.197 309.463 355.222 309.195C363.23 307.997 371.347 307.695 379.421 308.295C382.382 308.468 385.342 307.97 388.169 308.831C392.238 310.075 396.344 313.021 400.126 315.011C406.047 318.111 411.949 321.268 417.851 324.425" fill="white"/>
<path d="M417.927 325.152C417.781 325.157 417.636 325.124 417.507 325.056C411.624 321.906 405.716 318.768 399.782 315.643C398.598 315.03 397.375 314.303 396.134 313.557C393.575 311.914 390.839 310.566 387.978 309.539C386.173 309.098 384.312 308.936 382.458 309.061C381.446 309.061 380.453 309.061 379.44 309.061C371.429 308.461 363.376 308.763 355.432 309.96C353.732 310.32 351.961 310.07 350.427 309.252C350.118 309.028 349.858 308.743 349.665 308.413C349.471 308.084 349.347 307.718 349.301 307.339C349.225 306.809 349.289 306.269 349.487 305.772C349.685 305.276 350.009 304.839 350.427 304.507L347.944 305.177C346.776 305.603 345.509 305.682 344.296 305.406C343.882 305.272 343.5 305.055 343.172 304.769C342.843 304.483 342.576 304.134 342.386 303.742C342.253 303.441 342.184 303.115 342.184 302.785C342.184 302.455 342.253 302.129 342.386 301.828C340.916 302.173 339.464 302.498 337.993 302.804C337.346 302.967 336.673 302.993 336.015 302.881C335.358 302.769 334.73 302.521 334.173 302.154C333.934 301.947 333.745 301.687 333.622 301.395C333.5 301.103 333.446 300.786 333.467 300.47C333.467 298.977 335.033 298.25 335.587 297.983L336.695 297.466L330.105 298.576C328.943 298.832 327.727 298.655 326.686 298.078C326.451 297.91 326.253 297.696 326.102 297.45C325.951 297.203 325.851 296.929 325.808 296.643C325.693 295.878 325.808 294.443 328.482 293.467C335.235 290.87 342.227 288.947 349.358 287.727C348.13 287.547 346.913 287.304 345.71 287C345.043 286.816 344.43 286.473 343.924 286C343.419 285.526 343.035 284.937 342.807 284.283C342.744 283.95 342.772 283.606 342.886 283.286C343 282.967 343.197 282.683 343.456 282.465C343.899 282.146 344.421 281.954 344.965 281.911C354.648 280.535 364.498 280.898 374.054 282.982C380.364 284.532 386.454 286.872 392.18 289.947L394.625 291.114C403.448 295.01 412.662 297.948 422.11 299.877C422.334 299.931 422.529 300.072 422.65 300.269C422.772 300.466 422.811 300.703 422.759 300.929C422.735 301.042 422.688 301.148 422.621 301.243C422.554 301.337 422.47 301.417 422.372 301.477C422.274 301.538 422.164 301.578 422.05 301.596C421.937 301.613 421.82 301.608 421.709 301.58C412.095 299.597 402.72 296.589 393.746 292.606L391.301 291.42C385.693 288.418 379.732 286.13 373.558 284.608C364.204 282.558 354.559 282.201 345.079 283.556C344.858 283.555 344.64 283.615 344.449 283.728C344.449 284.264 345.27 284.991 346.073 285.24C349.707 286.303 353.479 286.819 357.265 286.77C357.474 286.801 357.664 286.906 357.801 287.066C357.939 287.226 358.015 287.43 358.015 287.641C358.015 287.852 357.939 288.056 357.801 288.216C357.664 288.376 357.474 288.48 357.265 288.512C347.555 289.423 338.01 291.63 328.883 295.074C328.119 295.361 327.24 295.878 327.316 296.356C327.323 296.414 327.342 296.469 327.371 296.518C327.401 296.568 327.441 296.611 327.488 296.643C328.154 296.944 328.9 297.011 329.608 296.835L347.2 293.85C348.909 293.47 350.637 293.176 352.376 292.97C352.602 292.947 352.829 293.012 353.01 293.15C353.191 293.289 353.312 293.491 353.35 293.716C353.383 293.944 353.325 294.176 353.19 294.362C353.054 294.548 352.851 294.673 352.624 294.711L347.524 295.572C343.563 296.439 339.717 297.768 336.064 299.532C335.128 299.992 334.918 300.336 334.918 300.527C334.912 300.581 334.919 300.635 334.939 300.685C334.959 300.735 334.992 300.78 335.033 300.814C335.735 301.172 336.543 301.261 337.306 301.063C344.241 299.663 351.041 297.659 357.628 295.074C357.841 294.992 358.078 294.995 358.288 295.085C358.499 295.174 358.666 295.342 358.755 295.553C358.838 295.769 358.835 296.009 358.746 296.223C358.657 296.436 358.489 296.608 358.278 296.701L343.647 302.747C343.622 302.828 343.622 302.914 343.647 302.995C343.818 303.346 344.12 303.614 344.487 303.742C345.385 303.905 346.31 303.819 347.161 303.493L363.263 299.15C363.472 299.116 363.686 299.159 363.866 299.27C364.046 299.382 364.179 299.555 364.242 299.758C364.305 299.96 364.293 300.179 364.207 300.373C364.122 300.567 363.97 300.724 363.778 300.814L353.464 304.641C352.567 304.966 350.504 305.865 350.695 307.109C350.714 307.254 350.762 307.394 350.838 307.519C350.914 307.644 351.015 307.752 351.134 307.836C352.279 308.395 353.582 308.537 354.82 308.238C362.897 307.016 371.085 306.707 379.23 307.32C380.185 307.32 381.14 307.32 382.114 307.32C384.149 307.182 386.193 307.37 388.169 307.874C391.166 308.924 394.026 310.33 396.688 312.065C397.91 312.773 399.113 313.481 400.278 314.093C406.2 317.205 412.108 320.343 418.003 323.506C418.106 323.559 418.198 323.631 418.272 323.72C418.347 323.809 418.403 323.911 418.437 324.022C418.471 324.133 418.482 324.249 418.47 324.365C418.458 324.48 418.422 324.591 418.366 324.693C418.285 324.897 418.128 325.062 417.927 325.152Z" fill="#231F20"/>
<path d="M401.749 202.335C397.795 204.65 376.594 252.407 367.369 275.195L401.749 202.335Z" fill="white"/>
<path d="M367.426 276.075C367.283 276.076 367.141 276.041 367.013 275.974C366.886 275.907 366.777 275.81 366.696 275.691C366.615 275.572 366.564 275.435 366.548 275.292C366.532 275.148 366.552 275.003 366.605 274.869C374.952 254.148 396.802 204.21 401.31 201.57C401.409 201.505 401.52 201.461 401.637 201.44C401.753 201.42 401.873 201.423 401.988 201.45C402.104 201.477 402.212 201.527 402.308 201.597C402.403 201.667 402.484 201.755 402.545 201.857C402.605 201.959 402.644 202.072 402.66 202.19C402.676 202.307 402.668 202.427 402.636 202.541C402.605 202.655 402.551 202.762 402.477 202.855C402.403 202.948 402.312 203.025 402.208 203.081C398.827 204.995 378.657 249.633 368.229 275.52C368.167 275.683 368.057 275.823 367.914 275.922C367.77 276.021 367.601 276.075 367.426 276.075Z" fill="#231F20"/>
<path d="M250.592 294.156L249.503 303.876L373.367 357.315L373.749 347.098L250.592 294.156Z" fill="white"/>
<path d="M373.366 358.272C373.241 358.3 373.11 358.3 372.984 358.272L249.121 304.832C248.931 304.751 248.772 304.61 248.669 304.431C248.565 304.251 248.523 304.043 248.548 303.837L249.637 294.118C249.651 293.969 249.703 293.827 249.786 293.703C249.869 293.58 249.982 293.479 250.114 293.41C250.247 293.339 250.394 293.303 250.544 293.303C250.694 293.303 250.841 293.339 250.974 293.41L374.13 346.313C374.309 346.388 374.46 346.517 374.563 346.681C374.665 346.846 374.715 347.038 374.703 347.232L374.321 357.449C374.313 357.607 374.267 357.76 374.187 357.897C374.107 358.033 373.996 358.148 373.863 358.233C373.704 358.292 373.532 358.305 373.366 358.272ZM250.515 303.282L372.45 355.88L372.774 347.691L251.394 295.514L250.515 303.282Z" fill="#231F20"/>
<path d="M250.592 294.156C250.592 294.156 286.672 276.821 287.589 277.319C288.505 277.816 416.112 328.979 416.112 328.979L373.749 347.098L250.592 294.156Z" fill="white"/>
<path d="M373.749 348.054C373.623 348.081 373.493 348.081 373.367 348.054L250.21 295.036C250.042 294.963 249.899 294.842 249.798 294.69C249.696 294.537 249.64 294.358 249.637 294.175C249.631 293.992 249.678 293.811 249.773 293.655C249.868 293.498 250.007 293.373 250.172 293.295C286.71 275.73 287.513 276.171 288.047 276.477C289.957 277.338 415.215 327.582 416.476 328.137C416.653 328.204 416.806 328.325 416.912 328.482C417.018 328.64 417.072 328.827 417.068 329.017C417.071 329.204 417.018 329.388 416.916 329.545C416.814 329.702 416.667 329.824 416.495 329.897L374.131 348.016C374.008 348.056 373.878 348.069 373.749 348.054ZM252.903 294.098L373.749 346.065L413.611 329.093C393.9 321.172 293.739 281.011 287.436 278.371C284.953 278.945 265.853 287.899 252.903 294.098Z" fill="#231F20"/>
<path d="M373.367 357.315L414.527 338.124L416.113 328.979L373.749 347.098L373.367 357.315Z" fill="white"/>
<path d="M373.367 358.272C373.177 358.28 372.989 358.226 372.832 358.119C372.693 358.029 372.58 357.904 372.506 357.756C372.432 357.608 372.399 357.442 372.412 357.277L372.794 347.06C372.805 346.881 372.864 346.708 372.964 346.56C373.065 346.411 373.204 346.293 373.367 346.218L415.75 328.098C415.905 328.03 416.077 328.006 416.246 328.029C416.415 328.053 416.574 328.123 416.705 328.232C416.844 328.336 416.951 328.477 417.012 328.64C417.074 328.803 417.086 328.981 417.048 329.151L415.482 338.277C415.452 338.428 415.389 338.57 415.296 338.693C415.204 338.816 415.084 338.916 414.947 338.985L373.768 358.119C373.647 358.198 373.51 358.251 373.367 358.272ZM374.685 347.748L374.36 355.88L413.668 337.55L414.852 330.624L374.685 347.748Z" fill="#231F20"/>
<path d="M250.592 294.156L248.051 204.363L377.721 264.002L373.748 347.098L250.592 294.156Z" fill="white"/>
<path d="M373.749 348.055C373.623 348.081 373.493 348.081 373.367 348.055L250.21 295.036C250.041 294.965 249.896 294.845 249.794 294.692C249.692 294.539 249.638 294.359 249.637 294.175L247.078 204.382C247.075 204.219 247.114 204.058 247.191 203.914C247.267 203.77 247.38 203.648 247.517 203.56C247.657 203.481 247.815 203.439 247.975 203.439C248.136 203.439 248.294 203.481 248.434 203.56L378.18 263.141C378.354 263.215 378.5 263.342 378.599 263.503C378.698 263.664 378.745 263.851 378.734 264.04L374.761 347.136C374.755 347.29 374.712 347.439 374.635 347.573C374.559 347.706 374.451 347.819 374.322 347.901C374.155 348.019 373.952 348.073 373.749 348.055ZM251.509 293.505L372.851 345.682L376.671 264.595L249.045 205.875L251.509 293.505Z" fill="#231F20"/>
<path d="M442.796 342.487C442.663 342.513 442.527 342.513 442.394 342.487L416.17 330.375C415.969 330.284 415.805 330.125 415.708 329.926C415.61 329.727 415.585 329.5 415.635 329.285L423.562 296.069C423.612 295.83 423.755 295.619 423.958 295.483C424.162 295.348 424.41 295.297 424.651 295.342L475.915 303.569L474.234 222.176C474.229 222.05 474.249 221.924 474.294 221.806C474.339 221.688 474.407 221.58 474.494 221.488C474.582 221.397 474.687 221.325 474.803 221.275C474.919 221.226 475.044 221.2 475.17 221.2C475.419 221.205 475.656 221.305 475.833 221.479C476.011 221.653 476.115 221.889 476.125 222.138L477.825 304.679C477.826 304.819 477.796 304.956 477.737 305.082C477.677 305.208 477.59 305.319 477.481 305.406C477.379 305.499 477.257 305.567 477.125 305.607C476.993 305.646 476.853 305.656 476.717 305.636L425.147 297.37L417.603 328.959L443.12 340.573C443.234 340.625 443.337 340.699 443.422 340.79C443.507 340.882 443.573 340.99 443.616 341.108C443.658 341.226 443.677 341.351 443.671 341.476C443.664 341.601 443.633 341.723 443.579 341.836C443.525 342.009 443.422 342.162 443.283 342.277C443.144 342.393 442.975 342.465 442.796 342.487Z" fill="#231F20"/>
<path d="M215.524 411.118C211.074 407.75 205.745 405.971 201.982 411.118H215.524Z" fill="white"/>
<path d="M215.524 411.998H201.982C201.821 411.996 201.663 411.951 201.525 411.867C201.388 411.782 201.275 411.663 201.199 411.52C201.115 411.381 201.07 411.223 201.07 411.061C201.07 410.898 201.115 410.74 201.199 410.601C201.811 409.68 202.604 408.894 203.53 408.292C204.457 407.689 205.497 407.284 206.586 407.1C209.355 406.679 212.526 407.808 215.983 410.429C216.127 410.541 216.233 410.695 216.288 410.869C216.342 411.044 216.342 411.23 216.288 411.405C216.229 411.565 216.126 411.706 215.991 411.811C215.856 411.915 215.694 411.98 215.524 411.998ZM203.931 410.257H212.621C210.918 409.166 208.906 408.663 206.891 408.822C205.786 409 204.756 409.499 203.931 410.257Z" fill="#231F20"/>
<path d="M313.106 382.38H312.954C312.706 382.337 312.485 382.199 312.339 381.995C312.192 381.791 312.132 381.537 312.171 381.289C312.323 380.332 315.991 357.87 323.077 346.466C323.218 346.273 323.427 346.14 323.662 346.094C323.897 346.048 324.141 346.091 324.345 346.217C324.549 346.342 324.699 346.539 324.765 346.77C324.83 347 324.807 347.247 324.7 347.461C317.882 358.54 314.081 381.366 314.042 381.595C314.006 381.816 313.891 382.017 313.72 382.161C313.548 382.305 313.33 382.383 313.106 382.38Z" fill="white"/>
<path d="M431.145 215.614L433.093 222.157L408.74 272.401L415.674 290.367L430.877 277.376L437.123 222.119L440.351 218.79L437.027 213.222L431.145 215.614Z" fill="#231F20"/>
<path d="M591.546 260.003V491.057H165.673V260.003L378.619 405.263L591.546 260.003Z" fill="white"/>
<path d="M591.546 492.014H165.616C165.363 492.014 165.12 491.913 164.941 491.733C164.762 491.554 164.661 491.311 164.661 491.057V260.003C164.66 259.828 164.708 259.657 164.799 259.508C164.89 259.36 165.021 259.239 165.177 259.161C165.327 259.072 165.499 259.025 165.673 259.025C165.848 259.025 166.02 259.072 166.17 259.161L378.562 404.077L590.954 259.161C591.101 259.071 591.269 259.024 591.441 259.024C591.613 259.024 591.781 259.071 591.928 259.161C592.085 259.238 592.217 259.357 592.309 259.507C592.4 259.656 592.447 259.828 592.444 260.003V491.057C592.444 491.301 592.352 491.536 592.185 491.714C592.018 491.892 591.789 491.999 591.546 492.014ZM166.628 490.1H590.648V261.801L379.211 406.067C379.052 406.169 378.866 406.223 378.677 406.223C378.487 406.223 378.302 406.169 378.142 406.067L166.628 261.801V490.1Z" fill="#231F20"/>
<path d="M378.619 406.22C378.43 406.219 378.245 406.166 378.084 406.067L165.138 260.787C164.932 260.644 164.791 260.425 164.744 260.178C164.698 259.931 164.75 259.676 164.89 259.467C165.034 259.256 165.254 259.11 165.504 259.06C165.754 259.01 166.014 259.06 166.227 259.199L378.619 404.115L591.011 259.199C591.222 259.061 591.478 259.011 591.725 259.061C591.972 259.112 592.189 259.257 592.329 259.467C592.401 259.57 592.452 259.685 592.478 259.808C592.504 259.93 592.506 260.057 592.483 260.18C592.46 260.303 592.412 260.42 592.343 260.524C592.274 260.629 592.185 260.718 592.081 260.787L379.154 406.067C378.992 406.163 378.808 406.216 378.619 406.22Z" fill="#231F20"/>
<path d="M165.673 491.057L378.6 358.099L591.546 491.057H165.673Z" fill="white"/>
<path d="M591.546 492.014H165.616C165.41 492.014 165.208 491.946 165.043 491.822C164.878 491.698 164.757 491.524 164.699 491.325C164.64 491.125 164.65 490.911 164.726 490.717C164.802 490.523 164.941 490.36 165.12 490.253L378.18 357.296C378.333 357.203 378.508 357.154 378.686 357.154C378.865 357.154 379.04 357.203 379.192 357.296L592.1 490.253C592.279 490.36 592.418 490.523 592.494 490.717C592.57 490.911 592.579 491.125 592.52 491.325C592.46 491.533 592.331 491.715 592.154 491.84C591.977 491.965 591.762 492.027 591.546 492.014ZM169.016 490.1H588.28L378.696 359.228L169.016 490.1Z" fill="#231F20"/>
<path d="M606.044 376.279L487.002 406.764L503.871 472.868L622.913 442.383L606.044 376.279Z" fill="#018ABE"/>
<path d="M503.877 473.837C503.704 473.831 503.534 473.785 503.381 473.703C503.169 473.564 503.013 473.354 502.941 473.11L486.076 407.004C486.017 406.758 486.056 406.499 486.185 406.282C486.313 406.064 486.52 405.905 486.764 405.837L605.814 375.358C606.048 375.271 606.305 375.271 606.54 375.358C606.65 375.421 606.746 375.506 606.821 375.608C606.897 375.71 606.951 375.827 606.979 375.951L623.844 442.057C623.876 442.178 623.883 442.305 623.866 442.43C623.848 442.555 623.806 442.675 623.742 442.783C623.678 442.892 623.594 442.986 623.493 443.062C623.393 443.137 623.278 443.192 623.157 443.224L504.106 473.703L503.877 473.837ZM488.177 407.54L504.565 471.79L621.762 441.77L605.47 377.443L488.177 407.54Z" fill="#231F20"/>
<path d="M503.877 472.88L553.938 420.551L622.927 442.382L503.877 472.88Z" fill="#018ABE"/>
<path d="M503.877 473.837C503.71 473.836 503.546 473.791 503.402 473.707C503.258 473.623 503.139 473.503 503.055 473.359C502.943 473.181 502.895 472.97 502.919 472.761C502.944 472.552 503.039 472.358 503.189 472.211L553.25 419.9C553.373 419.771 553.528 419.677 553.7 419.63C553.872 419.583 554.053 419.583 554.224 419.632L623.213 441.483C623.411 441.545 623.584 441.67 623.704 441.839C623.825 442.008 623.887 442.212 623.882 442.42C623.872 442.628 623.797 442.827 623.666 442.989C623.536 443.151 623.357 443.267 623.156 443.319L504.106 473.799L503.877 473.837ZM554.224 421.641L506.875 471.12L619.451 442.286L554.224 421.641Z" fill="#231F20"/>
<path d="M487.012 406.775L556.841 431.916L606.062 376.276L487.012 406.775Z" fill="#018ABE"/>
<path d="M556.841 432.873C556.734 432.892 556.624 432.892 556.517 432.873L486.687 407.731C486.496 407.662 486.332 407.534 486.219 407.366C486.106 407.197 486.049 406.997 486.057 406.794C486.065 406.588 486.138 406.391 486.265 406.229C486.392 406.068 486.566 405.951 486.764 405.895L605.814 375.415C606.011 375.367 606.218 375.382 606.406 375.457C606.595 375.533 606.755 375.665 606.864 375.836C606.975 376.012 607.026 376.219 607.008 376.426C606.991 376.633 606.907 376.829 606.769 376.984L557.548 432.605C557.456 432.697 557.345 432.769 557.224 432.815C557.102 432.861 556.972 432.881 556.841 432.873ZM490.259 406.928L556.555 430.787L603.274 377.979L490.259 406.928Z" fill="#231F20"/>
<path d="M669.122 314.218L601.186 331.047L610.498 368.771L678.434 351.941L669.122 314.218Z" fill="#018ABE"/>
<path d="M610.493 369.713C610.279 369.712 610.072 369.64 609.902 369.509C609.733 369.377 609.612 369.194 609.557 368.986L600.256 331.275C600.197 331.029 600.236 330.77 600.364 330.552C600.492 330.334 600.7 330.175 600.943 330.107L668.882 313.289C669.002 313.255 669.129 313.246 669.253 313.262C669.377 313.279 669.496 313.321 669.604 313.385C669.711 313.45 669.804 313.536 669.877 313.638C669.95 313.74 670.001 313.855 670.028 313.978L679.349 351.69C679.379 351.813 679.384 351.94 679.364 352.065C679.344 352.19 679.3 352.309 679.234 352.417C679.171 352.527 679.086 352.623 678.984 352.699C678.882 352.775 678.766 352.829 678.642 352.857L610.722 369.675L610.493 369.713ZM602.338 331.734L611.2 367.59L677.267 351.231L668.5 315.375L602.338 331.734Z" fill="#231F20"/>
<path d="M610.493 368.757L639.239 339.177L678.413 351.919L610.493 368.757Z" fill="#018ABE"/>
<path d="M610.494 369.713C610.326 369.716 610.161 369.673 610.016 369.589C609.871 369.505 609.752 369.382 609.672 369.235C609.567 369.055 609.522 368.846 609.546 368.639C609.571 368.431 609.662 368.238 609.806 368.087L638.551 338.526C638.673 338.396 638.83 338.304 639.002 338.26C639.175 338.215 639.356 338.222 639.526 338.277L678.719 351.02C678.972 351.02 679.215 351.121 679.394 351.3C679.573 351.48 679.674 351.723 679.674 351.977C679.674 352.231 679.573 352.474 679.394 352.653C679.215 352.833 678.972 352.933 678.719 352.933L610.799 369.752L610.494 369.713ZM639.506 340.286L613.511 367.073L674.937 351.862L639.506 340.286Z" fill="#231F20"/>
<path d="M601.172 331.045L640.824 345.663L669.111 314.208L601.172 331.045Z" fill="#018ABE"/>
<path d="M640.843 346.619C640.729 346.638 640.613 346.638 640.499 346.619L600.848 332.002C600.657 331.928 600.495 331.796 600.385 331.624C600.275 331.452 600.223 331.249 600.236 331.045C600.243 330.841 600.315 330.645 600.443 330.486C600.57 330.327 600.746 330.215 600.943 330.165L668.882 313.347C669.079 313.295 669.287 313.309 669.476 313.384C669.665 313.46 669.825 313.594 669.932 313.768C670.038 313.946 670.083 314.154 670.063 314.36C670.042 314.567 669.956 314.761 669.818 314.916L641.55 346.313C641.363 346.503 641.109 346.613 640.843 346.619ZM604.438 331.313L640.557 344.706L666.323 316.006L604.438 331.313Z" fill="#231F20"/>
<path d="M567.901 304.704L512.222 329.678L526.037 360.587L581.716 335.614L567.901 304.704Z" fill="#018ABE"/>
<path d="M526.052 361.62C525.867 361.625 525.685 361.575 525.529 361.476C525.373 361.377 525.249 361.234 525.174 361.065L511.364 330.146C511.311 330.032 511.28 329.908 511.275 329.782C511.27 329.656 511.291 329.53 511.335 329.413C511.38 329.295 511.448 329.187 511.535 329.096C511.622 329.005 511.726 328.932 511.842 328.883L567.499 303.914C567.732 303.81 567.997 303.801 568.237 303.891C568.476 303.98 568.671 304.16 568.779 304.392L582.55 335.216C582.645 335.449 582.645 335.71 582.55 335.943C582.454 336.175 582.277 336.365 582.053 336.479L526.377 361.352C526.289 361.464 526.179 361.555 526.052 361.62ZM513.484 330.241L526.53 359.401L580.449 335.216L567.423 306.057L513.484 330.241Z" fill="#231F20"/>
<path d="M526.052 360.568L546.126 330.758L581.71 335.599L526.052 360.568Z" fill="#018ABE"/>
<path d="M526.052 361.62C525.875 361.629 525.699 361.588 525.544 361.501C525.39 361.414 525.263 361.285 525.179 361.128C525.095 360.972 525.057 360.795 525.07 360.618C525.082 360.441 525.145 360.271 525.25 360.128L545.343 330.318C545.441 330.169 545.579 330.051 545.741 329.976C545.903 329.902 546.083 329.874 546.26 329.897L581.843 334.757C582.048 334.783 582.24 334.876 582.388 335.021C582.536 335.166 582.633 335.355 582.664 335.56C582.692 335.767 582.653 335.976 582.553 336.158C582.454 336.341 582.299 336.487 582.11 336.574L526.434 361.448C526.321 361.532 526.19 361.591 526.052 361.62ZM546.585 331.868L528.707 358.425L578.271 336.192L546.585 331.868Z" fill="#231F20"/>
<path d="M512.224 329.667L548.514 336.058L567.9 304.698L512.224 329.667Z" fill="#018ABE"/>
<path d="M548.494 337.015H548.342L512.052 330.624C511.853 330.588 511.671 330.488 511.533 330.34C511.395 330.192 511.309 330.003 511.288 329.801C511.261 329.598 511.301 329.391 511.401 329.212C511.5 329.033 511.655 328.891 511.842 328.806L567.499 303.837C567.689 303.753 567.9 303.732 568.103 303.777C568.306 303.821 568.489 303.93 568.626 304.086C568.748 304.249 568.814 304.447 568.814 304.651C568.814 304.854 568.748 305.052 568.626 305.215L549.239 336.594C549.155 336.716 549.045 336.817 548.915 336.89C548.786 336.963 548.642 337.006 548.494 337.015ZM515.452 329.361L548.036 335.101L565.455 306.937L515.452 329.361Z" fill="#231F20"/>
<path d="M323.611 82.943H211.609C208.098 82.943 204.732 84.34 202.249 86.8266C199.767 89.3132 198.373 92.6858 198.373 96.2024V153.602C198.373 155.344 198.715 157.068 199.38 158.677C200.045 160.285 201.02 161.747 202.249 162.978C203.478 164.209 204.938 165.186 206.544 165.853C208.149 166.519 209.871 166.862 211.609 166.862H311.33L323.21 187.258L323.363 166.862H323.688C325.426 166.862 327.147 166.519 328.753 165.853C330.359 165.186 331.818 164.209 333.047 162.978C334.276 161.747 335.251 160.285 335.916 158.677C336.582 157.068 336.924 155.344 336.924 153.602V96.2024C336.924 94.4547 336.579 92.7242 335.909 91.1105C335.239 89.4968 334.257 88.0317 333.02 86.7994C331.783 85.5672 330.315 84.5921 328.7 83.9303C327.085 83.2684 325.356 82.9329 323.611 82.943Z" fill="white"/>
<path d="M323.134 188.215C322.967 188.214 322.803 188.169 322.659 188.085C322.515 188.001 322.396 187.881 322.312 187.736L310.719 167.818H211.609C207.847 167.813 204.24 166.314 201.58 163.649C198.919 160.984 197.423 157.371 197.417 153.602V96.2024C197.423 92.4336 198.919 88.8206 201.58 86.1557C204.24 83.4908 207.847 81.9914 211.609 81.9863H323.611C327.375 81.9863 330.985 83.4841 333.646 86.1501C336.307 88.8161 337.802 92.4321 337.802 96.2024V153.602C337.801 157.263 336.391 160.781 333.865 163.426C331.339 166.07 327.892 167.637 324.241 167.799L324.089 187.277C324.09 187.485 324.021 187.687 323.892 187.85C323.764 188.014 323.584 188.129 323.382 188.176C323.304 188.209 323.218 188.223 323.134 188.215ZM211.609 83.8997C208.353 83.9047 205.232 85.2025 202.93 87.5086C200.628 89.8148 199.333 92.9411 199.327 96.2024V153.602C199.333 156.864 200.628 159.99 202.93 162.296C205.232 164.602 208.353 165.9 211.609 165.905H311.33C311.5 165.903 311.667 165.946 311.815 166.03C311.963 166.114 312.085 166.236 312.17 166.383L322.293 183.776L322.408 166.862C322.408 166.608 322.508 166.365 322.688 166.185C322.867 166.006 323.11 165.905 323.363 165.905H323.688C326.943 165.9 330.064 164.602 332.366 162.296C334.668 159.99 335.964 156.864 335.969 153.602V96.2024C335.969 92.9395 334.675 89.8103 332.372 87.5031C330.069 85.1958 326.945 83.8997 323.688 83.8997H211.609Z" fill="#231F20"/>
<path d="M249.159 127.906L299.354 97.1399L256.818 114.877L249.159 127.906Z" fill="#231F20"/>
<path d="M249.16 128.863C248.908 128.859 248.667 128.756 248.491 128.576C248.342 128.425 248.247 128.229 248.219 128.018C248.192 127.807 248.233 127.594 248.338 127.409L255.978 114.398C256.082 114.217 256.243 114.075 256.437 113.996L298.972 96.2407C299.195 96.1478 299.444 96.1427 299.671 96.2265C299.897 96.3102 300.083 96.4766 300.192 96.6922C300.301 96.9077 300.324 97.1565 300.257 97.3887C300.19 97.6208 300.038 97.819 299.832 97.9435L249.656 128.71C249.508 128.806 249.336 128.859 249.16 128.863ZM257.487 115.642L251.929 125.075L288.41 102.765L257.487 115.642Z" fill="#231F20"/>
<path d="M256.818 114.877L273.244 123.276L299.354 97.1399L256.818 114.877Z" fill="#018ABE"/>
<path d="M273.244 124.156C273.112 124.185 272.975 124.185 272.843 124.156L256.436 115.757C256.259 115.675 256.114 115.537 256.024 115.363C255.934 115.19 255.905 114.992 255.939 114.8C255.943 114.634 255.996 114.472 256.091 114.336C256.186 114.2 256.32 114.095 256.474 114.035L299.01 96.2789C299.196 96.211 299.4 96.2081 299.588 96.2709C299.776 96.3336 299.938 96.4583 300.046 96.6246C300.155 96.7908 300.204 96.989 300.185 97.1867C300.167 97.3845 300.083 97.5703 299.946 97.7139L273.855 123.888C273.693 124.053 273.475 124.149 273.244 124.156ZM258.9 114.953L273.129 122.205L295.667 99.6464L258.9 114.953Z" fill="#231F20"/>
<path d="M299.354 97.1399L245.32 110.055L233.039 103.033L299.354 97.1399Z" fill="#018ABE"/>
<path d="M245.32 110.973C245.172 110.974 245.027 110.934 244.9 110.859L232.6 103.817C232.44 103.725 232.314 103.585 232.239 103.417C232.163 103.248 232.143 103.061 232.179 102.88C232.219 102.696 232.317 102.531 232.458 102.407C232.599 102.283 232.776 102.207 232.962 102.191L299.278 96.2981C299.494 96.2888 299.707 96.3568 299.879 96.4899C300.05 96.623 300.169 96.8126 300.214 97.0251C300.249 97.2423 300.202 97.4649 300.082 97.649C299.962 97.8332 299.777 97.9656 299.564 98.0201L245.53 110.973H245.32ZM235.885 103.684L245.435 109.175L287.455 99.0915L235.885 103.684Z" fill="#231F20"/>
<path d="M245.32 110.055L249.159 127.906L256.819 114.877L299.354 97.1399L245.32 110.055Z" fill="#018ABE"/>
<path d="M249.159 128.767H249.026C248.852 128.739 248.69 128.658 248.564 128.535C248.437 128.411 248.352 128.252 248.319 128.079L244.499 110.246C244.474 110.136 244.47 110.021 244.489 109.909C244.508 109.797 244.549 109.69 244.609 109.594C244.67 109.498 244.748 109.415 244.841 109.35C244.933 109.284 245.038 109.238 245.148 109.213L299.163 96.2789C299.378 96.2327 299.602 96.2652 299.795 96.3706C299.988 96.4759 300.136 96.6471 300.214 96.8529C300.279 97.0641 300.265 97.292 300.173 97.4932C300.082 97.6944 299.919 97.8547 299.717 97.9435L257.43 115.565L249.923 128.346C249.842 128.476 249.729 128.582 249.596 128.656C249.462 128.73 249.312 128.768 249.159 128.767ZM246.39 110.705L249.58 125.534L256.112 114.436C256.208 114.272 256.356 114.144 256.532 114.073L289.002 100.507L246.39 110.705Z" fill="#231F20"/>
<path d="M245.868 136.973C244.818 136.671 244.052 136.301 243.572 135.864C243.096 135.421 242.858 134.877 242.858 134.231C242.858 133.5 243.149 132.896 243.731 132.42C244.318 131.94 245.079 131.699 246.014 131.699C246.652 131.699 247.22 131.823 247.717 132.069C248.219 132.316 248.605 132.656 248.878 133.09C249.154 133.523 249.292 133.997 249.292 134.512H248.061C248.061 133.95 247.883 133.51 247.526 133.192C247.169 132.868 246.665 132.707 246.014 132.707C245.411 132.707 244.939 132.841 244.599 133.109C244.263 133.372 244.095 133.74 244.095 134.212C244.095 134.59 244.254 134.911 244.573 135.175C244.896 135.434 245.442 135.672 246.212 135.889C246.986 136.106 247.589 136.346 248.023 136.61C248.461 136.869 248.784 137.173 248.992 137.522C249.205 137.87 249.311 138.28 249.311 138.752C249.311 139.505 249.018 140.108 248.431 140.563C247.844 141.014 247.06 141.239 246.078 141.239C245.44 141.239 244.845 141.118 244.293 140.876C243.74 140.629 243.313 140.293 243.011 139.868C242.713 139.443 242.564 138.961 242.564 138.421H243.795C243.795 138.982 244.001 139.426 244.414 139.753C244.83 140.077 245.385 140.238 246.078 140.238C246.724 140.238 247.22 140.106 247.564 139.843C247.908 139.579 248.08 139.22 248.08 138.765C248.08 138.31 247.921 137.959 247.602 137.713C247.283 137.462 246.705 137.215 245.868 136.973ZM253.565 141.239C252.629 141.239 251.868 140.933 251.282 140.321C250.695 139.705 250.402 138.882 250.402 137.853V137.636C250.402 136.952 250.531 136.342 250.791 135.806C251.054 135.266 251.42 134.845 251.887 134.543C252.359 134.237 252.87 134.084 253.418 134.084C254.315 134.084 255.012 134.38 255.51 134.971C256.007 135.562 256.256 136.408 256.256 137.509V138H251.581C251.598 138.68 251.796 139.231 252.174 139.651C252.557 140.068 253.042 140.276 253.628 140.276C254.045 140.276 254.398 140.191 254.687 140.021C254.976 139.851 255.229 139.626 255.446 139.345L256.166 139.906C255.588 140.795 254.721 141.239 253.565 141.239ZM253.418 135.054C252.942 135.054 252.542 135.228 252.219 135.577C251.896 135.921 251.696 136.406 251.62 137.03H255.076V136.941C255.042 136.342 254.88 135.878 254.591 135.551C254.302 135.219 253.911 135.054 253.418 135.054ZM258.743 134.212L258.781 135.079C259.308 134.416 259.997 134.084 260.847 134.084C262.305 134.084 263.041 134.907 263.054 136.552V141.112H261.874V136.546C261.87 136.048 261.755 135.681 261.529 135.443C261.308 135.205 260.962 135.086 260.49 135.086C260.107 135.086 259.772 135.188 259.482 135.392C259.193 135.596 258.968 135.864 258.806 136.195V141.112H257.627V134.212H258.743ZM266.433 132.541V134.212H267.721V135.124H266.433V139.403C266.433 139.679 266.491 139.887 266.605 140.028C266.72 140.164 266.916 140.232 267.192 140.232C267.328 140.232 267.515 140.206 267.753 140.155V141.112C267.443 141.197 267.141 141.239 266.848 141.239C266.321 141.239 265.923 141.08 265.655 140.761C265.387 140.442 265.254 139.989 265.254 139.403V135.124H263.997V134.212H265.254V132.541H266.433Z" fill="black"/>
<path d="M315.914 468.48C315.661 468.48 315.418 468.379 315.239 468.199C315.06 468.02 314.959 467.777 314.959 467.523C314.959 467.269 315.06 467.026 315.239 466.847C315.418 466.667 315.661 466.566 315.914 466.566C318.454 466.566 320.994 466.566 323.554 466.375C323.807 466.375 324.05 466.476 324.229 466.655C324.408 466.835 324.509 467.078 324.509 467.332C324.509 467.585 324.408 467.829 324.229 468.008C324.05 468.188 323.807 468.288 323.554 468.288C320.994 468.384 318.435 468.441 315.914 468.48ZM308.274 468.48C305.734 468.48 303.174 468.48 300.634 468.288C300.384 468.278 300.148 468.171 299.976 467.988C299.805 467.806 299.712 467.563 299.717 467.313C299.732 467.059 299.843 466.82 300.028 466.646C300.212 466.471 300.457 466.375 300.71 466.375C303.251 466.471 305.772 466.528 308.35 466.566C308.604 466.566 308.846 466.667 309.026 466.847C309.205 467.026 309.305 467.269 309.305 467.523C309.305 467.777 309.205 468.02 309.026 468.199C308.846 468.379 308.604 468.48 308.35 468.48H308.274ZM331.194 467.944C330.952 467.944 330.72 467.851 330.545 467.683C330.371 467.515 330.268 467.287 330.258 467.045C330.25 466.919 330.267 466.793 330.308 466.674C330.349 466.555 330.413 466.445 330.497 466.351C330.58 466.257 330.681 466.18 330.794 466.125C330.907 466.07 331.03 466.038 331.156 466.031C333.677 465.897 336.217 465.724 338.796 465.514C338.92 465.504 339.045 465.518 339.164 465.557C339.283 465.596 339.393 465.658 339.487 465.74C339.581 465.822 339.658 465.922 339.714 466.035C339.769 466.147 339.801 466.269 339.808 466.394C339.818 466.52 339.804 466.646 339.765 466.766C339.727 466.887 339.665 466.998 339.583 467.094C339.502 467.19 339.402 467.269 339.29 467.326C339.177 467.383 339.055 467.418 338.929 467.427C336.389 467.619 333.849 467.791 331.289 467.944H331.194ZM292.994 467.944C290.434 467.791 287.894 467.619 285.354 467.408C285.228 467.398 285.106 467.363 284.994 467.306C284.882 467.249 284.783 467.17 284.701 467.074C284.619 466.978 284.557 466.867 284.519 466.747C284.48 466.627 284.465 466.501 284.475 466.375C284.485 466.249 284.52 466.127 284.577 466.015C284.634 465.903 284.713 465.803 284.809 465.721C284.905 465.639 285.016 465.577 285.135 465.538C285.255 465.5 285.381 465.485 285.507 465.495C288.047 465.705 290.568 465.878 293.147 466.031C293.4 466.031 293.643 466.131 293.822 466.311C294.001 466.49 294.102 466.734 294.102 466.987C294.102 467.241 294.001 467.484 293.822 467.664C293.643 467.843 293.4 467.944 293.147 467.944H292.994ZM346.474 466.739C346.239 466.732 346.014 466.641 345.839 466.484C345.664 466.326 345.55 466.111 345.519 465.878C345.506 465.752 345.518 465.625 345.554 465.504C345.59 465.382 345.65 465.27 345.73 465.172C345.809 465.074 345.908 464.993 346.019 464.933C346.131 464.874 346.253 464.837 346.378 464.825C348.925 464.557 351.472 464.27 354.018 463.964C354.144 463.948 354.271 463.956 354.393 463.989C354.515 464.022 354.63 464.079 354.73 464.156C354.83 464.234 354.914 464.33 354.977 464.44C355.04 464.55 355.081 464.671 355.098 464.797C355.114 464.922 355.105 465.05 355.072 465.172C355.039 465.294 354.983 465.409 354.906 465.509C354.828 465.61 354.732 465.694 354.623 465.757C354.513 465.82 354.392 465.861 354.267 465.878C351.72 466.209 349.173 466.496 346.627 466.739H346.474ZM277.848 466.739H277.752C275.212 466.452 272.671 466.145 270.112 465.82C269.859 465.787 269.629 465.655 269.473 465.452C269.317 465.249 269.248 464.993 269.281 464.739C269.314 464.485 269.446 464.255 269.649 464.099C269.851 463.943 270.107 463.874 270.36 463.907C272.863 464.232 275.384 464.538 278 464.806C278.254 464.821 278.491 464.937 278.659 465.127C278.827 465.317 278.913 465.566 278.898 465.82C278.883 466.074 278.768 466.311 278.578 466.48C278.388 466.648 278.139 466.735 277.886 466.719L277.848 466.739ZM361.639 464.825C361.414 464.824 361.196 464.742 361.025 464.595C360.853 464.448 360.74 464.245 360.703 464.022C360.682 463.897 360.685 463.769 360.714 463.646C360.743 463.523 360.797 463.407 360.872 463.305C360.947 463.203 361.042 463.117 361.151 463.053C361.26 462.989 361.38 462.947 361.506 462.931C364.008 462.548 366.529 462.147 369.031 461.726C369.154 461.704 369.28 461.707 369.402 461.735C369.524 461.763 369.639 461.815 369.741 461.888C369.842 461.961 369.928 462.054 369.993 462.16C370.058 462.267 370.101 462.386 370.12 462.51C370.144 462.632 370.144 462.758 370.118 462.88C370.093 463.002 370.043 463.118 369.972 463.22C369.9 463.322 369.809 463.408 369.703 463.474C369.597 463.539 369.479 463.582 369.356 463.601C366.835 464.041 364.313 464.443 361.716 464.825H361.639ZM262.72 464.672H262.568C260.046 464.27 257.525 463.83 255.023 463.371C254.898 463.348 254.778 463.301 254.671 463.232C254.563 463.163 254.471 463.074 254.398 462.969C254.325 462.864 254.274 462.746 254.247 462.621C254.22 462.497 254.217 462.368 254.24 462.242C254.263 462.117 254.31 461.997 254.378 461.889C254.447 461.782 254.537 461.689 254.641 461.616C254.746 461.543 254.864 461.492 254.988 461.465C255.113 461.438 255.241 461.435 255.367 461.458C257.869 461.936 260.371 462.357 262.873 462.759C262.999 462.769 263.121 462.804 263.233 462.861C263.345 462.918 263.445 462.997 263.526 463.093C263.608 463.189 263.67 463.3 263.708 463.42C263.747 463.54 263.762 463.666 263.752 463.792C263.742 463.918 263.707 464.04 263.65 464.152C263.593 464.264 263.514 464.364 263.418 464.446C263.322 464.528 263.211 464.59 263.092 464.629C262.972 464.667 262.846 464.682 262.72 464.672ZM376.709 462.242C376.456 462.268 376.203 462.191 376.006 462.03C375.809 461.868 375.684 461.635 375.659 461.381C375.633 461.127 375.71 460.874 375.871 460.677C376.032 460.479 376.265 460.354 376.518 460.329C379.02 459.831 381.522 459.315 383.986 458.779C384.24 458.723 384.505 458.771 384.723 458.91C384.942 459.05 385.096 459.272 385.151 459.525C385.207 459.779 385.16 460.044 385.02 460.263C384.881 460.482 384.66 460.637 384.406 460.692L376.9 462.242H376.709ZM247.727 461.86H247.517C245.015 461.324 242.532 460.75 240.049 460.138C239.928 460.108 239.814 460.056 239.713 459.982C239.613 459.908 239.528 459.815 239.464 459.708C239.4 459.601 239.358 459.483 239.34 459.359C239.323 459.236 239.33 459.11 239.361 458.99C239.42 458.744 239.574 458.531 239.788 458.399C240.003 458.266 240.261 458.224 240.507 458.282C242.971 458.894 245.435 459.449 247.918 459.984C248.041 460.012 248.158 460.063 248.261 460.135C248.364 460.208 248.452 460.3 248.52 460.407C248.587 460.514 248.633 460.633 248.654 460.757C248.675 460.882 248.672 461.009 248.644 461.132C248.594 461.35 248.469 461.543 248.29 461.676C248.112 461.809 247.892 461.874 247.67 461.86H247.727ZM391.55 458.97C391.337 458.971 391.131 458.9 390.964 458.768C390.798 458.636 390.681 458.451 390.633 458.243C390.602 458.121 390.594 457.995 390.612 457.87C390.629 457.745 390.671 457.625 390.735 457.517C390.799 457.408 390.884 457.314 390.984 457.238C391.085 457.162 391.199 457.107 391.321 457.076C393.804 456.464 396.268 455.826 398.712 455.163C398.955 455.098 399.214 455.132 399.432 455.258C399.651 455.383 399.81 455.59 399.878 455.833C399.938 456.078 399.902 456.338 399.778 456.558C399.654 456.779 399.45 456.943 399.209 457.019C396.745 457.669 394.262 458.301 391.779 458.932L391.55 458.97ZM232.81 458.243H232.542C230.078 457.555 227.634 456.847 225.189 456.1C224.936 456.024 224.723 455.85 224.598 455.617C224.472 455.384 224.444 455.11 224.52 454.857C224.596 454.603 224.77 454.39 225.003 454.264C225.236 454.139 225.509 454.111 225.762 454.187C228.168 454.933 230.613 455.641 233.058 456.311C233.302 456.382 233.508 456.546 233.633 456.768C233.758 456.989 233.792 457.251 233.727 457.497C233.681 457.7 233.571 457.883 233.412 458.018C233.254 458.153 233.056 458.232 232.848 458.243H232.81ZM406.314 454.972C406.061 455.007 405.804 454.94 405.6 454.786C405.396 454.632 405.261 454.403 405.225 454.149C405.19 453.895 405.257 453.638 405.411 453.433C405.565 453.229 405.793 453.094 406.047 453.058C408.492 452.35 410.917 451.585 413.324 450.82C413.449 450.781 413.581 450.767 413.712 450.779C413.843 450.791 413.97 450.829 414.086 450.89C414.202 450.951 414.305 451.035 414.389 451.136C414.473 451.237 414.536 451.354 414.575 451.48C414.614 451.605 414.628 451.737 414.616 451.868C414.603 451.999 414.566 452.127 414.505 452.243C414.443 452.359 414.36 452.463 414.259 452.547C414.158 452.631 414.041 452.694 413.916 452.733C411.49 453.517 409.045 454.264 406.582 454.991C406.505 454.999 406.427 454.992 406.352 454.972H406.314ZM218.217 453.747C218.116 453.765 218.013 453.765 217.912 453.747C215.486 452.924 213.079 452.044 210.711 451.145C210.502 451.038 210.34 450.858 210.255 450.638C210.17 450.419 210.169 450.176 210.252 449.956C210.335 449.736 210.495 449.554 210.703 449.445C210.911 449.336 211.152 449.308 211.38 449.365C213.748 450.246 216.116 451.107 218.523 451.929C218.761 452.016 218.957 452.193 219.067 452.421C219.178 452.65 219.195 452.913 219.115 453.154C219.047 453.327 218.929 453.476 218.776 453.582C218.622 453.687 218.441 453.745 218.256 453.747H218.217ZM420.868 450.265C420.671 450.267 420.479 450.208 420.318 450.095C420.156 449.981 420.035 449.82 419.971 449.633C419.891 449.392 419.908 449.129 420.019 448.901C420.129 448.672 420.324 448.496 420.563 448.409C422.969 447.567 425.357 446.687 427.725 445.788C427.842 445.742 427.966 445.72 428.091 445.723C428.216 445.726 428.34 445.755 428.453 445.806C428.567 445.858 428.67 445.932 428.755 446.024C428.84 446.116 428.905 446.224 428.948 446.342C428.994 446.46 429.016 446.586 429.013 446.713C429.01 446.84 428.982 446.965 428.93 447.08C428.879 447.196 428.805 447.3 428.713 447.387C428.621 447.474 428.512 447.542 428.394 447.586C426.025 448.485 423.619 449.365 421.193 450.226C421.1 450.255 421.004 450.268 420.907 450.265H420.868ZM203.95 448.351C203.83 448.379 203.706 448.379 203.587 448.351C201.218 447.356 198.85 446.323 196.558 445.29C196.443 445.237 196.34 445.161 196.255 445.067C196.17 444.974 196.104 444.864 196.061 444.745C196.019 444.626 196 444.499 196.007 444.373C196.013 444.246 196.045 444.122 196.1 444.008C196.151 443.894 196.225 443.791 196.316 443.706C196.408 443.621 196.516 443.555 196.633 443.512C196.751 443.469 196.876 443.45 197 443.457C197.125 443.463 197.248 443.494 197.36 443.549C199.633 444.582 201.963 445.615 204.313 446.591C204.429 446.637 204.535 446.706 204.625 446.794C204.714 446.882 204.785 446.988 204.833 447.104C204.881 447.22 204.906 447.344 204.905 447.47C204.904 447.595 204.878 447.719 204.828 447.835C204.749 447.989 204.628 448.117 204.48 448.205C204.331 448.293 204.161 448.337 203.988 448.332L203.95 448.351ZM435.174 444.831C434.985 444.835 434.798 444.781 434.641 444.674C434.483 444.568 434.363 444.416 434.296 444.238C434.246 444.122 434.22 443.998 434.219 443.873C434.218 443.747 434.243 443.622 434.291 443.507C434.339 443.391 434.41 443.285 434.499 443.197C434.589 443.109 434.695 443.04 434.811 442.994C437.161 442.018 439.491 441.081 441.802 439.99C441.917 439.939 442.041 439.912 442.167 439.91C442.293 439.907 442.418 439.93 442.536 439.976C442.653 440.022 442.76 440.091 442.85 440.179C442.941 440.267 443.013 440.372 443.063 440.488C443.161 440.719 443.166 440.98 443.077 441.215C442.988 441.45 442.812 441.642 442.585 441.75C440.255 442.784 437.906 443.779 435.537 444.773C435.431 444.801 435.322 444.814 435.213 444.812L435.174 444.831ZM190.121 441.98C189.976 441.975 189.834 441.943 189.701 441.884C187.409 440.736 185.136 439.531 182.921 438.306C182.81 438.246 182.712 438.165 182.633 438.067C182.554 437.969 182.495 437.856 182.46 437.735C182.424 437.614 182.413 437.488 182.426 437.362C182.44 437.237 182.478 437.116 182.539 437.005C182.663 436.785 182.868 436.622 183.111 436.551C183.353 436.48 183.614 436.505 183.837 436.623C186.034 437.847 188.288 439.033 190.561 440.162C190.783 440.284 190.951 440.487 191.029 440.729C191.107 440.971 191.09 441.234 190.981 441.463C190.898 441.619 190.774 441.75 190.622 441.841C190.471 441.932 190.298 441.98 190.121 441.98ZM449.175 438.613C448.995 438.618 448.817 438.57 448.664 438.474C448.512 438.379 448.39 438.241 448.315 438.077C448.26 437.964 448.227 437.841 448.219 437.715C448.211 437.59 448.228 437.464 448.269 437.344C448.31 437.225 448.374 437.116 448.457 437.021C448.54 436.927 448.641 436.85 448.754 436.795C451.046 435.685 453.319 434.556 455.573 433.389C455.799 433.272 456.061 433.25 456.303 433.327C456.545 433.404 456.746 433.575 456.862 433.801C456.979 434.026 457.001 434.289 456.924 434.531C456.847 434.774 456.677 434.975 456.452 435.092C454.179 436.259 451.906 437.407 449.576 438.517C449.451 438.577 449.313 438.604 449.175 438.593V438.613ZM176.77 434.595C176.594 434.59 176.422 434.537 176.274 434.441C174.077 433.121 171.9 431.744 169.78 430.347C169.57 430.207 169.425 429.989 169.375 429.742C169.325 429.495 169.374 429.238 169.512 429.027C169.58 428.921 169.668 428.83 169.772 428.759C169.875 428.688 169.992 428.638 170.115 428.613C170.238 428.588 170.364 428.588 170.487 428.613C170.61 428.638 170.727 428.688 170.83 428.759C172.931 430.136 175.09 431.495 177.267 432.815C177.481 432.946 177.634 433.156 177.695 433.399C177.756 433.642 177.719 433.9 177.592 434.116C177.507 434.26 177.387 434.379 177.243 434.462C177.099 434.546 176.937 434.592 176.77 434.595ZM462.736 431.552C462.566 431.551 462.4 431.506 462.253 431.422C462.106 431.339 461.983 431.219 461.895 431.074C461.778 430.85 461.752 430.589 461.824 430.346C461.895 430.103 462.058 429.898 462.277 429.773C464.493 428.529 466.689 427.247 468.848 425.946C468.955 425.881 469.075 425.838 469.2 425.819C469.324 425.8 469.451 425.805 469.574 425.835C469.696 425.866 469.811 425.92 469.913 425.995C470.014 426.069 470.1 426.163 470.165 426.272C470.231 426.38 470.274 426.499 470.293 426.624C470.312 426.749 470.306 426.876 470.276 426.999C470.246 427.122 470.192 427.237 470.117 427.339C470.043 427.44 469.949 427.526 469.841 427.592C467.663 428.867 465.448 430.143 463.194 431.418C463.055 431.501 462.897 431.547 462.736 431.552ZM164.031 426.157C163.833 426.156 163.64 426.096 163.477 425.985C161.389 424.467 159.345 422.917 157.346 421.335C157.149 421.177 157.022 420.948 156.994 420.697C156.965 420.446 157.037 420.194 157.193 419.996C157.357 419.802 157.588 419.677 157.841 419.649C158.093 419.621 158.346 419.69 158.549 419.843C160.459 421.412 162.541 422.942 164.585 424.435C164.688 424.507 164.776 424.6 164.843 424.706C164.911 424.813 164.957 424.932 164.978 425.057C164.999 425.181 164.996 425.309 164.967 425.432C164.939 425.555 164.887 425.671 164.814 425.774C164.722 425.894 164.603 425.992 164.467 426.058C164.331 426.124 164.182 426.158 164.031 426.157ZM152.074 416.59C151.844 416.589 151.621 416.508 151.444 416.36C149.725 414.849 148.006 413.299 146.363 411.749L145.771 411.175C145.682 411.088 145.611 410.984 145.563 410.869C145.515 410.754 145.49 410.63 145.49 410.506C145.49 410.381 145.515 410.257 145.563 410.142C145.611 410.027 145.682 409.923 145.771 409.836C145.86 409.746 145.965 409.675 146.082 409.627C146.198 409.578 146.323 409.553 146.449 409.553C146.575 409.553 146.7 409.578 146.816 409.627C146.933 409.675 147.038 409.746 147.127 409.836L147.7 410.391C149.343 411.941 151.024 413.471 152.743 414.945C152.892 415.072 152.998 415.243 153.047 415.433C153.096 415.623 153.085 415.824 153.016 416.008C152.947 416.192 152.824 416.35 152.662 416.461C152.5 416.572 152.308 416.63 152.112 416.628L152.074 416.59ZM140.996 406.067C140.738 406.066 140.491 405.963 140.308 405.78C138.513 403.866 136.756 401.953 135.075 400.155C134.986 400.067 134.915 399.963 134.867 399.848C134.819 399.733 134.794 399.61 134.794 399.485C134.794 399.36 134.819 399.237 134.867 399.122C134.915 399.007 134.986 398.902 135.075 398.815C135.164 398.726 135.269 398.654 135.386 398.606C135.502 398.557 135.627 398.532 135.753 398.532C135.879 398.532 136.004 398.557 136.12 398.606C136.237 398.654 136.342 398.726 136.431 398.815C138.112 400.729 139.85 402.642 141.626 404.383C141.716 404.472 141.787 404.578 141.835 404.694C141.884 404.811 141.909 404.936 141.909 405.062C141.909 405.189 141.884 405.314 141.835 405.43C141.787 405.547 141.716 405.653 141.626 405.741C141.474 405.95 141.249 406.093 140.996 406.143V406.067ZM130.797 394.587C130.653 394.585 130.512 394.551 130.384 394.488C130.255 394.425 130.142 394.335 130.052 394.223C128.409 392.31 126.824 390.205 125.296 388.196C125.149 387.992 125.086 387.738 125.122 387.488C125.158 387.238 125.288 387.012 125.487 386.857C125.69 386.705 125.944 386.639 126.195 386.675C126.446 386.711 126.672 386.845 126.824 387.048C128.333 388.962 129.918 391.047 131.522 393.018C131.604 393.113 131.667 393.223 131.705 393.342C131.744 393.461 131.758 393.587 131.748 393.712C131.737 393.837 131.701 393.958 131.643 394.069C131.585 394.18 131.505 394.278 131.408 394.357C131.264 394.565 131.045 394.71 130.797 394.759V394.587ZM121.61 382.361C121.454 382.361 121.302 382.323 121.165 382.249C121.028 382.176 120.912 382.069 120.826 381.94C119.375 379.816 117.961 377.635 116.644 375.473C116.536 375.258 116.513 375.011 116.579 374.781C116.645 374.55 116.795 374.353 116.999 374.228C117.203 374.103 117.447 374.059 117.682 374.105C117.916 374.151 118.125 374.284 118.267 374.478C119.566 376.601 120.96 378.763 122.393 380.868C122.465 380.971 122.515 381.086 122.542 381.209C122.568 381.331 122.57 381.458 122.547 381.581C122.524 381.704 122.476 381.821 122.407 381.925C122.338 382.03 122.249 382.119 122.144 382.188C122.014 382.365 121.824 382.487 121.61 382.533V382.361ZM113.626 369.331C113.454 369.329 113.286 369.282 113.139 369.195C112.991 369.108 112.869 368.983 112.785 368.833C111.544 366.576 110.36 364.26 109.252 361.984C109.197 361.869 109.166 361.745 109.159 361.619C109.152 361.492 109.171 361.366 109.214 361.247C109.256 361.127 109.322 361.018 109.407 360.924C109.493 360.831 109.596 360.755 109.71 360.702C109.822 360.646 109.943 360.614 110.067 360.606C110.191 360.599 110.315 360.616 110.433 360.657C110.55 360.698 110.658 360.762 110.75 360.845C110.843 360.928 110.918 361.029 110.971 361.142C112.06 363.399 113.244 365.676 114.447 367.915C114.511 368.022 114.552 368.141 114.568 368.265C114.584 368.388 114.575 368.514 114.541 368.634C114.507 368.754 114.449 368.866 114.37 368.962C114.292 369.059 114.194 369.139 114.084 369.197C113.97 369.348 113.809 369.455 113.626 369.503V369.331ZM106.96 355.708C106.768 355.711 106.58 355.656 106.42 355.55C106.26 355.444 106.135 355.292 106.062 355.115C105.088 352.761 104.152 350.331 103.312 347.94C103.234 347.703 103.251 347.446 103.36 347.222C103.468 346.998 103.66 346.825 103.894 346.74C104.128 346.656 104.385 346.665 104.612 346.768C104.838 346.87 105.016 347.057 105.107 347.289C105.948 349.662 106.864 352.053 107.838 354.388C107.928 354.622 107.925 354.881 107.829 355.113C107.733 355.344 107.552 355.53 107.323 355.631C107.209 355.682 107.085 355.708 106.96 355.708ZM101.879 341.281C101.672 341.284 101.469 341.219 101.303 341.094C101.137 340.969 101.017 340.793 100.962 340.592C100.256 338.124 99.6064 335.618 99.0525 333.13C99.0243 333.007 99.0208 332.88 99.0421 332.755C99.0634 332.631 99.1091 332.512 99.1766 332.405C99.244 332.298 99.332 332.206 99.4352 332.133C99.5385 332.061 99.6551 332.01 99.7783 331.982C100.024 331.931 100.28 331.979 100.49 332.115C100.701 332.251 100.85 332.464 100.905 332.71C101.459 335.159 102.089 337.627 102.815 340.057C102.85 340.177 102.861 340.304 102.848 340.429C102.834 340.553 102.796 340.674 102.736 340.785C102.675 340.895 102.594 340.992 102.496 341.071C102.398 341.149 102.286 341.208 102.166 341.243C102.086 341.271 102.002 341.284 101.917 341.281H101.879ZM98.5368 326.357C98.3079 326.36 98.0855 326.281 97.9102 326.133C97.735 325.986 97.6184 325.78 97.5818 325.554C97.1807 323.009 96.856 320.445 96.6077 317.9C96.5849 317.647 96.6636 317.394 96.8266 317.199C96.9896 317.003 97.2235 316.88 97.4767 316.858C97.73 316.835 97.982 316.914 98.1772 317.077C98.3724 317.24 98.4949 317.474 98.5177 317.728C98.766 320.215 99.0907 322.741 99.4918 325.248C99.5137 325.372 99.5108 325.5 99.4832 325.623C99.4556 325.746 99.4039 325.863 99.3311 325.966C99.2583 326.069 99.1658 326.157 99.059 326.224C98.9522 326.291 98.8331 326.336 98.7087 326.357H98.5368ZM97.0661 311.146C96.8175 311.142 96.5802 311.042 96.4026 310.868C96.2251 310.693 96.1208 310.458 96.1111 310.209C96.1111 308.946 96.1111 307.683 96.1111 306.382C96.1111 305.081 96.1111 303.742 96.1111 302.441C96.1134 302.314 96.1413 302.189 96.193 302.074C96.2447 301.959 96.3192 301.855 96.412 301.769C96.5048 301.683 96.614 301.617 96.733 301.575C96.8519 301.532 96.9782 301.514 97.1043 301.522C97.3542 301.532 97.5903 301.64 97.7617 301.822C97.9332 302.005 98.0263 302.248 98.0211 302.498C98.0211 303.78 98.0211 305.081 98.0211 306.325C98.0211 307.568 98.0211 308.793 98.0211 310.037C98.0262 310.164 98.0059 310.291 97.9614 310.41C97.9169 310.529 97.8491 310.638 97.7619 310.731C97.6747 310.824 97.57 310.898 97.4538 310.95C97.3376 311.001 97.2123 311.029 97.0852 311.031L97.0661 311.146ZM97.5818 295.84C97.457 295.83 97.3353 295.796 97.2241 295.738C97.1128 295.681 97.0142 295.601 96.934 295.505C96.8539 295.409 96.7939 295.297 96.7575 295.177C96.7211 295.057 96.7091 294.931 96.7223 294.806C96.9897 292.243 97.3335 289.66 97.7728 287.153C97.7913 287.029 97.8344 286.91 97.8995 286.803C97.9646 286.697 98.0504 286.604 98.1519 286.531C98.2534 286.458 98.3684 286.406 98.4903 286.378C98.6122 286.35 98.7384 286.347 98.8615 286.369C98.9859 286.389 99.105 286.435 99.2118 286.502C99.3186 286.569 99.4111 286.657 99.4839 286.76C99.5567 286.863 99.6084 286.98 99.636 287.103C99.6636 287.226 99.6665 287.354 99.6446 287.478C99.2244 289.947 98.8806 292.472 98.6323 294.998C98.5994 295.241 98.4778 295.464 98.2909 295.623C98.104 295.782 97.865 295.866 97.62 295.859L97.5818 295.84ZM100.16 280.763H99.9311C99.8093 280.731 99.6949 280.676 99.5944 280.601C99.4939 280.525 99.4093 280.43 99.3454 280.322C99.2815 280.214 99.2396 280.094 99.2221 279.969C99.2047 279.844 99.2119 279.717 99.2435 279.595C99.8356 277.089 100.542 274.602 101.325 272.172C101.404 271.931 101.575 271.731 101.801 271.616C102.026 271.501 102.288 271.481 102.529 271.559C102.647 271.596 102.757 271.657 102.852 271.736C102.947 271.816 103.025 271.914 103.082 272.025C103.139 272.135 103.173 272.255 103.183 272.379C103.193 272.503 103.178 272.628 103.14 272.746C102.376 275.137 101.688 277.586 101.096 280.055C101.046 280.257 100.931 280.438 100.769 280.569C100.607 280.701 100.407 280.775 100.198 280.782L100.16 280.763ZM104.84 266.202C104.72 266.231 104.596 266.231 104.477 266.202C104.36 266.156 104.254 266.087 104.164 265.999C104.074 265.911 104.002 265.807 103.952 265.691C103.902 265.576 103.876 265.452 103.874 265.326C103.872 265.2 103.896 265.075 103.942 264.958C104.897 262.586 105.967 260.213 107.094 257.917C107.139 257.79 107.21 257.673 107.303 257.575C107.396 257.477 107.509 257.4 107.634 257.35C107.76 257.299 107.894 257.275 108.029 257.28C108.164 257.285 108.296 257.318 108.417 257.378C108.538 257.438 108.645 257.523 108.731 257.628C108.817 257.732 108.88 257.853 108.915 257.984C108.951 258.114 108.959 258.251 108.938 258.385C108.916 258.518 108.867 258.646 108.793 258.759C107.705 261.017 106.654 263.332 105.718 265.685C105.639 265.842 105.52 265.975 105.372 266.069C105.224 266.163 105.053 266.216 104.878 266.221L104.84 266.202ZM111.601 252.56C111.433 252.561 111.267 252.515 111.124 252.426C111.014 252.365 110.919 252.282 110.842 252.183C110.765 252.083 110.709 251.97 110.677 251.848C110.645 251.727 110.638 251.601 110.655 251.476C110.673 251.352 110.715 251.233 110.78 251.125C112.079 248.925 113.435 246.724 114.848 244.581C114.997 244.396 115.211 244.273 115.446 244.236C115.681 244.2 115.921 244.252 116.119 244.384C116.318 244.516 116.46 244.717 116.518 244.948C116.576 245.179 116.546 245.424 116.433 245.634C115.058 247.738 113.702 249.92 112.422 252.082C112.339 252.226 112.22 252.347 112.075 252.43C111.931 252.514 111.768 252.559 111.601 252.56ZM120.024 239.779C119.817 239.783 119.614 239.716 119.451 239.588C119.251 239.439 119.117 239.217 119.078 238.97C119.039 238.724 119.097 238.471 119.241 238.267C120.769 236.201 122.354 234.154 123.978 232.183C124.056 232.085 124.153 232.003 124.263 231.943C124.373 231.883 124.493 231.845 124.618 231.833C124.743 231.82 124.869 231.833 124.989 231.87C125.108 231.907 125.219 231.968 125.315 232.049C125.509 232.21 125.632 232.44 125.657 232.691C125.682 232.942 125.607 233.193 125.449 233.388C123.844 235.302 122.278 237.349 120.788 239.396C120.693 239.504 120.575 239.588 120.443 239.645C120.311 239.701 120.168 239.727 120.024 239.722V239.779ZM129.708 227.955C129.592 227.957 129.476 227.936 129.368 227.893C129.26 227.851 129.161 227.787 129.078 227.706C128.988 227.617 128.917 227.511 128.869 227.394C128.82 227.278 128.795 227.153 128.795 227.027C128.795 226.9 128.82 226.775 128.869 226.659C128.917 226.542 128.988 226.436 129.078 226.347C130.797 224.434 132.611 222.521 134.426 220.818C134.513 220.729 134.617 220.658 134.732 220.61C134.846 220.561 134.97 220.536 135.094 220.536C135.219 220.536 135.342 220.561 135.457 220.61C135.572 220.658 135.676 220.729 135.763 220.818C135.852 220.907 135.923 221.013 135.972 221.129C136.02 221.246 136.045 221.371 136.045 221.497C136.045 221.623 136.02 221.748 135.972 221.865C135.923 221.982 135.852 222.087 135.763 222.176C133.967 223.917 132.191 225.754 130.472 227.629C130.373 227.728 130.253 227.804 130.12 227.85C129.988 227.897 129.847 227.913 129.708 227.897V227.955ZM140.633 217.259C140.499 217.26 140.366 217.231 140.244 217.175C140.122 217.119 140.013 217.037 139.926 216.934C139.838 216.846 139.767 216.742 139.719 216.627C139.67 216.512 139.646 216.389 139.646 216.264C139.646 216.139 139.67 216.016 139.719 215.901C139.767 215.786 139.838 215.682 139.926 215.594C141.836 213.892 143.861 212.246 145.867 210.677C146.071 210.556 146.312 210.514 146.546 210.558C146.779 210.603 146.988 210.731 147.133 210.919C147.279 211.107 147.35 211.342 147.335 211.579C147.32 211.816 147.219 212.04 147.051 212.208C145.141 213.738 143.097 215.365 141.187 217.029C141.025 217.143 140.831 217.203 140.633 217.202V217.259ZM299.354 214.236C299.18 214.235 299.01 214.186 298.862 214.095C298.714 214.004 298.594 213.874 298.514 213.719C297.264 211.576 295.778 209.58 294.083 207.769C293.913 207.579 293.826 207.329 293.84 207.074C293.854 206.819 293.969 206.58 294.159 206.41C294.349 206.24 294.599 206.153 294.853 206.167C295.107 206.182 295.345 206.297 295.515 206.487C297.322 208.41 298.893 210.543 300.195 212.839C300.254 212.949 300.291 213.07 300.303 213.195C300.315 213.32 300.301 213.445 300.264 213.565C300.227 213.684 300.166 213.795 300.085 213.891C300.004 213.986 299.905 214.065 299.794 214.121C299.654 214.178 299.503 214.197 299.354 214.179V214.236ZM152.8 207.826C152.644 207.83 152.49 207.793 152.353 207.72C152.215 207.646 152.1 207.538 152.017 207.405C151.945 207.303 151.894 207.187 151.868 207.065C151.841 206.942 151.84 206.816 151.863 206.693C151.886 206.57 151.933 206.453 152.003 206.348C152.072 206.244 152.161 206.154 152.265 206.085C154.366 204.631 156.543 203.234 158.721 201.914C158.828 201.845 158.948 201.799 159.073 201.779C159.198 201.758 159.326 201.763 159.45 201.793C159.573 201.824 159.689 201.879 159.79 201.956C159.891 202.032 159.976 202.129 160.039 202.239C160.105 202.347 160.148 202.467 160.168 202.592C160.187 202.717 160.182 202.845 160.151 202.967C160.121 203.09 160.067 203.206 159.992 203.307C159.917 203.409 159.822 203.495 159.714 203.56C157.556 204.841 155.417 206.238 153.335 207.654C153.179 207.767 152.992 207.828 152.8 207.826ZM289.289 202.813C289.064 202.813 288.847 202.731 288.677 202.584C286.742 200.979 284.714 199.491 282.604 198.126C282.498 198.057 282.407 197.967 282.336 197.863C282.266 197.759 282.216 197.642 282.19 197.518C282.164 197.395 282.163 197.267 282.187 197.143C282.21 197.02 282.258 196.901 282.327 196.796C282.396 196.69 282.485 196.599 282.589 196.528C282.693 196.457 282.81 196.408 282.933 196.382C283.056 196.356 283.183 196.355 283.307 196.378C283.431 196.402 283.549 196.449 283.654 196.518C285.823 197.933 287.909 199.472 289.9 201.13C290.047 201.256 290.153 201.425 290.203 201.613C290.252 201.802 290.243 202.001 290.177 202.184C290.11 202.367 289.989 202.525 289.831 202.638C289.672 202.75 289.483 202.811 289.289 202.813ZM165.788 199.943C165.611 199.943 165.438 199.895 165.287 199.804C165.135 199.713 165.011 199.583 164.928 199.427C164.814 199.203 164.791 198.943 164.867 198.703C164.942 198.463 165.108 198.263 165.329 198.145C167.583 196.959 169.913 195.83 172.263 194.777C172.377 194.723 172.5 194.693 172.626 194.688C172.751 194.683 172.877 194.703 172.995 194.748C173.112 194.793 173.22 194.861 173.311 194.948C173.401 195.035 173.474 195.14 173.523 195.256C173.622 195.487 173.627 195.748 173.538 195.983C173.449 196.218 173.273 196.41 173.046 196.518C170.735 197.552 168.443 198.661 166.227 199.829C166.092 199.902 165.942 199.942 165.788 199.943ZM276.568 194.433C276.42 194.431 276.276 194.391 276.148 194.318C273.951 193.228 271.621 192.194 269.253 191.276C269.018 191.186 268.828 191.007 268.725 190.778C268.621 190.548 268.612 190.287 268.699 190.051C268.743 189.933 268.811 189.824 268.897 189.732C268.984 189.64 269.088 189.566 269.204 189.514C269.319 189.462 269.444 189.434 269.57 189.431C269.697 189.428 269.822 189.45 269.94 189.497C272.366 190.434 274.753 191.41 277.007 192.615C277.232 192.73 277.403 192.929 277.481 193.169C277.56 193.41 277.541 193.671 277.427 193.897C277.341 194.069 277.207 194.211 277.04 194.307C276.874 194.402 276.683 194.446 276.491 194.433H276.568ZM179.788 193.668C179.595 193.666 179.406 193.607 179.246 193.498C179.086 193.389 178.963 193.235 178.89 193.055C178.845 192.939 178.823 192.814 178.826 192.689C178.829 192.563 178.858 192.44 178.909 192.326C178.961 192.212 179.035 192.109 179.127 192.024C179.219 191.939 179.327 191.873 179.444 191.831C181.832 190.912 184.277 190.071 186.721 189.305C186.84 189.264 186.967 189.248 187.092 189.258C187.218 189.268 187.34 189.304 187.451 189.363C187.562 189.422 187.66 189.504 187.738 189.602C187.816 189.701 187.873 189.815 187.906 189.937C187.944 190.056 187.958 190.182 187.947 190.306C187.935 190.431 187.899 190.552 187.841 190.663C187.782 190.774 187.701 190.871 187.604 190.95C187.507 191.029 187.395 191.088 187.275 191.123C184.888 191.888 182.462 192.711 180.113 193.61C179.985 193.66 179.848 193.679 179.712 193.668H179.788ZM194.342 189.095C194.089 189.125 193.834 189.054 193.634 188.896C193.433 188.738 193.303 188.507 193.273 188.253C193.242 187.999 193.314 187.744 193.471 187.543C193.629 187.342 193.86 187.212 194.113 187.181C196.577 186.55 199.098 185.995 201.619 185.517C201.742 185.492 201.869 185.491 201.992 185.515C202.115 185.539 202.233 185.587 202.337 185.656C202.442 185.725 202.532 185.815 202.602 185.919C202.672 186.023 202.721 186.14 202.746 186.263C202.791 186.514 202.737 186.772 202.594 186.983C202.451 187.194 202.232 187.341 201.982 187.392C199.499 187.87 197.016 188.425 194.572 189.037L194.342 189.095ZM262.338 188.923H262.09C259.722 188.253 257.258 187.641 254.737 187.124C254.614 187.099 254.497 187.05 254.393 186.979C254.289 186.909 254.2 186.819 254.131 186.714C254.061 186.609 254.014 186.492 253.99 186.369C253.966 186.245 253.967 186.118 253.992 185.995C254.047 185.749 254.195 185.534 254.405 185.395C254.615 185.255 254.871 185.203 255.119 185.249C257.678 185.785 260.199 186.397 262.606 187.162C262.85 187.234 263.056 187.398 263.181 187.619C263.306 187.841 263.339 188.103 263.274 188.349C263.19 188.541 263.045 188.7 262.863 188.804C262.681 188.907 262.47 188.949 262.262 188.923H262.338ZM209.336 186.206C209.21 186.214 209.085 186.198 208.965 186.158C208.846 186.118 208.736 186.055 208.641 185.973C208.449 185.806 208.332 185.57 208.314 185.316C208.296 185.062 208.38 184.812 208.546 184.62C208.713 184.428 208.949 184.31 209.202 184.292C211.723 183.948 214.283 183.661 216.842 183.45C216.968 183.44 217.094 183.455 217.213 183.494C217.333 183.533 217.444 183.595 217.54 183.676C217.636 183.758 217.714 183.858 217.772 183.97C217.829 184.082 217.864 184.205 217.874 184.331C217.884 184.456 217.869 184.583 217.83 184.702C217.791 184.822 217.729 184.933 217.648 185.029C217.566 185.125 217.467 185.204 217.355 185.262C217.243 185.319 217.12 185.354 216.995 185.364C214.493 185.593 211.953 185.861 209.47 186.206H209.336ZM247.402 185.861H247.269C244.843 185.555 242.302 185.287 239.743 185.115C239.618 185.108 239.495 185.076 239.382 185.021C239.269 184.966 239.167 184.889 239.084 184.795C239.001 184.7 238.937 184.591 238.896 184.472C238.855 184.353 238.838 184.227 238.845 184.101C238.865 183.845 238.984 183.608 239.177 183.44C239.37 183.271 239.621 183.186 239.877 183.202C242.474 183.393 245.053 183.642 247.517 183.967C247.642 183.975 247.765 184.007 247.878 184.062C247.991 184.117 248.092 184.194 248.175 184.288C248.259 184.382 248.323 184.492 248.364 184.611C248.405 184.73 248.422 184.855 248.414 184.981C248.407 185.107 248.375 185.23 248.32 185.343C248.265 185.456 248.188 185.557 248.094 185.641C248 185.724 247.891 185.788 247.772 185.829C247.653 185.871 247.528 185.888 247.402 185.88V185.861ZM224.482 184.885C224.235 184.886 223.998 184.79 223.82 184.619C223.642 184.448 223.537 184.214 223.527 183.967C223.522 183.715 223.614 183.47 223.785 183.284C223.956 183.099 224.192 182.987 224.444 182.972C226.984 182.972 229.582 182.857 232.084 182.972C232.336 182.982 232.574 183.089 232.748 183.271C232.923 183.453 233.02 183.696 233.02 183.948C233.017 184.074 232.99 184.197 232.94 184.313C232.89 184.428 232.817 184.532 232.727 184.619C232.636 184.706 232.53 184.774 232.413 184.82C232.296 184.866 232.171 184.888 232.046 184.885C229.544 184.885 226.965 184.885 224.406 184.885H224.482Z" fill="#D1D3D4"/>
</svg>
