<svg width="41" height="41" viewBox="0 0 41 41" fill="none" xmlns="http://www.w3.org/2000/svg">
<path d="M39.2293 7.67934V8.85984C39.2293 9.02095 39.1653 9.17546 39.0515 9.28938C38.9378 9.4033 38.7834 9.4673 38.6225 9.4673C38.4616 9.4673 38.3072 9.4033 38.1935 9.28938C38.0797 9.17546 38.0157 9.02095 38.0157 8.85984V7.67934C38.0157 7.51823 38.0797 7.36372 38.1935 7.2498C38.3072 7.13588 38.4616 7.07187 38.6225 7.07187C38.7834 7.07187 38.9378 7.13588 39.0515 7.2498C39.1653 7.36372 39.2293 7.51823 39.2293 7.67934V7.67934ZM35.9416 13.9716V18.2755C35.9416 18.4366 36.0055 18.5911 36.1193 18.705C36.2331 18.819 36.3875 18.883 36.5484 18.883C36.7093 18.883 36.8636 18.819 36.9774 18.705C37.0912 18.5911 37.1551 18.4366 37.1551 18.2755V13.9716C37.1551 13.8105 37.0912 13.656 36.9774 13.5421C36.8636 13.4282 36.7093 13.3642 36.5484 13.3642C36.3875 13.3642 36.2331 13.4282 36.1193 13.5421C36.0055 13.656 35.9416 13.8105 35.9416 13.9716ZM40.998 26.4125V29.5308C40.998 29.6919 40.934 29.8464 40.8203 29.9603C40.7065 30.0742 40.5521 30.1382 40.3912 30.1382H26.5034L30.7882 38.664C30.9671 39.0512 30.9888 39.4929 30.8486 39.8959C30.7085 40.2988 30.4174 40.6315 30.0369 40.8237C29.6564 41.0158 29.2162 41.0525 28.8092 40.9259C28.4022 40.7993 28.0602 40.5194 27.8555 40.1452L22.8264 30.1382H18.1786L13.1496 40.1442C12.9433 40.5151 12.6018 40.7919 12.1964 40.9166C11.791 41.0413 11.3531 41.0043 10.9744 40.8132C10.5956 40.6222 10.3053 40.292 10.1641 39.8916C10.023 39.4912 10.0419 39.0517 10.2169 38.665V38.665L12.5812 33.9632C12.6591 33.8298 12.7848 33.7311 12.9328 33.6872C13.0807 33.6433 13.2399 33.6574 13.3777 33.7269C13.5156 33.7963 13.6219 33.9157 13.675 34.0608C13.728 34.2059 13.7238 34.3658 13.6633 34.5079L11.2969 39.2076C11.2682 39.2587 11.2502 39.3151 11.2439 39.3734C11.2376 39.4316 11.2431 39.4906 11.2602 39.5466C11.2773 39.6026 11.3056 39.6546 11.3433 39.6994C11.3811 39.7442 11.4275 39.7809 11.4798 39.8072C11.5321 39.8335 11.5892 39.8489 11.6476 39.8525C11.706 39.8561 11.7646 39.8478 11.8197 39.8281C11.8748 39.8084 11.9254 39.7777 11.9683 39.7379C12.0113 39.6981 12.0457 39.65 12.0695 39.5964L16.8225 30.1362H15.8537L14.7636 32.3049C14.6877 32.439 14.5638 32.5392 14.417 32.5853C14.2701 32.6314 14.1112 32.6199 13.9725 32.5531C13.8338 32.4863 13.7256 32.3692 13.6699 32.2255C13.6142 32.0819 13.6151 31.9224 13.6724 31.7794L13.6825 31.7602L14.4986 30.1403H0.606763C0.44584 30.1403 0.291507 30.0763 0.177717 29.9623C0.0639266 29.8484 0 29.6939 0 29.5328V26.4145C0 26.2534 0.0639266 26.0989 0.177717 25.985C0.291507 25.871 0.44584 25.807 0.606763 25.807H1.77074V3.20538C1.77074 3.04427 1.83466 2.88976 1.94845 2.77584C2.06224 2.66191 2.21658 2.59791 2.3775 2.59791H18.8612V0.607462C18.8612 0.446353 18.9252 0.291843 19.0389 0.177922C19.1527 0.0640003 19.3071 0 19.468 0H21.5441C21.7051 0 21.8594 0.0640003 21.9732 0.177922C22.087 0.291843 22.1509 0.446353 22.1509 0.607462V2.59893H38.6346C38.7956 2.59893 38.9499 2.66293 39.0637 2.77685C39.1775 2.89077 39.2414 3.04528 39.2414 3.20639V5.63624C39.2414 5.79735 39.1775 5.95186 39.0637 6.06578C38.9499 6.1797 38.7956 6.2437 38.6346 6.2437C38.4737 6.2437 38.3194 6.1797 38.2056 6.06578C38.0918 5.95186 38.0279 5.79735 38.0279 5.63624V3.81385H2.98426V25.807H6.22842C6.38935 25.807 6.54368 25.871 6.65747 25.985C6.77126 26.0989 6.83519 26.2534 6.83519 26.4145C6.83519 26.5756 6.77126 26.7301 6.65747 26.844C6.54368 26.958 6.38935 27.022 6.22842 27.022H1.2115V28.9274H39.7946V27.0189H9.20257C9.04165 27.0189 8.88732 26.9549 8.77353 26.841C8.65974 26.7271 8.59581 26.5726 8.59581 26.4115C8.59581 26.2503 8.65974 26.0958 8.77353 25.9819C8.88732 25.868 9.04165 25.804 9.20257 25.804H38.0178V10.9991C38.0178 10.838 38.0817 10.6835 38.1955 10.5696C38.3093 10.4557 38.4636 10.3917 38.6245 10.3917C38.7854 10.3917 38.9398 10.4557 39.0536 10.5696C39.1674 10.6835 39.2313 10.838 39.2313 10.9991V25.807H40.3973C40.5572 25.8081 40.7101 25.8723 40.823 25.9857C40.9359 26.099 40.9995 26.2524 41 26.4125H40.998ZM20.0646 2.59893H20.9303V1.2129H20.0646V2.59893ZM25.1443 30.1372H24.1755L28.9284 39.5984C28.9528 39.6512 28.9876 39.6985 29.0306 39.7375C29.0736 39.7766 29.124 39.8065 29.1788 39.8257C29.2336 39.8448 29.2918 39.8527 29.3497 39.8488C29.4076 39.845 29.4642 39.8296 29.516 39.8034C29.5679 39.7773 29.6139 39.7409 29.6515 39.6966C29.689 39.6523 29.7172 39.6008 29.7345 39.5453C29.7518 39.4898 29.7577 39.4314 29.7519 39.3736C29.7462 39.3158 29.7289 39.2597 29.7011 39.2087L25.1443 30.1372Z" fill="white"/>
<path d="M20.5004 22.2331C21.2043 22.2331 21.9012 22.0944 22.5515 21.8247C23.2018 21.555 23.7926 21.1598 24.2903 20.6615C24.788 20.1632 25.1828 19.5717 25.4522 18.9207C25.7215 18.2697 25.8602 17.5719 25.8602 16.8672C25.8602 16.2476 25.6963 15.6523 25.5032 15.0995C24.3112 16.2766 23.4061 16.8652 22.7879 16.8652C25.6448 11.8547 24.0753 9.70828 19.7855 6.84207C20.1434 10.421 17.7872 12.048 16.8275 12.9521C16.0439 13.6887 15.4995 14.644 15.2652 15.6942C15.0308 16.7444 15.1173 17.8409 15.5133 18.8413C15.9093 19.8416 16.5966 20.6997 17.486 21.304C18.3753 21.9083 19.4256 22.231 20.5004 22.2301V22.2331ZM21.0061 9.51794C23.3229 11.4861 23.332 13.0159 21.5441 16.1555C21.4199 16.3732 21.3551 16.6198 21.356 16.8705C21.3569 17.1212 21.4236 17.3672 21.5493 17.584C21.675 17.8008 21.8554 17.9808 22.0724 18.1059C22.2895 18.231 22.5355 18.2968 22.7859 18.2968C23.3192 18.2843 23.8409 18.1377 24.3028 17.8706C24.1471 18.4597 23.857 19.0045 23.4552 19.4623C23.0534 19.92 22.5509 20.2781 21.9874 20.5083C21.4238 20.7386 20.8146 20.8347 20.2076 20.7891C19.6006 20.7435 19.0125 20.5575 18.4896 20.2456C17.9667 19.9338 17.5232 19.5046 17.1941 18.992C16.865 18.4794 16.6593 17.8973 16.5932 17.2915C16.5271 16.6857 16.6023 16.0729 16.813 15.5012C17.0237 14.9295 17.3641 14.4145 17.8074 13.997C17.8974 13.9129 18.3535 13.5069 18.3737 13.4907C18.6771 13.2194 18.9269 12.9774 19.1736 12.7142C20.0524 11.7706 20.6845 10.7238 21.0071 9.51997L21.0061 9.51794Z" fill="white"/>
</svg>
