<svg width="623" height="469" viewBox="0 0 623 469" fill="none" xmlns="http://www.w3.org/2000/svg">
<path d="M602.214 412.111C599.883 424.303 594.635 435.579 585.627 444.137C560.618 467.898 520.755 461.034 486.763 455.17C426.997 444.81 366.12 442.404 305.721 448.014C237.493 454.353 166.494 470.592 102.11 447.161C83.0694 440.417 66.4349 428.228 54.2774 412.111C53.1301 410.673 52.056 409.198 51.104 407.723C41.657 394.069 35.0905 378.172 30.5745 361.007C30.0985 359.129 29.6469 357.215 29.2075 355.289C15.7816 296.662 26.3271 224.759 37.0068 175.763C41.6936 154.246 47.8574 132.888 58.2442 113.443C84.8397 63.4595 137.213 30.8362 192.223 17.292C247.233 3.74773 305.037 7.25875 361.145 15.1464C406.061 21.4248 453.052 31.6774 486.373 62.4111C517.289 90.9016 531.691 132.961 540.394 174.106C549.096 215.25 553.332 257.712 568.991 296.711C578.89 321.325 593.219 344.256 600.127 369.857C601.165 373.68 601.98 377.559 602.568 381.475C604.179 391.634 604.059 401.992 602.214 412.111V412.111Z" fill="#97CAD8"/>
<path opacity="0.26" d="M602.214 412.111H53.0324L51.1162 407.723L30.5745 361.007L28.1334 355.326H29.2441L585.554 342.854L602.544 381.414C604.169 391.592 604.058 401.971 602.214 412.111V412.111Z" fill="url(#paint0_linear)"/>
<path d="M148.796 110.858H24.9601C19.4056 110.858 14.9028 115.353 14.9028 120.898C14.9028 126.442 19.4056 130.937 24.9601 130.937H148.796C154.351 130.937 158.853 126.442 158.853 120.898C158.853 115.353 154.351 110.858 148.796 110.858Z" fill="#018ABE"/>
<path d="M297.006 110.858H173.17C167.616 110.858 163.113 115.353 163.113 120.898C163.113 126.442 167.616 130.937 173.17 130.937H297.006C302.561 130.937 307.063 126.442 307.063 120.898C307.063 115.353 302.561 110.858 297.006 110.858Z" fill="#018ABE"/>
<path d="M445.216 110.858H321.38C315.826 110.858 311.323 115.353 311.323 120.898C311.323 126.442 315.826 130.937 321.38 130.937H445.216C450.771 130.937 455.273 126.442 455.273 120.898C455.273 115.353 450.771 110.858 445.216 110.858Z" fill="#018ABE"/>
<path d="M593.426 110.858H469.59C464.036 110.858 459.533 115.353 459.533 120.898C459.533 126.442 464.036 130.937 469.59 130.937H593.426C598.981 130.937 603.484 126.442 603.484 120.898C603.484 115.353 598.981 110.858 593.426 110.858Z" fill="#018ABE"/>
<path d="M604.802 87.3174H18.1982C8.14763 87.3174 0 95.4555 0 105.494V352.741C0 362.78 8.14763 370.918 18.1982 370.918H604.802C614.852 370.918 623 362.78 623 352.741V105.494C623 95.4555 614.852 87.3174 604.802 87.3174Z" fill="#D6E8EE"/>
<path opacity="0.26" d="M482.015 333.028C481.917 329.771 481.178 326.565 479.843 323.592C475.376 315.119 463.695 314.181 455.859 308.658C449.561 304.208 445.936 296.735 444.533 289.152C443.129 281.57 443.69 273.792 444.264 266.111C444.423 263.929 444.655 261.564 446.132 259.943C449.329 256.395 455.139 258.931 459.082 261.625L469.578 268.793C471.8 270.305 474.851 271.817 476.901 270.159C478.293 269.062 478.525 267.087 478.659 265.282L480.648 237.609C481.198 229.965 482.516 221.065 489.192 217.384C495.869 213.702 504.583 217.64 508.794 223.918C513.005 230.197 513.798 238.096 514.348 245.63C517.17 285.245 516.578 325.029 512.578 364.542C512.419 366.102 512.138 367.858 510.845 368.748C509.829 369.281 508.674 369.485 507.537 369.333C500.214 369.101 486.971 371.869 483.382 364.176C479.794 356.484 482.772 341.537 482.015 333.028Z" fill="url(#paint1_linear)"/>
<path d="M442.031 253.262L471.934 245.216L487.276 280.802L482.199 290.664L461.657 289.494L442.031 253.262Z" fill="url(#paint2_linear)"/>
<path d="M447.438 280.009C447.006 276.889 447.076 273.72 447.645 270.622C447.695 270.136 447.849 269.666 448.097 269.244C448.988 267.952 451.111 268.464 452.137 269.635C453.162 270.805 453.614 272.402 454.578 273.609C455.396 274.596 456.531 275.267 457.434 276.181C458.878 277.836 459.848 279.849 460.241 282.009C460.393 282.556 460.455 283.124 460.424 283.691C460.259 284.48 459.917 285.222 459.423 285.861C457.824 288.299 455.09 291.664 452.1 289.348C449.378 287.263 447.95 283.24 447.438 280.009Z" fill="url(#paint3_linear)"/>
<path opacity="0.68" d="M603.264 115.015H476.291C473.5 115.015 471.238 117.275 471.238 120.063V130.742C471.238 133.529 473.5 135.789 476.291 135.789H603.264C606.055 135.789 608.317 133.529 608.317 130.742V120.063C608.317 117.275 606.055 115.015 603.264 115.015Z" fill="#018ABE"/>
<path d="M142.974 142.275H26.2171C21.1211 142.275 16.9899 146.401 16.9899 151.491V332.26C16.9899 337.35 21.1211 341.476 26.2171 341.476H142.974C148.07 341.476 152.201 337.35 152.201 332.26V151.491C152.201 146.401 148.07 142.275 142.974 142.275Z" fill="white"/>
<path d="M293.65 142.031H179.248C172.353 142.031 166.762 147.615 166.762 154.502V193.27C166.762 200.158 172.353 205.741 179.248 205.741H293.65C300.545 205.741 306.136 200.158 306.136 193.27V154.502C306.136 147.615 300.545 142.031 293.65 142.031Z" fill="white"/>
<path d="M293.418 215.262H179.48C172.456 215.262 166.762 220.95 166.762 227.966V268.647C166.762 275.663 172.456 281.35 179.48 281.35H293.418C300.442 281.35 306.136 275.663 306.136 268.647V227.966C306.136 220.95 300.442 215.262 293.418 215.262Z" fill="white"/>
<path d="M293.65 289.189H179.248C172.353 289.189 166.762 294.773 166.762 301.661V340.428C166.762 347.316 172.353 352.899 179.248 352.899H293.65C300.545 352.899 306.136 347.316 306.136 340.428V301.661C306.136 294.773 300.545 289.189 293.65 289.189Z" fill="white"/>
<path d="M447.535 144.103H331.816C325.284 144.103 319.989 149.392 319.989 155.916V158.184C319.989 164.708 325.284 169.997 331.816 169.997H447.535C454.067 169.997 459.362 164.708 459.362 158.184V155.916C459.362 149.392 454.067 144.103 447.535 144.103Z" fill="white"/>
<path d="M601.116 146.176H476.389C472.344 146.176 469.066 149.451 469.066 153.49V160.781C469.066 164.82 472.344 168.095 476.389 168.095H601.116C605.16 168.095 608.439 164.82 608.439 160.781V153.49C608.439 149.451 605.16 146.176 601.116 146.176Z" fill="white"/>
<path opacity="0.68" d="M147.844 115.015H21.335C18.551 115.015 16.2942 117.27 16.2942 120.05V130.754C16.2942 133.535 18.551 135.789 21.335 135.789H147.844C150.628 135.789 152.885 133.535 152.885 130.754V120.05C152.885 117.27 150.628 115.015 147.844 115.015Z" fill="#018ABE"/>
<path opacity="0.93" d="M299.081 115.015H172.572C169.788 115.015 167.531 117.27 167.531 120.05V130.754C167.531 133.535 169.788 135.789 172.572 135.789H299.081C301.865 135.789 304.122 133.535 304.122 130.754V120.05C304.122 117.27 301.865 115.015 299.081 115.015Z" fill="#018ABE"/>
<path opacity="0.68" d="M452.454 115.015H325.481C322.691 115.015 320.428 117.275 320.428 120.063V130.742C320.428 133.529 322.691 135.789 325.481 135.789H452.454C455.245 135.789 457.507 133.529 457.507 130.742V120.063C457.507 117.275 455.245 115.015 452.454 115.015Z" fill="#018ABE"/>
<path opacity="0.26" d="M452.454 115.015H325.481C322.691 115.015 320.428 117.275 320.428 120.063V130.742C320.428 133.529 322.691 135.789 325.481 135.789H452.454C455.245 135.789 457.507 133.529 457.507 130.742V120.063C457.507 117.275 455.245 115.015 452.454 115.015Z" fill="url(#paint4_linear)"/>
<path opacity="0.26" d="M604.301 115.015H477.329C474.538 115.015 472.276 117.275 472.276 120.063V130.742C472.276 133.529 474.538 135.789 477.329 135.789H604.301C607.092 135.789 609.354 133.529 609.354 130.742V120.063C609.354 117.275 607.092 115.015 604.301 115.015Z" fill="url(#paint5_linear)"/>
<path opacity="0.26" d="M181.885 166.779C185.976 166.779 189.293 163.466 189.293 159.379C189.293 155.292 185.976 151.979 181.885 151.979C177.793 151.979 174.476 155.292 174.476 159.379C174.476 163.466 177.793 166.779 181.885 166.779Z" fill="url(#paint6_linear)"/>
<path opacity="0.26" d="M181.885 189.381C185.976 189.381 189.293 186.068 189.293 181.981C189.293 177.894 185.976 174.581 181.885 174.581C177.793 174.581 174.476 177.894 174.476 181.981C174.476 186.068 177.793 189.381 181.885 189.381Z" fill="url(#paint7_linear)"/>
<path opacity="0.68" d="M83.5093 155.88H31.197C29.6668 155.88 28.4264 157.119 28.4264 158.647C28.4264 160.176 29.6668 161.415 31.197 161.415H83.5093C85.0395 161.415 86.28 160.176 86.28 158.647C86.28 157.119 85.0395 155.88 83.5093 155.88Z" fill="#018ABE"/>
<path opacity="0.68" d="M79.3961 172.496H31.197C29.6668 172.496 28.4264 173.735 28.4264 175.264C28.4264 176.792 29.6668 178.031 31.197 178.031H79.3961C80.9263 178.031 82.1667 176.792 82.1667 175.264C82.1667 173.735 80.9263 172.496 79.3961 172.496Z" fill="#018ABE"/>
<path opacity="0.68" d="M79.3961 208.509H31.197C29.6668 208.509 28.4264 209.748 28.4264 211.276C28.4264 212.804 29.6668 214.043 31.197 214.043H79.3961C80.9263 214.043 82.1667 212.804 82.1667 211.276C82.1667 209.748 80.9263 208.509 79.3961 208.509Z" fill="#018ABE"/>
<path opacity="0.68" d="M122.921 222.358H31.197C29.6668 222.358 28.4264 223.597 28.4264 225.125C28.4264 226.653 29.6668 227.892 31.197 227.892H122.921C124.451 227.892 125.691 226.653 125.691 225.125C125.691 223.597 124.451 222.358 122.921 222.358Z" fill="#018ABE"/>
<path opacity="0.68" d="M291.416 154.844H199.693C198.162 154.844 196.922 156.083 196.922 157.611C196.922 159.139 198.162 160.378 199.693 160.378H291.416C292.946 160.378 294.187 159.139 294.187 157.611C294.187 156.083 292.946 154.844 291.416 154.844Z" fill="#018ABE"/>
<path opacity="0.26" d="M335.111 165.486C339.203 165.486 342.52 162.173 342.52 158.086C342.52 154 339.203 150.686 335.111 150.686C331.02 150.686 327.703 154 327.703 158.086C327.703 162.173 331.02 165.486 335.111 165.486Z" fill="url(#paint8_linear)"/>
<path opacity="0.68" d="M444.655 153.539H352.931C351.401 153.539 350.161 154.778 350.161 156.307C350.161 157.835 351.401 159.074 352.931 159.074H444.655C446.185 159.074 447.425 157.835 447.425 156.307C447.425 154.778 446.185 153.539 444.655 153.539Z" fill="#018ABE"/>
<path opacity="0.26" d="M488.521 165.486C492.613 165.486 495.93 162.173 495.93 158.086C495.93 154 492.613 150.686 488.521 150.686C484.429 150.686 481.112 154 481.112 158.086C481.112 162.173 484.429 165.486 488.521 165.486Z" fill="url(#paint9_linear)"/>
<path opacity="0.68" d="M598.064 153.539H506.341C504.811 153.539 503.57 154.778 503.57 156.307C503.57 157.835 504.811 159.074 506.341 159.074H598.064C599.595 159.074 600.835 157.835 600.835 156.307C600.835 154.778 599.595 153.539 598.064 153.539Z" fill="#018ABE"/>
<path d="M447.535 174.752H331.816C325.284 174.752 319.989 180.041 319.989 186.565V188.832C319.989 195.357 325.284 200.645 331.816 200.645H447.535C454.067 200.645 459.362 195.357 459.362 188.832V186.565C459.362 180.041 454.067 174.752 447.535 174.752Z" fill="white"/>
<path opacity="0.26" d="M335.111 196.135C339.203 196.135 342.52 192.822 342.52 188.735C342.52 184.648 339.203 181.335 335.111 181.335C331.02 181.335 327.703 184.648 327.703 188.735C327.703 192.822 331.02 196.135 335.111 196.135Z" fill="url(#paint10_linear)"/>
<path opacity="0.68" d="M444.655 184.188H352.931C351.401 184.188 350.161 185.427 350.161 186.955C350.161 188.483 351.401 189.722 352.931 189.722H444.655C446.185 189.722 447.425 188.483 447.425 186.955C447.425 185.427 446.185 184.188 444.655 184.188Z" fill="#018ABE"/>
<path d="M447.535 205.4H331.816C325.284 205.4 319.989 210.689 319.989 217.213V219.481C319.989 226.005 325.284 231.294 331.816 231.294H447.535C454.067 231.294 459.362 226.005 459.362 219.481V217.213C459.362 210.689 454.067 205.4 447.535 205.4Z" fill="white"/>
<path opacity="0.26" d="M335.111 226.771C339.203 226.771 342.52 223.458 342.52 219.371C342.52 215.284 339.203 211.971 335.111 211.971C331.02 211.971 327.703 215.284 327.703 219.371C327.703 223.458 331.02 226.771 335.111 226.771Z" fill="url(#paint11_linear)"/>
<path opacity="0.68" d="M444.655 214.836H352.931C351.401 214.836 350.161 216.075 350.161 217.603C350.161 219.132 351.401 220.371 352.931 220.371H444.655C446.185 220.371 447.425 219.132 447.425 217.603C447.425 216.075 446.185 214.836 444.655 214.836Z" fill="#018ABE"/>
<path opacity="0.68" d="M275.427 178.385H199.448C198.053 178.385 196.922 179.514 196.922 180.908V181.396C196.922 182.789 198.053 183.919 199.448 183.919H275.427C276.822 183.919 277.953 182.789 277.953 181.396V180.908C277.953 179.514 276.822 178.385 275.427 178.385Z" fill="#018ABE"/>
<path opacity="0.26" d="M181.885 236.121C185.976 236.121 189.293 232.808 189.293 228.721C189.293 224.635 185.976 221.321 181.885 221.321C177.793 221.321 174.476 224.635 174.476 228.721C174.476 232.808 177.793 236.121 181.885 236.121Z" fill="url(#paint12_linear)"/>
<path opacity="0.68" d="M275.427 225.137H199.448C198.053 225.137 196.922 226.267 196.922 227.661V228.148C196.922 229.542 198.053 230.672 199.448 230.672H275.427C276.822 230.672 277.953 229.542 277.953 228.148V227.661C277.953 226.267 276.822 225.137 275.427 225.137Z" fill="#018ABE"/>
<path opacity="0.26" d="M181.885 255.859C185.976 255.859 189.293 252.546 189.293 248.459C189.293 244.372 185.976 241.059 181.885 241.059C177.793 241.059 174.476 244.372 174.476 248.459C174.476 252.546 177.793 255.859 181.885 255.859Z" fill="url(#paint13_linear)"/>
<path opacity="0.68" d="M275.427 244.875H199.448C198.053 244.875 196.922 246.004 196.922 247.398V247.886C196.922 249.279 198.053 250.409 199.448 250.409H275.427C276.822 250.409 277.953 249.279 277.953 247.886V247.398C277.953 246.004 276.822 244.875 275.427 244.875Z" fill="#018ABE"/>
<path opacity="0.26" d="M181.885 275.596C185.976 275.596 189.293 272.283 189.293 268.196C189.293 264.109 185.976 260.796 181.885 260.796C177.793 260.796 174.476 264.109 174.476 268.196C174.476 272.283 177.793 275.596 181.885 275.596Z" fill="url(#paint14_linear)"/>
<path opacity="0.68" d="M275.427 264.612H199.448C198.053 264.612 196.922 265.742 196.922 267.135V267.623C196.922 269.017 198.053 270.147 199.448 270.147H275.427C276.822 270.147 277.953 269.017 277.953 267.623V267.135C277.953 265.742 276.822 264.612 275.427 264.612Z" fill="#018ABE"/>
<path opacity="0.26" d="M181.885 311.438C185.976 311.438 189.293 308.125 189.293 304.038C189.293 299.951 185.976 296.638 181.885 296.638C177.793 296.638 174.476 299.951 174.476 304.038C174.476 308.125 177.793 311.438 181.885 311.438Z" fill="url(#paint15_linear)"/>
<path opacity="0.68" d="M275.427 300.454H199.448C198.053 300.454 196.922 301.583 196.922 302.977V303.465C196.922 304.859 198.053 305.988 199.448 305.988H275.427C276.822 305.988 277.953 304.859 277.953 303.465V302.977C277.953 301.583 276.822 300.454 275.427 300.454Z" fill="#018ABE"/>
<path opacity="0.26" d="M181.885 346.109C185.976 346.109 189.293 342.796 189.293 338.709C189.293 334.622 185.976 331.309 181.885 331.309C177.793 331.309 174.476 334.622 174.476 338.709C174.476 342.796 177.793 346.109 181.885 346.109Z" fill="url(#paint16_linear)"/>
<path opacity="0.68" d="M275.427 318.972H199.448C198.053 318.972 196.922 320.102 196.922 321.495V321.983C196.922 323.377 198.053 324.507 199.448 324.507H275.427C276.822 324.507 277.953 323.377 277.953 321.983V321.495C277.953 320.102 276.822 318.972 275.427 318.972Z" fill="#018ABE"/>
<path opacity="0.68" d="M275.427 336.978H199.448C198.053 336.978 196.922 338.108 196.922 339.502V339.989C196.922 341.383 198.053 342.513 199.448 342.513H275.427C276.822 342.513 277.953 341.383 277.953 339.989V339.502C277.953 338.108 276.822 336.978 275.427 336.978Z" fill="#018ABE"/>
<path opacity="0.68" d="M79.3961 266.684H31.197C29.6668 266.684 28.4264 267.923 28.4264 269.452C28.4264 270.98 29.6668 272.219 31.197 272.219H79.3961C80.9263 272.219 82.1667 270.98 82.1667 269.452C82.1667 267.923 80.9263 266.684 79.3961 266.684Z" fill="#018ABE"/>
<path opacity="0.68" d="M122.921 280.533H31.197C29.6668 280.533 28.4264 281.772 28.4264 283.301C28.4264 284.829 29.6668 286.068 31.197 286.068H122.921C124.451 286.068 125.691 284.829 125.691 283.301C125.691 281.772 124.451 280.533 122.921 280.533Z" fill="#018ABE"/>
<path d="M199.949 122.281H197.569V121.416H203.366V122.281H200.925V129.242H199.9L199.949 122.281Z" fill="white"/>
<path d="M206.576 129.242L206.491 128.535C206.291 128.8 206.03 129.014 205.731 129.158C205.432 129.302 205.102 129.373 204.77 129.364C204.549 129.381 204.327 129.352 204.118 129.279C203.908 129.205 203.717 129.089 203.555 128.938C203.393 128.787 203.265 128.603 203.177 128.4C203.09 128.196 203.047 127.977 203.049 127.755C203.049 126.402 204.269 125.658 206.442 125.67V125.549C206.453 125.377 206.427 125.205 206.366 125.045C206.306 124.884 206.212 124.738 206.091 124.616C205.97 124.494 205.824 124.399 205.664 124.337C205.504 124.275 205.332 124.247 205.16 124.256C204.643 124.256 204.136 124.399 203.696 124.671L203.464 124C204.019 123.663 204.658 123.49 205.307 123.5C207.028 123.5 207.443 124.72 207.443 125.792V127.901C207.435 128.35 207.468 128.799 207.541 129.242H206.576ZM206.418 126.378C205.307 126.378 203.977 126.548 203.977 127.597C203.966 127.726 203.983 127.857 204.027 127.979C204.072 128.102 204.142 128.213 204.234 128.306C204.326 128.399 204.436 128.47 204.558 128.516C204.68 128.562 204.811 128.581 204.941 128.572C205.239 128.579 205.531 128.492 205.776 128.323C206.022 128.155 206.208 127.913 206.308 127.633C206.325 127.524 206.325 127.413 206.308 127.304L206.418 126.378Z" fill="white"/>
<path d="M208.92 128.194C209.323 128.447 209.786 128.59 210.262 128.609C211.007 128.609 211.361 128.231 211.361 127.767C211.361 127.304 211.068 127.011 210.311 126.731C209.298 126.378 208.822 125.817 208.822 125.146C208.832 124.908 208.892 124.674 208.996 124.459C209.101 124.245 209.25 124.054 209.432 123.899C209.614 123.745 209.827 123.63 210.056 123.561C210.285 123.492 210.525 123.472 210.763 123.5C211.248 123.495 211.727 123.613 212.154 123.842L211.898 124.585C211.551 124.379 211.154 124.27 210.751 124.269C210.14 124.269 209.799 124.61 209.799 125.024C209.799 125.439 210.14 125.707 210.873 125.975C211.849 126.353 212.349 126.841 212.349 127.682C212.349 128.523 211.581 129.364 210.25 129.364C209.696 129.373 209.15 129.239 208.663 128.974L208.92 128.194Z" fill="white"/>
<path d="M214.668 126.207C214.815 126 215.01 125.756 215.169 125.561L216.817 123.622H218.037L215.865 125.939L218.306 129.242H217.085L215.193 126.56L214.668 127.146V129.255H213.655V121.013H214.668V126.207Z" fill="white"/>
<path d="M222.712 122.05C222.716 122.134 222.701 122.219 222.67 122.298C222.638 122.377 222.59 122.448 222.529 122.507C222.468 122.565 222.395 122.611 222.315 122.639C222.235 122.667 222.15 122.678 222.065 122.671C221.983 122.673 221.901 122.658 221.825 122.628C221.749 122.597 221.679 122.551 221.621 122.493C221.563 122.435 221.517 122.366 221.487 122.29C221.456 122.213 221.441 122.132 221.443 122.05C221.441 121.964 221.456 121.88 221.488 121.801C221.52 121.721 221.568 121.649 221.628 121.589C221.689 121.529 221.761 121.481 221.84 121.449C221.919 121.418 222.004 121.402 222.089 121.404C222.174 121.402 222.258 121.417 222.336 121.45C222.414 121.482 222.484 121.53 222.542 121.59C222.601 121.651 222.646 121.723 222.675 121.802C222.705 121.881 222.717 121.966 222.712 122.05ZM221.577 129.242V123.622H222.59V129.242H221.577Z" fill="white"/>
<path d="M224.274 125.146C224.274 124.561 224.274 124.086 224.274 123.622H225.19L225.251 124.549C225.439 124.223 225.712 123.953 226.04 123.769C226.369 123.584 226.741 123.492 227.118 123.5C227.899 123.5 229.108 123.964 229.108 125.939V129.291H228.082V126.048C228.082 125.146 227.741 124.39 226.776 124.39C226.466 124.395 226.165 124.499 225.918 124.688C225.672 124.877 225.493 125.14 225.409 125.439C225.357 125.592 225.333 125.753 225.336 125.914V129.291H224.274V125.146Z" fill="white"/>
<path d="M233.233 121.513C233.874 121.41 234.524 121.361 235.174 121.367C235.96 121.308 236.742 121.537 237.371 122.013C237.597 122.219 237.775 122.472 237.893 122.754C238.011 123.037 238.066 123.341 238.054 123.647C238.069 123.951 238.024 124.255 237.921 124.541C237.819 124.828 237.661 125.091 237.456 125.317C237.131 125.621 236.746 125.855 236.326 126.004C235.906 126.153 235.46 126.214 235.015 126.182C234.74 126.192 234.466 126.167 234.197 126.109V129.242H233.184L233.233 121.513ZM234.246 125.28C234.522 125.345 234.805 125.374 235.088 125.366C236.309 125.366 237.053 124.768 237.053 123.696C237.053 122.623 236.321 122.159 235.198 122.159C234.878 122.15 234.559 122.179 234.246 122.245V125.28Z" fill="white"/>
<path d="M239.201 125.341C239.201 124.683 239.201 124.122 239.201 123.586H240.092V124.695C240.19 124.355 240.392 124.054 240.67 123.835C240.948 123.616 241.289 123.491 241.643 123.476C241.74 123.463 241.838 123.463 241.935 123.476V124.439C241.822 124.425 241.707 124.425 241.594 124.439C241.244 124.45 240.91 124.589 240.655 124.829C240.401 125.07 240.244 125.395 240.214 125.744C240.201 125.902 240.201 126.061 240.214 126.219V129.218H239.214L239.201 125.341Z" fill="white"/>
<path d="M247.965 126.39C247.997 126.773 247.949 127.159 247.823 127.522C247.696 127.886 247.495 128.219 247.231 128.499C246.967 128.78 246.648 129.002 246.292 129.151C245.937 129.3 245.555 129.373 245.17 129.364C244.797 129.369 244.428 129.296 244.086 129.15C243.743 129.004 243.435 128.788 243.181 128.516C242.927 128.244 242.733 127.921 242.611 127.57C242.489 127.219 242.442 126.846 242.472 126.475C242.438 126.092 242.485 125.707 242.61 125.343C242.735 124.98 242.935 124.647 243.198 124.366C243.46 124.085 243.779 123.863 244.134 123.714C244.489 123.565 244.871 123.492 245.255 123.5C245.629 123.492 246.001 123.563 246.345 123.707C246.69 123.852 247 124.068 247.256 124.341C247.512 124.613 247.707 124.937 247.829 125.29C247.951 125.643 247.998 126.018 247.965 126.39V126.39ZM243.51 126.39C243.51 127.609 244.218 128.548 245.219 128.548C246.219 128.548 246.927 127.621 246.927 126.365C246.927 125.414 246.451 124.208 245.243 124.208C244.035 124.208 243.51 125.341 243.51 126.451V126.39Z" fill="white"/>
<path d="M254.104 123.622C254.104 124.025 254.104 124.488 254.104 125.171V128.426C254.163 128.887 254.122 129.356 253.983 129.8C253.844 130.244 253.61 130.652 253.299 130.998C252.728 131.47 252 131.709 251.26 131.668C250.607 131.687 249.961 131.527 249.393 131.205L249.637 130.425C250.141 130.718 250.714 130.87 251.297 130.864C252.334 130.864 253.103 130.327 253.103 128.901V128.279C252.917 128.58 252.653 128.826 252.34 128.991C252.027 129.156 251.675 129.234 251.321 129.218C250.976 129.211 250.636 129.133 250.323 128.989C250.01 128.845 249.73 128.637 249.5 128.38C249.271 128.122 249.098 127.82 248.991 127.492C248.884 127.164 248.846 126.818 248.88 126.475C248.84 126.112 248.874 125.745 248.981 125.395C249.088 125.046 249.265 124.722 249.501 124.444C249.738 124.165 250.029 123.938 250.357 123.776C250.684 123.613 251.042 123.52 251.407 123.5C251.762 123.48 252.116 123.561 252.427 123.734C252.738 123.906 252.994 124.164 253.164 124.476V123.622H254.104ZM253.042 125.841C253.068 125.688 253.068 125.531 253.042 125.378C252.958 125.064 252.773 124.788 252.514 124.591C252.256 124.395 251.939 124.29 251.614 124.293C250.638 124.293 249.942 125.122 249.942 126.426C249.942 127.524 250.504 128.438 251.602 128.438C251.919 128.438 252.228 128.338 252.485 128.151C252.741 127.965 252.932 127.703 253.03 127.402C253.078 127.223 253.102 127.038 253.103 126.853L253.042 125.841Z" fill="white"/>
<path d="M255.679 125.341C255.679 124.683 255.679 124.122 255.679 123.586H256.582V124.695C256.681 124.354 256.886 124.053 257.166 123.834C257.447 123.615 257.789 123.49 258.144 123.476C258.241 123.463 258.34 123.463 258.437 123.476V124.439C258.32 124.425 258.201 124.425 258.083 124.439C257.734 124.45 257.402 124.589 257.15 124.83C256.897 125.071 256.743 125.396 256.716 125.744C256.703 125.902 256.703 126.061 256.716 126.219V129.218H255.703L255.679 125.341Z" fill="white"/>
<path d="M259.938 126.621C259.914 126.881 259.948 127.143 260.036 127.389C260.124 127.635 260.265 127.859 260.448 128.045C260.632 128.23 260.854 128.374 261.099 128.465C261.344 128.556 261.606 128.593 261.867 128.572C262.399 128.588 262.928 128.488 263.417 128.279L263.588 129.011C262.997 129.259 262.361 129.38 261.72 129.364C261.345 129.387 260.969 129.328 260.618 129.192C260.267 129.056 259.95 128.846 259.688 128.577C259.426 128.307 259.226 127.984 259.1 127.63C258.975 127.275 258.928 126.898 258.962 126.524C258.92 126.149 258.956 125.77 259.068 125.41C259.18 125.05 259.366 124.717 259.614 124.433C259.862 124.148 260.166 123.919 260.508 123.758C260.85 123.598 261.221 123.51 261.598 123.5C261.927 123.516 262.249 123.597 262.545 123.739C262.841 123.882 263.105 124.083 263.322 124.33C263.538 124.577 263.703 124.865 263.805 125.177C263.907 125.489 263.946 125.819 263.917 126.146C263.927 126.304 263.927 126.463 263.917 126.621H259.938ZM262.929 125.89C262.958 125.686 262.944 125.478 262.886 125.28C262.829 125.082 262.73 124.898 262.596 124.741C262.462 124.584 262.296 124.458 262.11 124.37C261.923 124.282 261.719 124.235 261.513 124.232C261.092 124.262 260.698 124.45 260.408 124.757C260.119 125.064 259.956 125.468 259.951 125.89H262.929Z" fill="white"/>
<path d="M265.04 128.194C265.448 128.449 265.915 128.592 266.395 128.609C267.14 128.609 267.481 128.231 267.481 127.767C267.481 127.304 267.201 127.011 266.444 126.731C265.431 126.378 264.955 125.817 264.955 125.146C264.965 124.908 265.024 124.674 265.129 124.459C265.234 124.244 265.382 124.054 265.565 123.899C265.747 123.745 265.959 123.63 266.188 123.561C266.417 123.492 266.658 123.472 266.895 123.5C267.377 123.497 267.851 123.614 268.275 123.842L268.018 124.585C267.672 124.378 267.275 124.268 266.871 124.269C266.261 124.269 265.931 124.61 265.931 125.024C265.931 125.439 266.261 125.707 266.993 125.975C267.97 126.353 268.47 126.841 268.47 127.682C268.47 128.523 267.701 129.364 266.371 129.364C265.817 129.372 265.271 129.237 264.784 128.974L265.04 128.194Z" fill="white"/>
<path d="M269.642 128.194C270.049 128.449 270.516 128.592 270.996 128.609C271.741 128.609 272.083 128.231 272.083 127.767C272.083 127.304 271.79 127.011 271.045 126.731C270.032 126.378 269.556 125.817 269.556 125.146C269.566 124.908 269.626 124.674 269.731 124.459C269.835 124.244 269.984 124.054 270.166 123.899C270.348 123.745 270.561 123.63 270.79 123.561C271.019 123.492 271.259 123.472 271.497 123.5C271.978 123.497 272.452 123.614 272.876 123.842L272.62 124.585C272.273 124.378 271.877 124.268 271.472 124.269C270.862 124.269 270.533 124.61 270.533 125.024C270.533 125.439 270.862 125.707 271.594 125.975C272.571 126.353 273.071 126.841 273.071 127.682C273.071 128.523 272.302 129.364 270.972 129.364C270.437 129.371 269.909 129.245 269.434 128.999L269.642 128.194Z" fill="white"/>
<path d="M49.0168 121.416V126.048C49.0168 127.804 49.7858 128.487 50.8354 128.487C51.8851 128.487 52.7395 127.719 52.7395 126.048V121.416H53.7647V125.975C53.7647 128.413 52.5442 129.364 50.7988 129.364C49.0534 129.364 47.9916 128.45 47.9916 126.024V121.416H49.0168Z" fill="white"/>
<path d="M55.2782 128.194C55.6802 128.45 56.144 128.594 56.6208 128.609C57.3653 128.609 57.7192 128.231 57.7192 127.767C57.7192 127.304 57.4263 127.011 56.6696 126.731C55.6565 126.378 55.1805 125.817 55.1805 125.146C55.1906 124.908 55.2499 124.674 55.3549 124.459C55.4598 124.244 55.6081 124.054 55.7904 123.899C55.9727 123.745 56.185 123.63 56.414 123.561C56.643 123.492 56.8838 123.472 57.1212 123.5C57.6027 123.493 58.078 123.611 58.5004 123.842L58.2441 124.585C57.8976 124.378 57.5009 124.268 57.0968 124.269C56.4987 124.269 56.1569 124.61 56.1569 125.024C56.1569 125.439 56.4987 125.707 57.231 125.975C58.2075 126.353 58.7079 126.841 58.7079 127.682C58.7079 128.523 57.9389 129.364 56.5963 129.364C56.0466 129.372 55.5042 129.238 55.0219 128.974L55.2782 128.194Z" fill="white"/>
<path d="M60.5876 126.621C60.5658 126.881 60.6005 127.142 60.6893 127.387C60.7782 127.632 60.9191 127.855 61.1023 128.04C61.2855 128.225 61.5068 128.369 61.7508 128.461C61.9948 128.552 62.2559 128.59 62.516 128.572C63.0478 128.588 63.5768 128.488 64.0661 128.279L64.2492 129.011C63.6539 129.257 63.0138 129.378 62.3695 129.364C61.9974 129.386 61.6248 129.328 61.2768 129.195C60.9289 129.061 60.6137 128.854 60.3524 128.589C60.0911 128.323 59.8897 128.004 59.7618 127.655C59.634 127.305 59.5826 126.932 59.6111 126.56C59.5687 126.186 59.6047 125.806 59.717 125.446C59.8293 125.086 60.0153 124.754 60.2632 124.469C60.5112 124.185 60.8156 123.955 61.1572 123.795C61.4988 123.634 61.8701 123.546 62.2475 123.537C62.5759 123.552 62.8978 123.634 63.194 123.776C63.4902 123.919 63.7545 124.119 63.9711 124.366C64.1876 124.613 64.352 124.902 64.4543 125.214C64.5567 125.526 64.5948 125.855 64.5665 126.182C64.5765 126.341 64.5765 126.5 64.5665 126.658L60.5876 126.621ZM63.5779 125.89C63.6074 125.686 63.593 125.478 63.5357 125.28C63.4784 125.082 63.3794 124.898 63.2454 124.741C63.1114 124.584 62.9455 124.458 62.7587 124.37C62.5719 124.282 62.3685 124.235 62.1621 124.232C61.741 124.262 61.3468 124.45 61.0574 124.757C60.7681 125.064 60.6048 125.468 60.5998 125.89H63.5779Z" fill="white"/>
<path d="M65.8359 125.341C65.8359 124.683 65.8359 124.122 65.8359 123.586H66.7269V124.695C66.8248 124.353 67.0288 124.051 67.3095 123.832C67.5902 123.613 67.9332 123.488 68.2892 123.476C68.3823 123.463 68.4769 123.463 68.5699 123.476V124.439C68.4565 124.425 68.3417 124.425 68.2282 124.439C67.8795 124.45 67.5471 124.589 67.2948 124.83C67.0425 125.071 66.8881 125.396 66.8612 125.744C66.8479 125.902 66.8479 126.061 66.8612 126.219V129.218H65.8481L65.8359 125.341Z" fill="white"/>
<path d="M71.9874 128.011C72.5369 128.341 73.1649 128.518 73.806 128.523C74.8435 128.523 75.4415 127.975 75.4415 127.182C75.4415 126.39 75.0265 126.036 73.9647 125.634C72.7441 125.183 71.902 124.525 71.902 123.415C71.9163 123.106 71.9947 122.803 72.1321 122.525C72.2695 122.248 72.4629 122.001 72.7003 121.802C72.9376 121.603 73.2137 121.455 73.5111 121.367C73.8086 121.28 74.1209 121.255 74.4285 121.294C75.0289 121.272 75.625 121.402 76.1616 121.672L75.8809 122.501C75.4258 122.248 74.9126 122.118 74.3919 122.123C73.33 122.123 72.9272 122.769 72.9272 123.342C72.9272 124.061 73.4032 124.427 74.4773 124.841C75.8077 125.354 76.479 126.061 76.479 127.146C76.479 128.231 75.588 129.401 73.7328 129.401C73.0343 129.403 72.3463 129.231 71.7311 128.901L71.9874 128.011Z" fill="white"/>
<path d="M79.03 122.013V123.622H80.4947V124.403H79.03V127.426C79.03 128.133 79.2253 128.523 79.799 128.523C80.0007 128.526 80.2019 128.501 80.397 128.45V129.218C80.104 129.325 79.7933 129.374 79.4816 129.364C79.2776 129.375 79.0736 129.342 78.8838 129.266C78.6941 129.19 78.5232 129.074 78.3831 128.925C78.0652 128.508 77.9209 127.984 77.9804 127.463V124.403H77.1138V123.622H77.9804V122.281L79.03 122.013Z" fill="white"/>
<path d="M86.6583 126.39C86.6904 126.769 86.6433 127.151 86.5197 127.511C86.3962 127.871 86.199 128.201 85.9407 128.481C85.6825 128.761 85.3687 128.984 85.0194 129.136C84.6702 129.288 84.2931 129.366 83.9121 129.364C83.5397 129.369 83.1705 129.296 82.8281 129.15C82.4857 129.004 82.1776 128.788 81.9237 128.516C81.6697 128.244 81.4755 127.921 81.3534 127.57C81.2313 127.219 81.184 126.846 81.2147 126.475C81.1828 126.1 81.2286 125.722 81.3492 125.366C81.4698 125.009 81.6626 124.681 81.9156 124.402C82.1686 124.123 82.4765 123.899 82.82 123.744C83.1634 123.589 83.5352 123.506 83.9121 123.5C84.289 123.487 84.6645 123.554 85.0137 123.696C85.3629 123.838 85.6777 124.053 85.9374 124.327C86.1971 124.6 86.3957 124.925 86.52 125.281C86.6442 125.636 86.6914 126.014 86.6583 126.39V126.39ZM82.1911 126.39C82.1911 127.609 82.899 128.548 83.8998 128.548C84.9007 128.548 85.6086 127.621 85.6086 126.365C85.6086 125.414 85.1326 124.208 83.9243 124.208C82.7159 124.208 82.1911 125.341 82.1911 126.451V126.39Z" fill="white"/>
<path d="M87.9398 125.341C87.9398 124.683 87.9398 124.122 87.9398 123.586H88.7942V124.695C88.8937 124.354 89.0981 124.053 89.3785 123.834C89.6589 123.615 90.001 123.49 90.3565 123.476C90.4537 123.463 90.5522 123.463 90.6494 123.476V124.439C90.5318 124.425 90.413 124.425 90.2955 124.439C89.9467 124.45 89.6143 124.589 89.362 124.83C89.1098 125.071 88.9554 125.396 88.9285 125.744C88.9152 125.902 88.9152 126.061 88.9285 126.219V129.218H87.9398V125.341Z" fill="white"/>
<path d="M92.9318 122.05C92.8939 122.182 92.8139 122.299 92.7038 122.382C92.5937 122.465 92.4595 122.51 92.3216 122.51C92.1836 122.51 92.0495 122.465 91.9394 122.382C91.8292 122.299 91.7492 122.182 91.7113 122.05C91.708 121.965 91.722 121.881 91.7525 121.801C91.7831 121.722 91.8295 121.65 91.889 121.59C91.9484 121.529 92.0196 121.482 92.0982 121.45C92.1768 121.417 92.2611 121.402 92.346 121.404C92.4272 121.407 92.507 121.426 92.5807 121.46C92.6544 121.495 92.7205 121.543 92.775 121.604C92.8296 121.664 92.8716 121.734 92.8985 121.811C92.9254 121.887 92.9368 121.969 92.9318 122.05ZM91.7845 129.242V123.622H92.8098V129.242H91.7845Z" fill="white"/>
<path d="M95.08 126.621C95.0582 126.881 95.0929 127.142 95.1818 127.387C95.2706 127.632 95.4115 127.855 95.5947 128.04C95.778 128.225 95.9992 128.369 96.2432 128.461C96.4873 128.552 96.7483 128.59 97.0084 128.572C97.5403 128.588 98.0693 128.488 98.5585 128.279L98.7416 129.011C98.1464 129.257 97.5063 129.378 96.862 129.364C96.4898 129.386 96.1172 129.328 95.7693 129.195C95.4213 129.061 95.1061 128.854 94.8448 128.589C94.5835 128.323 94.3821 128.004 94.2543 127.655C94.1264 127.305 94.075 126.932 94.1036 126.56C94.0611 126.186 94.0972 125.806 94.2094 125.446C94.3217 125.086 94.5077 124.754 94.7556 124.469C95.0036 124.185 95.308 123.955 95.6496 123.795C95.9912 123.634 96.3625 123.546 96.7399 123.537C97.0683 123.552 97.3903 123.634 97.6865 123.776C97.9826 123.919 98.2469 124.119 98.4635 124.366C98.6801 124.613 98.8445 124.902 98.9468 125.214C99.0491 125.526 99.0873 125.855 99.059 126.182C99.0689 126.341 99.0689 126.5 99.059 126.658L95.08 126.621ZM98.0703 125.89C98.0998 125.686 98.0854 125.478 98.0281 125.28C97.9708 125.082 97.8718 124.898 97.7379 124.741C97.6039 124.584 97.438 124.458 97.2511 124.37C97.0643 124.282 96.8609 124.235 96.6545 124.232C96.2334 124.262 95.8392 124.45 95.5499 124.757C95.2606 125.064 95.0972 125.468 95.0922 125.89H98.0703Z" fill="white"/>
<path d="M100.182 128.194C100.589 128.449 101.056 128.592 101.537 128.609C102.281 128.609 102.623 128.231 102.623 127.767C102.623 127.304 102.342 127.011 101.585 126.731C100.572 126.378 100.096 125.817 100.096 125.146C100.106 124.908 100.166 124.674 100.271 124.459C100.376 124.244 100.524 124.054 100.706 123.899C100.889 123.745 101.101 123.63 101.33 123.561C101.559 123.492 101.8 123.472 102.037 123.5C102.518 123.495 102.993 123.612 103.416 123.842L103.16 124.585C102.814 124.378 102.417 124.268 102.013 124.269C101.402 124.269 101.073 124.61 101.073 125.024C101.073 125.439 101.402 125.707 102.135 125.975C103.111 126.353 103.612 126.841 103.612 127.682C103.612 128.523 102.855 129.364 101.512 129.364C100.959 129.37 100.413 129.236 99.9255 128.974L100.182 128.194Z" fill="white"/>
<path d="M351.625 122.281H349.245V121.416H355.043V122.281H352.602V129.242H351.576L351.625 122.281Z" fill="white"/>
<path d="M358.253 129.242L358.167 128.535C357.967 128.8 357.707 129.014 357.407 129.158C357.108 129.302 356.779 129.373 356.446 129.364C356.225 129.381 356.003 129.352 355.794 129.279C355.585 129.205 355.393 129.089 355.232 128.938C355.07 128.787 354.941 128.603 354.854 128.4C354.767 128.196 354.723 127.977 354.725 127.755C354.725 126.402 355.946 125.658 358.106 125.67V125.549C358.128 125.38 358.113 125.208 358.06 125.047C358.008 124.885 357.92 124.737 357.803 124.613C357.686 124.489 357.543 124.393 357.385 124.331C357.226 124.27 357.056 124.244 356.886 124.256C356.368 124.256 355.861 124.399 355.421 124.671L355.189 124C355.744 123.663 356.383 123.49 357.032 123.5C358.753 123.5 359.168 124.72 359.168 125.792V127.901C359.16 128.35 359.193 128.799 359.266 129.242H358.253ZM358.094 126.378C356.983 126.378 355.714 126.548 355.714 127.597C355.703 127.726 355.721 127.857 355.765 127.979C355.809 128.102 355.88 128.213 355.971 128.306C356.063 128.399 356.174 128.47 356.296 128.516C356.418 128.562 356.548 128.581 356.678 128.572C356.976 128.579 357.268 128.492 357.514 128.323C357.759 128.155 357.945 127.913 358.045 127.633C358.056 127.524 358.056 127.414 358.045 127.304L358.094 126.378Z" fill="white"/>
<path d="M360.596 128.194C361 128.447 361.463 128.59 361.939 128.609C362.683 128.609 363.037 128.231 363.037 127.767C363.037 127.304 362.744 127.011 361.988 126.731C360.975 126.378 360.499 125.817 360.499 125.146C360.509 124.908 360.568 124.674 360.673 124.459C360.778 124.244 360.926 124.054 361.108 123.899C361.291 123.745 361.503 123.63 361.732 123.561C361.961 123.492 362.202 123.472 362.439 123.5C362.924 123.495 363.403 123.613 363.831 123.842L363.574 124.585C363.223 124.378 362.823 124.268 362.415 124.269C361.817 124.269 361.475 124.61 361.475 125.024C361.475 125.439 361.817 125.707 362.549 125.975C363.526 126.353 364.026 126.841 364.026 127.682C364.026 128.523 363.257 129.364 361.914 129.364C361.365 129.372 360.822 129.238 360.34 128.974L360.596 128.194Z" fill="white"/>
<path d="M366.345 126.207C366.491 126 366.687 125.756 366.845 125.561L368.493 123.622H369.714L367.541 125.939L369.982 129.242H368.762L366.87 126.56L366.345 127.146V129.255H365.332V121.013H366.345V126.207Z" fill="white"/>
<path d="M378.758 128.999C378.1 129.267 377.393 129.396 376.683 129.377C376.158 129.408 375.633 129.327 375.142 129.137C374.652 128.948 374.208 128.655 373.841 128.28C373.474 127.904 373.192 127.453 373.015 126.959C372.838 126.464 372.769 125.938 372.814 125.414C372.782 124.869 372.866 124.323 373.06 123.811C373.254 123.3 373.554 122.836 373.94 122.448C374.325 122.06 374.789 121.758 375.299 121.562C375.81 121.365 376.356 121.278 376.903 121.306C377.543 121.281 378.18 121.398 378.77 121.647L378.526 122.476C378.027 122.252 377.486 122.14 376.939 122.147C376.517 122.125 376.095 122.195 375.702 122.352C375.309 122.51 374.956 122.75 374.665 123.058C374.375 123.365 374.155 123.732 374.021 124.132C373.887 124.533 373.841 124.958 373.888 125.378C373.845 125.784 373.891 126.195 374.022 126.582C374.153 126.969 374.366 127.323 374.646 127.621C374.926 127.918 375.268 128.151 375.646 128.305C376.025 128.459 376.433 128.529 376.842 128.511C377.412 128.523 377.979 128.41 378.502 128.182L378.758 128.999Z" fill="white"/>
<path d="M384.946 126.39C384.979 126.773 384.93 127.159 384.804 127.522C384.677 127.886 384.476 128.219 384.212 128.499C383.949 128.78 383.629 129.002 383.274 129.151C382.919 129.3 382.536 129.373 382.151 129.364C381.779 129.369 381.409 129.296 381.067 129.15C380.725 129.004 380.417 128.788 380.163 128.516C379.909 128.244 379.714 127.921 379.592 127.57C379.47 127.219 379.423 126.846 379.454 126.475C379.419 126.092 379.466 125.707 379.591 125.343C379.716 124.98 379.916 124.647 380.179 124.366C380.442 124.085 380.761 123.863 381.115 123.714C381.47 123.565 381.852 123.492 382.236 123.5C382.61 123.492 382.982 123.563 383.327 123.707C383.671 123.852 383.982 124.068 384.237 124.341C384.493 124.613 384.688 124.937 384.81 125.29C384.933 125.643 384.979 126.018 384.946 126.39ZM380.491 126.39C380.491 127.609 381.199 128.548 382.188 128.548C383.176 128.548 383.909 127.621 383.909 126.365C383.909 125.414 383.42 124.208 382.212 124.208C381.004 124.208 380.503 125.341 380.503 126.451L380.491 126.39Z" fill="white"/>
<path d="M386.24 125.146C386.24 124.561 386.24 124.086 386.24 123.622H387.131V124.524C387.302 124.207 387.558 123.943 387.871 123.763C388.183 123.582 388.54 123.491 388.901 123.5C389.249 123.499 389.589 123.606 389.874 123.807C390.158 124.008 390.373 124.293 390.487 124.622V124.622C390.638 124.335 390.851 124.086 391.11 123.891C391.46 123.625 391.891 123.488 392.33 123.5C393.075 123.5 394.185 123.988 394.185 125.939V129.242H393.185V126.061C393.185 124.988 392.782 124.329 391.964 124.329C391.69 124.339 391.425 124.434 391.207 124.599C390.988 124.765 390.826 124.995 390.744 125.256C390.689 125.421 390.66 125.594 390.658 125.768V129.242H389.657V125.878C389.657 124.988 389.267 124.329 388.437 124.329C388.154 124.358 387.886 124.471 387.668 124.654C387.451 124.836 387.293 125.08 387.216 125.353C387.166 125.515 387.141 125.684 387.143 125.853V129.242H386.142L386.24 125.146Z" fill="white"/>
<path d="M395.931 125.463C395.931 124.744 395.931 124.159 395.931 123.622H396.846V124.585C397.048 124.241 397.34 123.958 397.69 123.767C398.041 123.576 398.437 123.484 398.836 123.5C399.189 123.513 399.535 123.599 399.853 123.752C400.171 123.905 400.454 124.123 400.684 124.391C400.913 124.659 401.084 124.972 401.186 125.31C401.288 125.648 401.319 126.003 401.277 126.353C401.327 126.723 401.298 127.098 401.193 127.456C401.088 127.814 400.909 128.145 400.667 128.429C400.425 128.713 400.126 128.943 399.79 129.104C399.453 129.265 399.087 129.354 398.714 129.364C398.373 129.381 398.035 129.308 397.731 129.154C397.427 129.001 397.168 128.77 396.981 128.487V131.547H395.98L395.931 125.463ZM396.932 126.951C396.918 127.092 396.918 127.235 396.932 127.377C397.012 127.724 397.208 128.034 397.487 128.256C397.767 128.477 398.113 128.597 398.47 128.596C399.544 128.596 400.178 127.706 400.178 126.426C400.178 125.146 399.58 124.329 398.506 124.329C398.079 124.37 397.68 124.561 397.382 124.87C397.085 125.179 396.907 125.584 396.883 126.012L396.932 126.951Z" fill="white"/>
<path d="M402.534 121.001H403.559V129.242H402.534V121.001Z" fill="white"/>
<path d="M405.842 126.621C405.82 126.881 405.855 127.142 405.943 127.387C406.032 127.632 406.173 127.855 406.356 128.04C406.54 128.225 406.761 128.369 407.005 128.461C407.249 128.552 407.51 128.59 407.77 128.572C408.306 128.587 408.838 128.487 409.332 128.279L409.503 129.011C408.912 129.258 408.276 129.378 407.636 129.364C407.267 129.379 406.9 129.316 406.557 129.179C406.214 129.042 405.905 128.834 405.648 128.57C405.391 128.305 405.193 127.99 405.066 127.643C404.94 127.297 404.888 126.928 404.914 126.56C404.872 126.185 404.908 125.804 405.021 125.444C405.134 125.083 405.321 124.749 405.57 124.465C405.82 124.18 406.125 123.951 406.469 123.791C406.812 123.631 407.184 123.545 407.563 123.537C407.891 123.552 408.213 123.634 408.509 123.776C408.805 123.919 409.07 124.119 409.286 124.366C409.503 124.613 409.667 124.902 409.769 125.214C409.872 125.526 409.91 125.855 409.882 126.182C409.892 126.341 409.892 126.5 409.882 126.658L405.842 126.621ZM408.844 125.89C408.874 125.686 408.859 125.478 408.802 125.28C408.745 125.082 408.646 124.898 408.512 124.741C408.378 124.584 408.212 124.458 408.025 124.37C407.838 124.282 407.635 124.235 407.428 124.232C407.006 124.262 406.611 124.449 406.319 124.756C406.028 125.063 405.862 125.467 405.854 125.89H408.844Z" fill="white"/>
<path d="M412.335 122.013V123.622H413.8V124.403H412.335V127.426C412.335 128.133 412.53 128.523 413.092 128.523C413.293 128.526 413.495 128.501 413.69 128.45V129.218C413.397 129.325 413.086 129.374 412.774 129.364C412.57 129.375 412.366 129.342 412.177 129.266C411.987 129.19 411.816 129.074 411.676 128.925C411.363 128.506 411.224 127.982 411.285 127.463V124.403H410.406V123.622H411.285V122.281L412.335 122.013Z" fill="white"/>
<path d="M415.447 126.621C415.426 126.881 415.46 127.142 415.549 127.387C415.638 127.632 415.779 127.855 415.962 128.04C416.145 128.225 416.367 128.369 416.611 128.461C416.855 128.552 417.116 128.59 417.376 128.572C417.908 128.588 418.437 128.488 418.926 128.279L419.109 129.011C418.514 129.257 417.874 129.378 417.229 129.364C416.854 129.387 416.478 129.328 416.127 129.192C415.776 129.056 415.459 128.846 415.197 128.577C414.935 128.307 414.735 127.984 414.609 127.63C414.484 127.275 414.437 126.898 414.471 126.524C414.428 126.149 414.464 125.77 414.577 125.41C414.689 125.05 414.875 124.717 415.123 124.433C415.371 124.148 415.675 123.919 416.017 123.758C416.359 123.598 416.73 123.51 417.107 123.5C417.436 123.516 417.758 123.597 418.054 123.739C418.35 123.882 418.614 124.083 418.831 124.33C419.047 124.577 419.212 124.865 419.314 125.177C419.416 125.489 419.455 125.819 419.426 126.146C419.436 126.304 419.436 126.463 419.426 126.621H415.447ZM418.438 125.89C418.467 125.686 418.453 125.478 418.395 125.28C418.338 125.082 418.239 124.898 418.105 124.741C417.971 124.584 417.805 124.458 417.618 124.37C417.432 124.282 417.228 124.235 417.022 124.232C416.601 124.262 416.207 124.45 415.917 124.757C415.628 125.064 415.465 125.468 415.46 125.89H418.438Z" fill="white"/>
<path d="M425.553 121.001V127.78C425.553 128.279 425.553 128.852 425.553 129.23H424.626V128.255C424.441 128.599 424.164 128.884 423.825 129.077C423.486 129.271 423.1 129.367 422.709 129.352C422.356 129.34 422.01 129.254 421.692 129.1C421.374 128.947 421.091 128.729 420.862 128.461C420.632 128.193 420.461 127.88 420.359 127.543C420.257 127.205 420.226 126.85 420.268 126.499C420.223 126.135 420.252 125.764 420.356 125.411C420.46 125.058 420.635 124.731 420.871 124.448C421.106 124.166 421.398 123.935 421.727 123.77C422.056 123.605 422.415 123.509 422.783 123.488C423.116 123.467 423.449 123.535 423.747 123.685C424.045 123.835 424.298 124.062 424.479 124.342V124.342V120.989L425.553 121.001ZM424.528 125.878C424.547 125.736 424.547 125.593 424.528 125.451C424.463 125.108 424.279 124.798 424.01 124.576C423.74 124.353 423.401 124.231 423.051 124.232C422.002 124.232 421.367 125.171 421.367 126.402C421.367 127.633 421.928 128.487 423.027 128.487C423.38 128.488 423.722 128.367 423.996 128.145C424.269 127.923 424.458 127.613 424.528 127.267C424.547 127.122 424.547 126.974 424.528 126.829V125.878Z" fill="white"/>
<path d="M517.863 122.281H515.422V121.416H521.219V122.281H518.778V129.242H517.753L517.863 122.281Z" fill="white"/>
<path d="M524.527 129.242L524.442 128.535C524.241 128.8 523.98 129.013 523.681 129.157C523.382 129.301 523.053 129.372 522.721 129.364C522.5 129.381 522.277 129.352 522.068 129.279C521.859 129.205 521.668 129.089 521.506 128.938C521.344 128.787 521.215 128.603 521.128 128.4C521.041 128.196 520.997 127.977 521 127.755C521 126.402 522.22 125.658 524.381 125.67V125.549C524.403 125.38 524.387 125.208 524.335 125.047C524.282 124.885 524.194 124.737 524.078 124.613C523.961 124.489 523.818 124.393 523.659 124.331C523.5 124.27 523.33 124.244 523.16 124.256C522.643 124.256 522.135 124.399 521.695 124.671L521.463 124C522.018 123.663 522.657 123.49 523.306 123.5C525.027 123.5 525.442 124.72 525.442 125.792V127.901C525.434 128.35 525.467 128.799 525.54 129.242H524.527ZM524.368 126.378C523.258 126.378 521.988 126.548 521.988 127.597C521.977 127.726 521.995 127.857 522.039 127.979C522.084 128.102 522.154 128.213 522.246 128.306C522.337 128.399 522.448 128.47 522.57 128.516C522.692 128.562 522.822 128.581 522.952 128.572C523.249 128.58 523.54 128.493 523.784 128.325C524.028 128.156 524.211 127.913 524.307 127.633C524.324 127.524 524.324 127.413 524.307 127.304L524.368 126.378Z" fill="white"/>
<path d="M526.834 128.194C527.236 128.449 527.7 128.592 528.176 128.609C528.921 128.609 529.275 128.231 529.275 127.767C529.275 127.304 528.982 127.011 528.225 126.731C527.212 126.378 526.736 125.817 526.736 125.146C526.746 124.908 526.805 124.674 526.91 124.459C527.015 124.244 527.164 124.054 527.346 123.899C527.528 123.745 527.741 123.63 527.97 123.561C528.199 123.492 528.439 123.472 528.677 123.5C529.162 123.495 529.641 123.613 530.068 123.842L529.812 124.585C529.46 124.38 529.06 124.271 528.652 124.269C528.054 124.269 527.712 124.61 527.712 125.024C527.712 125.439 528.054 125.707 528.787 125.975C529.763 126.353 530.263 126.841 530.263 127.682C530.263 128.523 529.494 129.364 528.152 129.364C527.602 129.372 527.06 129.238 526.577 128.974L526.834 128.194Z" fill="white"/>
<path d="M532.582 126.207C532.717 126 532.924 125.756 533.083 125.561L534.731 123.622H535.951L533.779 125.939L536.22 129.242H534.999L533.071 126.56L532.546 127.146V129.255H531.533V121.013H532.546L532.582 126.207Z" fill="white"/>
<path d="M544.995 128.999C544.338 129.267 543.631 129.396 542.921 129.377C542.396 129.408 541.87 129.327 541.38 129.137C540.889 128.948 540.446 128.655 540.079 128.28C539.711 127.904 539.43 127.453 539.252 126.959C539.075 126.464 539.007 125.938 539.051 125.414C539.02 124.869 539.104 124.323 539.298 123.811C539.492 123.3 539.791 122.836 540.177 122.448C540.563 122.06 541.026 121.758 541.537 121.562C542.047 121.365 542.594 121.278 543.14 121.306C543.78 121.281 544.418 121.398 545.008 121.647L544.764 122.476C544.265 122.252 543.723 122.14 543.177 122.147C542.754 122.125 542.332 122.195 541.94 122.352C541.547 122.51 541.193 122.75 540.903 123.058C540.613 123.365 540.393 123.732 540.259 124.132C540.124 124.533 540.079 124.958 540.125 125.378C540.08 125.789 540.126 126.206 540.258 126.598C540.391 126.99 540.608 127.349 540.894 127.648C541.18 127.948 541.528 128.181 541.914 128.333C542.3 128.484 542.714 128.549 543.128 128.523C543.699 128.535 544.265 128.422 544.788 128.194L544.995 128.999Z" fill="white"/>
<path d="M546.228 121.001H547.241V129.242H546.228V121.001Z" fill="white"/>
<path d="M554.052 126.39C554.084 126.773 554.036 127.159 553.909 127.522C553.783 127.886 553.581 128.219 553.318 128.499C553.054 128.78 552.735 129.002 552.379 129.151C552.024 129.3 551.642 129.373 551.257 129.364C550.884 129.369 550.515 129.296 550.173 129.15C549.83 129.004 549.522 128.788 549.268 128.516C549.014 128.244 548.82 127.921 548.698 127.57C548.576 127.219 548.529 126.846 548.559 126.475C548.525 126.092 548.572 125.707 548.697 125.343C548.822 124.98 549.022 124.647 549.285 124.366C549.547 124.085 549.866 123.863 550.221 123.714C550.575 123.565 550.958 123.492 551.342 123.5C551.716 123.492 552.088 123.563 552.432 123.707C552.777 123.852 553.087 124.068 553.343 124.341C553.599 124.613 553.794 124.937 553.916 125.29C554.038 125.643 554.084 126.018 554.052 126.39ZM549.597 126.39C549.597 127.609 550.305 128.548 551.306 128.548C552.306 128.548 553.002 127.621 553.002 126.365C553.002 125.414 552.526 124.208 551.318 124.208C550.109 124.208 549.597 125.341 549.597 126.451V126.39Z" fill="white"/>
<path d="M555.199 128.194C555.606 128.449 556.074 128.592 556.554 128.609C557.298 128.609 557.64 128.231 557.64 127.767C557.64 127.304 557.347 127.011 556.603 126.731C555.59 126.378 555.114 125.817 555.114 125.146C555.124 124.908 555.183 124.674 555.288 124.459C555.393 124.244 555.541 124.054 555.724 123.899C555.906 123.745 556.118 123.63 556.347 123.561C556.576 123.492 556.817 123.472 557.054 123.5C557.535 123.497 558.01 123.614 558.434 123.842L558.177 124.585C557.831 124.378 557.434 124.268 557.03 124.269C556.42 124.269 556.09 124.61 556.09 125.024C556.09 125.439 556.42 125.707 557.152 125.975C558.128 126.353 558.629 126.841 558.629 127.682C558.629 128.523 557.86 129.364 556.53 129.364C555.976 129.372 555.43 129.237 554.943 128.974L555.199 128.194Z" fill="white"/>
<path d="M560.508 126.621C560.487 126.881 560.521 127.142 560.61 127.387C560.699 127.632 560.84 127.855 561.023 128.04C561.206 128.225 561.428 128.369 561.672 128.461C561.916 128.552 562.177 128.59 562.437 128.572C562.972 128.587 563.505 128.487 563.999 128.279L564.17 129.011C563.579 129.258 562.943 129.378 562.302 129.364C561.926 129.387 561.55 129.328 561.199 129.192C560.848 129.056 560.53 128.846 560.267 128.577C560.004 128.307 559.802 127.985 559.675 127.63C559.549 127.276 559.5 126.899 559.532 126.524C559.489 126.149 559.526 125.77 559.638 125.41C559.75 125.05 559.936 124.717 560.184 124.433C560.432 124.148 560.736 123.919 561.078 123.758C561.42 123.598 561.791 123.51 562.168 123.5C562.498 123.514 562.821 123.594 563.119 123.736C563.416 123.878 563.682 124.078 563.9 124.326C564.118 124.573 564.283 124.862 564.386 125.174C564.489 125.487 564.528 125.818 564.499 126.146C564.509 126.304 564.509 126.463 564.499 126.621H560.508ZM563.511 125.89C563.54 125.686 563.526 125.478 563.469 125.28C563.411 125.082 563.312 124.898 563.178 124.741C563.044 124.584 562.878 124.458 562.692 124.37C562.505 124.282 562.301 124.235 562.095 124.232C561.673 124.262 561.277 124.449 560.986 124.756C560.695 125.063 560.529 125.467 560.521 125.89H563.511Z" fill="white"/>
<path d="M570.614 121.001V127.78C570.614 128.279 570.614 128.852 570.614 129.23H569.699V128.255C569.515 128.6 569.238 128.885 568.899 129.079C568.56 129.274 568.173 129.368 567.783 129.352C567.43 129.338 567.085 129.251 566.767 129.097C566.45 128.943 566.168 128.725 565.939 128.458C565.71 128.19 565.539 127.878 565.436 127.541C565.333 127.204 565.301 126.849 565.342 126.499C565.296 126.134 565.326 125.762 565.43 125.409C565.535 125.055 565.711 124.727 565.948 124.444C566.185 124.161 566.478 123.931 566.808 123.766C567.139 123.602 567.499 123.507 567.868 123.488C568.201 123.468 568.533 123.537 568.831 123.687C569.129 123.837 569.382 124.063 569.565 124.342V124.342V120.989L570.614 121.001ZM569.601 125.878C569.62 125.736 569.62 125.593 569.601 125.451C569.536 125.108 569.352 124.798 569.083 124.576C568.813 124.353 568.474 124.231 568.124 124.232C567.062 124.232 566.44 125.171 566.44 126.402C566.44 127.633 567.001 128.487 568.1 128.487C568.452 128.486 568.793 128.364 569.067 128.142C569.34 127.921 569.529 127.612 569.601 127.267C569.62 127.122 569.62 126.974 569.601 126.829V125.878Z" fill="white"/>
<path d="M490.559 323.483L497.626 441.492L510.515 443.382L516.398 353.777L521.72 443.174L534.487 443.589C534.487 443.589 540.394 353.314 539.1 346.682C537.806 340.05 539.1 318.972 539.1 318.972L490.559 323.483Z" fill="#A18970"/>
<path d="M488.545 312.023C482.308 308.244 476.267 292.212 478.952 288.324C482.186 283.654 487.008 251.275 491.267 247.557C495.527 243.838 500.922 241.168 506.536 241.376C513.152 241.62 520.475 238.523 526.651 241.034C530.129 242.449 533.034 245.021 535.854 247.557C540.284 251.519 543.738 318.265 538.771 325.579C532.412 334.857 519.328 335.162 508.257 334.528C504.437 334.308 500.458 334.04 497.114 332.089C488.692 327.225 487.642 321.849 488.545 312.023Z" fill="#02457A"/>
<path d="M489.29 218.847C488.784 222.264 489.483 225.75 491.267 228.709C493.647 232.367 498.163 234.646 498.969 238.864C499.347 240.791 498.847 242.79 498.969 244.753C499.091 246.715 500.189 248.91 502.203 249.093C502.911 249.127 503.615 248.971 504.242 248.642C506.431 247.376 508.187 245.482 509.282 243.204C512.944 236.804 515.312 229.307 514.164 221.992C513.017 214.677 507.854 207.753 500.665 205.973C491.804 203.779 490.071 211.898 489.29 218.847Z" fill="url(#paint17_linear)"/>
<path d="M490.047 205.802C491.06 209.399 494.099 212.093 497.309 214.019C498.927 214.848 500.442 215.863 501.825 217.042C506.072 221.2 505.035 228.075 504.998 234C504.998 238.206 505.682 242.607 508.196 245.972C512.504 251.75 520.609 252.86 527.81 253.055C528.584 253.157 529.37 252.999 530.044 252.604C530.572 252.138 530.914 251.497 531.008 250.799C532.424 244.18 526.187 237.999 526.699 231.294C526.98 227.478 529.397 224.138 530.178 220.395C531.313 214.97 528.872 209.313 525.296 205.095C523.856 203.279 522.014 201.822 519.913 200.84C516.142 199.268 511.711 200.158 507.891 198.707C505.669 197.878 503.802 196.269 501.605 195.403C495.539 192.965 488.326 199.707 490.047 205.802Z" fill="#606161"/>
<path d="M462.694 283.203C461.784 282.726 460.734 282.583 459.728 282.801C459.171 283.035 458.674 283.394 458.276 283.849C456.227 285.945 454.624 288.433 453.565 291.164C452.945 292.446 452.802 293.907 453.162 295.285C453.895 296.716 455.103 297.849 456.579 298.491C466.454 304.16 478.281 312.255 489.607 311.145C490.401 311.072 490.132 308.707 490.718 308.183C491.365 307.425 491.716 306.46 491.707 305.464C492.21 301.874 492.313 298.239 492.012 294.626C491.707 290.986 490.19 287.552 487.703 284.873C486.737 283.781 485.404 283.079 483.956 282.898C481.759 282.777 481.918 284.447 480.612 285.227C479.001 286.19 476.596 286.178 474.765 286.129C470.605 285.841 466.524 284.852 462.694 283.203V283.203Z" fill="#02457A"/>
<path opacity="0.26" d="M502.094 275.291C502.094 275.291 498.432 304.55 488.545 311.974C488.545 311.974 485.152 330.053 500.751 333.162C504.555 334.437 508.594 334.853 512.578 334.381C512.578 334.381 497.407 338.977 500.275 308.585C503.143 278.193 502.094 275.291 502.094 275.291Z" fill="url(#paint18_linear)"/>
<path d="M480.588 252.494L473.472 261.32L472.434 264.368L475.229 262.613L484.139 251.129C484.09 250.878 483.964 250.649 483.778 250.474C483.592 250.299 483.355 250.187 483.102 250.153C482.26 250.092 480.588 252.494 480.588 252.494Z" fill="#606161"/>
<path d="M473.875 256.724C473.241 257.045 472.657 257.455 472.141 257.943C471.166 258.77 470.411 259.826 469.944 261.016C469.672 261.94 469.584 262.91 469.688 263.868C469.688 264.478 469.908 265.197 470.494 265.392C470.711 265.44 470.938 265.432 471.152 265.368C471.365 265.304 471.559 265.186 471.714 265.026C472.606 264.015 473.29 262.839 473.728 261.564C474.546 259.979 475.925 258.846 476.865 257.37C478.073 255.517 474.827 256.237 473.875 256.724Z" fill="url(#paint19_linear)"/>
<path d="M479.721 260.052C480.075 260.699 480.319 261.406 480.673 262.052C481.705 263.719 483.093 265.138 484.737 266.209C484.87 266.288 484.982 266.397 485.067 266.526C485.173 266.733 485.195 266.973 485.128 267.196C485.029 267.618 484.882 268.027 484.688 268.416L483.346 271.463C483.337 271.498 483.32 271.53 483.297 271.558C483.273 271.585 483.244 271.607 483.212 271.622C483.144 271.645 483.071 271.645 483.004 271.622L478.354 269.866C477.668 269.619 476.999 269.326 476.352 268.988C475.065 268.286 474 267.239 473.276 265.965C473.064 265.689 472.932 265.359 472.898 265.012C472.863 264.665 472.927 264.315 473.081 264.002C473.496 263.429 474.302 263.405 474.888 262.93C475.056 262.769 475.2 262.584 475.315 262.381C476.023 261.308 476.67 260.126 477.463 259.114C478.256 258.102 479.233 259.138 479.721 260.052Z" fill="url(#paint20_linear)"/>
<path d="M488.375 449.623C488.159 449.81 487.984 450.038 487.858 450.293C487.732 450.548 487.659 450.826 487.642 451.111C487.712 451.526 487.923 451.905 488.24 452.183C489.379 453.11 490.778 453.659 492.244 453.756C496.987 454.468 501.826 454.202 506.463 452.976C507.627 452.765 508.701 452.213 509.551 451.391C510.391 450.153 510.779 448.663 510.649 447.173L510.796 442.04C510.845 441.629 510.8 441.212 510.662 440.821C510.271 439.883 509.063 439.602 508.05 439.602C505.613 439.417 503.168 439.372 500.726 439.468C499.86 439.468 498.749 439.334 498.066 439.883C497.382 440.431 497.138 441.492 496.686 442.065C494.343 445.076 490.913 446.893 488.375 449.623Z" fill="#606161"/>
<path d="M512.798 449.684C512.587 449.862 512.415 450.082 512.293 450.33C512.171 450.577 512.102 450.847 512.09 451.123C512.148 451.523 512.353 451.888 512.663 452.147C513.762 453.048 515.114 453.585 516.532 453.683C521.113 454.366 525.786 454.109 530.263 452.927C531.39 452.72 532.43 452.186 533.254 451.391C534.062 450.195 534.437 448.758 534.316 447.319L534.462 442.357C534.498 441.974 534.452 441.588 534.328 441.224C533.949 440.309 532.79 440.09 531.814 440.005C529.458 439.832 527.095 439.787 524.734 439.87C523.904 439.87 522.83 439.761 522.171 440.285C521.512 440.809 521.268 441.833 520.829 442.394C518.558 445.247 515.251 447.014 512.798 449.684Z" fill="#606161"/>
<defs>
<linearGradient id="paint0_linear" x1="303.451" y1="285.812" x2="352.939" y2="630.884" gradientUnits="userSpaceOnUse">
<stop stop-color="#010101" stop-opacity="0"/>
<stop offset="0.95" stop-color="#010101"/>
</linearGradient>
<linearGradient id="paint1_linear" x1="25417.5" y1="34576.5" x2="43372.6" y2="38107" gradientUnits="userSpaceOnUse">
<stop stop-color="#010101" stop-opacity="0"/>
<stop offset="0.95" stop-color="#010101"/>
</linearGradient>
<linearGradient id="paint2_linear" x1="17730.7" y1="7992.32" x2="17630.8" y2="10931" gradientUnits="userSpaceOnUse">
<stop stop-color="white" stop-opacity="0"/>
<stop offset="0.95" stop-color="white"/>
</linearGradient>
<linearGradient id="paint3_linear" x1="447.157" y1="279.302" x2="460.461" y2="279.302" gradientUnits="userSpaceOnUse">
<stop stop-color="#E5C6D6"/>
<stop offset="0.42" stop-color="#EAD4D0"/>
<stop offset="1" stop-color="#F0E9CB"/>
</linearGradient>
<linearGradient id="paint4_linear" x1="43958.1" y1="1629.41" x2="43963.5" y2="4037.37" gradientUnits="userSpaceOnUse">
<stop stop-color="#010101" stop-opacity="0"/>
<stop offset="0.95" stop-color="#010101"/>
</linearGradient>
<linearGradient id="paint5_linear" x1="61098.1" y1="946.374" x2="61103.4" y2="3354.33" gradientUnits="userSpaceOnUse">
<stop stop-color="#010101" stop-opacity="0"/>
<stop offset="0.95" stop-color="#010101"/>
</linearGradient>
<linearGradient id="paint6_linear" x1="2356.78" y1="1389.4" x2="2432.31" y2="3148.68" gradientUnits="userSpaceOnUse">
<stop stop-color="#010101" stop-opacity="0"/>
<stop offset="0.95" stop-color="#010101"/>
</linearGradient>
<linearGradient id="paint7_linear" x1="2344.92" y1="1412.45" x2="2420.61" y2="3171.87" gradientUnits="userSpaceOnUse">
<stop stop-color="#010101" stop-opacity="0"/>
<stop offset="0.95" stop-color="#010101"/>
</linearGradient>
<linearGradient id="paint8_linear" x1="4370.33" y1="1372.42" x2="4445.87" y2="3131.7" gradientUnits="userSpaceOnUse">
<stop stop-color="#010101" stop-opacity="0"/>
<stop offset="0.95" stop-color="#010101"/>
</linearGradient>
<linearGradient id="paint9_linear" x1="6386.14" y1="1372.42" x2="6461.67" y2="3131.7" gradientUnits="userSpaceOnUse">
<stop stop-color="#010101" stop-opacity="0"/>
<stop offset="0.95" stop-color="#010101"/>
</linearGradient>
<linearGradient id="paint10_linear" x1="4370.33" y1="1774.99" x2="4445.87" y2="3534.41" gradientUnits="userSpaceOnUse">
<stop stop-color="#010101" stop-opacity="0"/>
<stop offset="0.95" stop-color="#010101"/>
</linearGradient>
<linearGradient id="paint11_linear" x1="4370.33" y1="2177.7" x2="4445.87" y2="3936.98" gradientUnits="userSpaceOnUse">
<stop stop-color="#010101" stop-opacity="0"/>
<stop offset="0.95" stop-color="#010101"/>
</linearGradient>
<linearGradient id="paint12_linear" x1="2344.92" y1="2026.77" x2="2420.61" y2="3786.04" gradientUnits="userSpaceOnUse">
<stop stop-color="#010101" stop-opacity="0"/>
<stop offset="0.95" stop-color="#010101"/>
</linearGradient>
<linearGradient id="paint13_linear" x1="2344.92" y1="2286.11" x2="2420.61" y2="4045.39" gradientUnits="userSpaceOnUse">
<stop stop-color="#010101" stop-opacity="0"/>
<stop offset="0.95" stop-color="#010101"/>
</linearGradient>
<linearGradient id="paint14_linear" x1="2344.92" y1="2545.46" x2="2420.61" y2="4304.74" gradientUnits="userSpaceOnUse">
<stop stop-color="#010101" stop-opacity="0"/>
<stop offset="0.95" stop-color="#010101"/>
</linearGradient>
<linearGradient id="paint15_linear" x1="2344.92" y1="3016.43" x2="2420.61" y2="4775.7" gradientUnits="userSpaceOnUse">
<stop stop-color="#010101" stop-opacity="0"/>
<stop offset="0.95" stop-color="#010101"/>
</linearGradient>
<linearGradient id="paint16_linear" x1="2344.92" y1="3472.01" x2="2420.61" y2="5231.29" gradientUnits="userSpaceOnUse">
<stop stop-color="#010101" stop-opacity="0"/>
<stop offset="0.95" stop-color="#010101"/>
</linearGradient>
<linearGradient id="paint17_linear" x1="11693.9" y1="8838.52" x2="12209.7" y2="8794.43" gradientUnits="userSpaceOnUse">
<stop stop-color="#E5C6D6"/>
<stop offset="0.42" stop-color="#EAD4D0"/>
<stop offset="1" stop-color="#F0E9CB"/>
</linearGradient>
<linearGradient id="paint18_linear" x1="10987" y1="16815.7" x2="9190.64" y2="15987" gradientUnits="userSpaceOnUse">
<stop stop-color="#010101" stop-opacity="0"/>
<stop offset="0.95" stop-color="#010101"/>
</linearGradient>
<linearGradient id="paint19_linear" x1="3396.69" y1="2339.54" x2="3442.49" y2="2339.54" gradientUnits="userSpaceOnUse">
<stop stop-color="#E5C6D6"/>
<stop offset="0.42" stop-color="#EAD4D0"/>
<stop offset="1" stop-color="#F0E9CB"/>
</linearGradient>
<linearGradient id="paint20_linear" x1="5306.26" y1="3218.01" x2="5429.89" y2="3218.01" gradientUnits="userSpaceOnUse">
<stop stop-color="#E5C6D6"/>
<stop offset="0.42" stop-color="#EAD4D0"/>
<stop offset="1" stop-color="#F0E9CB"/>
</linearGradient>
</defs>
</svg>
