<svg width="148" height="131" viewBox="0 0 148 131" fill="none" xmlns="http://www.w3.org/2000/svg">
<path d="M124.27 21.6572V24.8327C124.27 25.2661 124.098 25.6817 123.792 25.9881C123.486 26.2946 123.071 26.4668 122.639 26.4668C122.206 26.4668 121.791 26.2946 121.485 25.9881C121.18 25.6817 121.008 25.2661 121.008 24.8327V21.6572C121.008 21.2238 121.18 20.8082 121.485 20.5017C121.791 20.1953 122.206 20.0231 122.639 20.0231C123.071 20.0231 123.486 20.1953 123.792 20.5017C124.098 20.8082 124.27 21.2238 124.27 21.6572ZM115.441 38.5833V50.1606C115.441 50.5939 115.613 51.0096 115.919 51.316C116.224 51.6225 116.639 51.7946 117.072 51.7946C117.504 51.7946 117.919 51.6225 118.225 51.316C118.531 51.0096 118.703 50.5939 118.703 50.1606V38.5833C118.703 38.1499 118.531 37.7343 118.225 37.4278C117.919 37.1214 117.504 36.9492 117.072 36.9492C116.639 36.9492 116.224 37.1214 115.919 37.4278C115.613 37.7343 115.441 38.1499 115.441 38.5833ZM129.032 72.0487V80.4369C129.032 80.8703 128.86 81.2859 128.554 81.5923C128.248 81.8988 127.834 82.0709 127.401 82.0709H90.0634L101.578 104.999C102.065 106.042 102.128 107.234 101.753 108.322C101.377 109.41 100.594 110.308 99.5682 110.827C98.5426 111.346 97.3556 111.444 96.259 111.1C95.1625 110.757 94.2427 109.998 93.6949 108.987L80.1744 82.0682H67.6868L54.169 108.987C53.6145 109.984 52.6965 110.729 51.6068 111.064C50.5171 111.4 49.3402 111.3 48.3222 110.786C47.3041 110.272 46.5238 109.384 46.1443 108.307C45.7649 107.23 45.8157 106.048 46.2861 105.008L52.6413 92.36C52.8506 92.0011 53.1884 91.7356 53.5862 91.6174C53.984 91.4993 54.4117 91.5375 54.7823 91.7242C55.153 91.9109 55.4387 92.2322 55.5813 92.6225C55.7239 93.0128 55.7126 93.4429 55.5499 93.8252L49.2001 106.473C49.1229 106.61 49.0744 106.762 49.0575 106.919C49.0405 107.075 49.0555 107.234 49.1015 107.385C49.1474 107.535 49.2234 107.675 49.3249 107.796C49.4263 107.916 49.5511 108.015 49.6917 108.086C49.8322 108.156 49.9857 108.198 50.1427 108.208C50.2998 108.217 50.4571 108.195 50.6053 108.142C50.7535 108.089 50.8894 108.006 51.0048 107.899C51.1202 107.792 51.2127 107.663 51.2768 107.519L64.0525 82.0709H61.4484L58.5182 87.9045C58.3144 88.2653 57.9814 88.5349 57.5866 88.6589C57.1918 88.7829 56.7647 88.7519 56.3919 88.5722C56.019 88.3925 55.7283 88.0776 55.5785 87.6912C55.4287 87.3048 55.4311 86.8758 55.5852 86.4911L55.6124 86.4393L57.806 82.0818H20.4547C20.0221 82.0818 19.6073 81.9097 19.3014 81.6032C18.9956 81.2968 18.8237 80.8811 18.8237 80.4478V72.0596C18.8237 71.6262 18.9956 71.2106 19.3014 70.9042C19.6073 70.5977 20.0221 70.4256 20.4547 70.4256H23.5888V9.62237C23.5888 9.18899 23.7606 8.77336 24.0665 8.46691C24.3724 8.16047 24.7872 7.98831 25.2197 7.98831H69.5026V2.63406C69.5026 2.20068 69.6744 1.78505 69.9803 1.4786C70.2861 1.17216 70.701 1 71.1335 1H76.7141C77.1466 1 77.5615 1.17216 77.8673 1.4786C78.1732 1.78505 78.345 2.20068 78.345 2.63406V7.99103H122.652C123.085 7.99103 123.5 8.16319 123.806 8.46964C124.111 8.77608 124.283 9.19171 124.283 9.62509V16.1613C124.283 16.5947 124.111 17.0103 123.806 17.3168C123.5 17.6232 123.085 17.7954 122.652 17.7954C122.22 17.7954 121.805 17.6232 121.499 17.3168C121.193 17.0103 121.021 16.5947 121.021 16.1613V11.2591H26.8425V70.4201H35.5654C35.9979 70.4201 36.4128 70.5923 36.7186 70.8987C37.0245 71.2052 37.1963 71.6208 37.1963 72.0542C37.1963 72.4876 37.0245 72.9032 36.7186 73.2096C36.4128 73.5161 35.9979 73.6882 35.5654 73.6882H22.0802V78.8137H125.77V73.6801H43.5597C43.1272 73.6801 42.7123 73.5079 42.4065 73.2015C42.1006 72.895 41.9288 72.4794 41.9288 72.046C41.9288 71.6126 42.1006 71.197 42.4065 70.8906C42.7123 70.5841 43.1272 70.4119 43.5597 70.4119H121.013V30.5873C121.013 30.1539 121.185 29.7383 121.491 29.4318C121.797 29.1254 122.212 28.9532 122.644 28.9532C123.077 28.9532 123.492 29.1254 123.797 29.4318C124.103 29.7383 124.275 30.1539 124.275 30.5873V70.4201H127.401C127.833 70.4201 128.247 70.5915 128.552 70.8968C128.858 71.2021 129.031 71.6163 129.032 72.0487ZM72.7645 7.99103H75.0913V4.26266H72.7645V7.99103ZM86.4182 82.0682H83.8141L96.5898 107.519C96.6554 107.661 96.7487 107.788 96.8644 107.893C96.98 107.998 97.1155 108.078 97.2629 108.13C97.4102 108.181 97.5664 108.202 97.7221 108.192C97.8778 108.182 98.0299 108.14 98.1692 108.07C98.3086 108 98.4324 107.902 98.5333 107.783C98.6341 107.663 98.71 107.525 98.7564 107.376C98.8028 107.226 98.8188 107.069 98.8034 106.914C98.7879 106.758 98.7414 106.607 98.6666 106.47L86.4182 82.0682Z" fill="black" stroke="white" stroke-miterlimit="10"/>
<path d="M0 115.22H9.34531V117.533H2.7427V121.931H8.36131V124.238H2.7427V130.711H0V115.22Z" fill="black"/>
<path d="M11.5117 115.496C11.5117 114.575 12.2293 113.949 13.1943 113.949C14.1593 113.949 14.8796 114.575 14.8796 115.496C14.8796 116.416 14.1593 117.04 13.1943 117.04C12.2293 117.04 11.5117 116.394 11.5117 115.496ZM11.8243 119.077H14.5426V130.717H11.8243V119.077Z" fill="black"/>
<path d="M18.0193 119.077H20.251L20.4603 121.152H20.5364C21.3519 119.638 22.5941 118.794 23.8363 118.794C24.2871 118.771 24.7371 118.852 25.1519 119.031L24.679 121.4C24.2943 121.275 23.8927 121.211 23.4884 121.209C22.5587 121.209 21.4443 121.844 20.743 123.617V130.717H18.0247L18.0193 119.077Z" fill="black"/>
<path d="M25.8369 124.905C25.8369 121.125 28.4573 118.794 31.1918 118.794C34.3314 118.794 35.9868 121.068 35.9868 124.319C35.99 124.764 35.9509 125.208 35.8699 125.646H28.4954C28.7237 127.713 30.0475 128.887 31.9203 128.887C32.8819 128.873 33.8188 128.58 34.6168 128.042L35.5438 129.739C34.3697 130.544 32.9841 130.983 31.5615 131C28.354 131 25.8369 128.745 25.8369 124.905ZM33.6328 123.788C33.6328 121.996 32.8364 120.907 31.2489 120.907C29.8898 120.907 28.7047 121.92 28.4682 123.788H33.6328Z" fill="black"/>
<path d="M41.1951 115.22H45.3105C50.0511 115.22 52.8509 117.778 52.8509 122.906C52.8509 128.034 50.0511 130.717 45.4518 130.717H41.1951V115.22ZM45.1392 128.489C48.2516 128.489 50.0321 126.716 50.0321 122.906C50.0321 119.096 48.2435 117.459 45.1392 117.459H43.9514V128.5L45.1392 128.489Z" fill="black"/>
<path d="M55.115 127.588C55.115 125.096 57.1754 123.797 61.9432 123.285C61.9052 122.035 61.3996 120.991 59.8339 120.991C58.6813 120.991 57.5913 121.514 56.572 122.138L55.5689 120.319C56.8465 119.502 58.491 118.794 60.3367 118.794C63.2398 118.794 64.6696 120.583 64.6696 123.827V130.717H62.4352L62.2286 129.429H62.1634C61.1223 130.319 59.9317 131 58.559 131C56.5149 131 55.115 129.617 55.115 127.588ZM61.9432 127.588V124.97C58.7928 125.371 57.7435 126.193 57.7435 127.37C57.7435 128.396 58.4448 128.849 59.418 128.849C60.3911 128.849 61.0761 128.394 61.9432 127.598V127.588Z" fill="black"/>
<path d="M66.7844 129.38L68.0511 127.645C69.0841 128.462 70.0816 128.944 71.2586 128.944C72.5253 128.944 73.1234 128.347 73.1234 127.549C73.1234 126.574 71.8648 126.139 70.6253 125.665C69.1004 125.09 67.3634 124.213 67.3634 122.271C67.3634 120.253 68.9944 118.794 71.593 118.794C72.999 118.811 74.3584 119.301 75.4529 120.185L74.2025 121.863C73.387 121.267 72.5716 120.85 71.6582 120.85C70.4894 120.85 69.9376 121.408 69.9376 122.138C69.9376 123.059 71.1091 123.41 72.3677 123.873C73.9388 124.461 75.6975 125.218 75.6975 127.389C75.6975 129.39 74.1182 131 71.1853 131C69.5796 130.963 68.0316 130.393 66.7844 129.38Z" fill="black"/>
<path d="M78.1331 113.979H80.8513V118.309L80.7398 120.556C81.713 119.638 82.8682 118.794 84.4557 118.794C86.9456 118.794 88.0329 120.479 88.0329 123.423V130.722H85.3147V123.769C85.3147 121.863 84.771 121.133 83.507 121.133C82.485 121.133 81.8136 121.637 80.8567 122.585V130.717H78.1385L78.1331 113.979Z" fill="black"/>
<path d="M93.7901 129.494H93.714L93.4775 130.717H91.3301V113.979H94.0483V118.309L93.9722 120.242C94.9426 119.39 96.1332 118.794 97.3265 118.794C100.23 118.794 101.909 121.125 101.909 124.703C101.909 128.699 99.5364 131 96.9514 131C95.8994 131 94.7632 130.461 93.7901 129.494ZM99.1151 124.744C99.1151 122.424 98.3567 121.049 96.5899 121.049C95.7472 121.049 94.9345 121.476 94.0538 122.356V127.778C94.687 128.372 95.5137 128.716 96.3806 128.745C97.9327 128.745 99.1151 127.381 99.1151 124.744Z" fill="black"/>
<path d="M103.877 124.905C103.877 121.03 106.506 118.794 109.401 118.794C112.296 118.794 114.927 121.03 114.927 124.905C114.927 128.78 112.296 131 109.401 131C106.506 131 103.877 128.764 103.877 124.905ZM112.127 124.905C112.127 122.574 111.105 121.021 109.409 121.021C107.713 121.021 106.691 122.574 106.691 124.905C106.691 127.236 107.713 128.772 109.409 128.772C111.105 128.772 112.127 127.234 112.127 124.905Z" fill="black"/>
<path d="M116.719 127.588C116.719 125.096 118.782 123.797 123.549 123.285C123.511 122.035 123.006 120.991 121.44 120.991C120.285 120.991 119.198 121.514 118.178 122.138L117.175 120.319C118.453 119.502 120.097 118.794 121.943 118.794C124.846 118.794 126.276 120.583 126.276 123.827V130.717H124.044L123.835 129.429H123.759C122.718 130.319 121.527 131 120.154 131C118.118 131 116.719 129.617 116.719 127.588ZM123.549 127.588V124.97C120.399 125.371 119.347 126.193 119.347 127.37C119.347 128.396 120.048 128.849 121.021 128.849C121.995 128.849 122.688 128.394 123.549 127.598V127.588Z" fill="black"/>
<path d="M129.546 119.077H131.778L131.987 121.152H132.063C132.878 119.638 134.118 118.794 135.363 118.794C135.814 118.771 136.264 118.852 136.679 119.031L136.206 121.4C135.82 121.275 135.418 121.211 135.012 121.209C134.085 121.209 132.971 121.844 132.27 123.617V130.717H129.551L129.546 119.077Z" fill="black"/>
<path d="M137.421 124.905C137.421 121.114 139.794 118.794 142.341 118.794C143.654 118.794 144.488 119.287 145.385 120.074L145.282 118.197V113.979H148V130.717H145.768L145.559 129.456H145.486C144.624 130.319 143.431 131 142.183 131C139.294 131 137.421 128.745 137.421 124.905ZM145.282 127.438V122.015C144.647 121.4 143.8 121.054 142.917 121.049C141.441 121.049 140.22 122.451 140.22 124.878C140.22 127.408 141.185 128.745 142.86 128.745C143.76 128.745 144.526 128.347 145.282 127.438Z" fill="black"/>
<path d="M73.928 60.8064C75.8199 60.8064 77.6933 60.4331 79.4412 59.7077C81.1891 58.9823 82.7772 57.9191 84.115 56.5787C85.4528 55.2384 86.514 53.6472 87.238 51.896C87.962 50.1447 88.3346 48.2678 88.3346 46.3723C88.3346 44.7055 87.8943 43.1041 87.3751 41.6172C84.1712 44.7872 81.7366 46.3723 80.0712 46.3723C87.7502 32.894 83.5315 27.1204 72.0007 19.4103C72.963 29.0376 66.6295 33.4142 64.0499 35.8462C61.9436 37.8274 60.4804 40.3974 59.8505 43.2224C59.2206 46.0474 59.453 48.9968 60.5175 51.6878C61.5819 54.3788 63.4294 56.6869 65.8199 58.3125C68.2103 59.9381 71.0334 60.8061 73.9225 60.8037L73.928 60.8064ZM75.2871 26.6029C81.5146 31.8972 81.539 36.0123 76.7332 44.4577C76.3995 45.0434 76.2252 45.7066 76.2276 46.3809C76.2301 47.0553 76.4093 47.7172 76.7473 48.3004C77.0852 48.8836 77.5702 49.3677 78.1535 49.7042C78.7368 50.0406 79.3981 50.2177 80.0712 50.2177C81.5048 50.1841 82.9069 49.7898 84.1486 49.0712C83.7301 50.6558 82.9502 52.1215 81.8702 53.3528C80.7902 54.5841 79.4396 55.5474 77.9248 56.1667C76.41 56.7861 74.7724 57.0446 73.1409 56.922C71.5094 56.7994 69.9286 56.2989 68.523 55.46C67.1174 54.6212 65.9254 53.4668 65.0409 52.0878C64.1563 50.7089 63.6034 49.143 63.4256 47.5135C63.2478 45.884 63.4501 44.2354 64.0164 42.6976C64.5828 41.1597 65.4978 39.7746 66.6893 38.6513C66.9312 38.4253 68.1572 37.3332 68.2115 37.2896C69.027 36.5598 69.6984 35.9089 70.3589 35.2008C72.7238 32.6625 74.4363 29.8465 75.2898 26.6084L75.2871 26.6029Z" fill="black"/>
</svg>
