<svg width="50" height="50" viewBox="0 0 50 50" fill="none" xmlns="http://www.w3.org/2000/svg">
<path d="M47.8406 9.36505V10.8047C47.8406 11.0012 47.7626 11.1896 47.6238 11.3285C47.4851 11.4674 47.2969 11.5455 47.1006 11.5455C46.9044 11.5455 46.7161 11.4674 46.5774 11.3285C46.4386 11.1896 46.3607 11.0012 46.3607 10.8047V9.36505C46.3607 9.16857 46.4386 8.98014 46.5774 8.84122C46.7161 8.70229 46.9044 8.62424 47.1006 8.62424C47.2969 8.62424 47.4851 8.70229 47.6238 8.84122C47.7626 8.98014 47.8406 9.16857 47.8406 9.36505ZM43.8312 17.0386V22.2872C43.8312 22.4837 43.9092 22.6721 44.048 22.811C44.1867 22.95 44.3749 23.028 44.5712 23.028C44.7674 23.028 44.9557 22.95 45.0944 22.811C45.2332 22.6721 45.3111 22.4837 45.3111 22.2872V17.0386C45.3111 16.8421 45.2332 16.6537 45.0944 16.5147C44.9557 16.3758 44.7674 16.2978 44.5712 16.2978C44.3749 16.2978 44.1867 16.3758 44.048 16.5147C43.9092 16.6537 43.8312 16.8421 43.8312 17.0386ZM49.9975 32.2103V36.0131C49.9975 36.2096 49.9196 36.398 49.7808 36.537C49.642 36.6759 49.4538 36.7539 49.2576 36.7539H32.3212L37.5466 47.1512C37.7648 47.6234 37.7912 48.1621 37.6203 48.6535C37.4494 49.1449 37.0944 49.5506 36.6304 49.785C36.1663 50.0193 35.6295 50.064 35.1332 49.9097C34.6368 49.7553 34.2198 49.4139 33.9701 48.9575L27.8371 36.7539H22.1691L16.0361 48.9563C15.7845 49.4087 15.368 49.7462 14.8736 49.8983C14.3792 50.0504 13.8453 50.0052 13.3834 49.7722C12.9215 49.5393 12.5674 49.1366 12.3953 48.6483C12.2231 48.16 12.2462 47.6241 12.4596 47.1524L15.343 41.4186C15.4379 41.2559 15.5912 41.1355 15.7716 41.0819C15.9521 41.0284 16.1462 41.0457 16.3143 41.1303C16.4825 41.215 16.6121 41.3606 16.6768 41.5376C16.7415 41.7145 16.7364 41.9095 16.6626 42.0828L13.7767 47.8142C13.7417 47.8765 13.7197 47.9453 13.7121 48.0163C13.7044 48.0873 13.7111 48.1592 13.732 48.2276C13.7528 48.2959 13.7873 48.3593 13.8334 48.4139C13.8794 48.4686 13.936 48.5133 13.9998 48.5454C14.0636 48.5775 14.1332 48.5963 14.2044 48.6007C14.2757 48.6051 14.3471 48.5949 14.4143 48.5709C14.4815 48.5469 14.5432 48.5094 14.5955 48.4609C14.6479 48.4123 14.6899 48.3536 14.7189 48.2883L20.5153 36.7515H19.3338L18.0043 39.3962C17.9119 39.5597 17.7608 39.682 17.5817 39.7382C17.4026 39.7944 17.2088 39.7803 17.0396 39.6989C16.8705 39.6174 16.7386 39.4746 16.6706 39.2994C16.6027 39.1243 16.6037 38.9298 16.6737 38.7554L16.686 38.7319L17.6812 36.7564H0.739955C0.543707 36.7564 0.355496 36.6784 0.216728 36.5394C0.0779593 36.4005 0 36.2121 0 36.0156V32.2128C0 32.0163 0.0779593 31.8279 0.216728 31.689C0.355496 31.55 0.543707 31.472 0.739955 31.472H2.15944V3.909C2.15944 3.71252 2.23739 3.52409 2.37616 3.38517C2.51493 3.24624 2.70314 3.16819 2.89939 3.16819H23.0015V0.740808C23.0015 0.544333 23.0795 0.355906 23.2182 0.216978C23.357 0.0780492 23.5452 0 23.7415 0H26.2733C26.4696 0 26.6578 0.0780492 26.7966 0.216978C26.9353 0.355906 27.0133 0.544333 27.0133 0.740808V3.16942H47.1154C47.3117 3.16942 47.4999 3.24747 47.6386 3.3864C47.7774 3.52533 47.8554 3.71376 47.8554 3.91023V6.87346C47.8554 7.06994 47.7774 7.25836 47.6386 7.39729C47.4999 7.53622 47.3117 7.61427 47.1154 7.61427C46.9192 7.61427 46.7309 7.53622 46.5922 7.39729C46.4534 7.25836 46.3755 7.06994 46.3755 6.87346V4.65104H3.63935V31.472H7.59564C7.79189 31.472 7.9801 31.55 8.11887 31.689C8.25764 31.8279 8.33559 32.0163 8.33559 32.2128C8.33559 32.4093 8.25764 32.5977 8.11887 32.7366C7.9801 32.8756 7.79189 32.9536 7.59564 32.9536H1.47744V35.2773H48.53V32.9499H11.2227C11.0264 32.9499 10.8382 32.8718 10.6994 32.7329C10.5607 32.594 10.4827 32.4056 10.4827 32.2091C10.4827 32.0126 10.5607 31.8242 10.6994 31.6853C10.8382 31.5463 11.0264 31.4683 11.2227 31.4683H46.3631V13.4136C46.3631 13.2171 46.4411 13.0287 46.5798 12.8897C46.7186 12.7508 46.9068 12.6728 47.1031 12.6728C47.2993 12.6728 47.4875 12.7508 47.6263 12.8897C47.7651 13.0287 47.843 13.2171 47.843 13.4136V31.472H49.265C49.4599 31.4733 49.6465 31.5516 49.7841 31.6898C49.9218 31.8281 49.9994 32.0151 50 32.2103H49.9975ZM24.4691 3.16942H25.5248V1.47915H24.4691V3.16942ZM30.6637 36.7527H29.4823L35.2786 48.2908C35.3083 48.3551 35.3507 48.4128 35.4031 48.4604C35.4556 48.508 35.5171 48.5446 35.5839 48.5679C35.6508 48.5912 35.7217 48.6008 35.7923 48.5962C35.8629 48.5915 35.9319 48.5727 35.9952 48.5408C36.0584 48.5089 36.1145 48.4646 36.1603 48.4105C36.2061 48.3564 36.2405 48.2937 36.2616 48.226C36.2826 48.1583 36.2899 48.0871 36.2829 48.0166C36.2759 47.946 36.2548 47.8776 36.2208 47.8154L30.6637 36.7527Z" fill="white"/>
<path d="M25.0007 27.1136C25.859 27.1136 26.709 26.9443 27.502 26.6155C28.295 26.2866 29.0156 25.8046 29.6225 25.197C30.2295 24.5893 30.7109 23.8679 31.0394 23.074C31.3679 22.2801 31.5369 21.4291 31.5369 20.5698C31.5369 19.8142 31.3372 19.0882 31.1016 18.414C29.648 19.8496 28.5442 20.5673 27.7903 20.5673C31.2743 14.4569 29.3602 11.8394 24.1288 8.34399C24.5653 12.7086 21.6918 14.6927 20.5215 15.7953C19.5659 16.6935 18.902 17.8586 18.6162 19.1393C18.3304 20.42 18.4359 21.7572 18.9188 22.9772C19.4018 24.1971 20.24 25.2435 21.3245 25.9805C22.4091 26.7175 23.6899 27.111 25.0007 27.1099V27.1136ZM25.6173 11.6073C28.4427 14.0075 28.4538 15.8731 26.2734 19.7018C26.122 19.9673 26.0429 20.268 26.044 20.5737C26.0452 20.8795 26.1264 21.1795 26.2798 21.4439C26.4331 21.7083 26.6531 21.9278 26.9178 22.0803C27.1824 22.2329 27.4825 22.3132 27.7878 22.3132C28.4383 22.2979 29.0744 22.1192 29.6377 21.7934C29.4479 22.5118 29.094 23.1763 28.604 23.7345C28.114 24.2927 27.5013 24.7294 26.814 25.0102C26.1268 25.291 25.3838 25.4082 24.6436 25.3526C23.9034 25.297 23.1862 25.0701 22.5485 24.6898C21.9107 24.3095 21.3699 23.7861 20.9686 23.161C20.5673 22.5358 20.3164 21.8259 20.2358 21.0872C20.1551 20.3484 20.2469 19.6011 20.5038 18.9039C20.7608 18.2067 21.1759 17.5787 21.7165 17.0695C21.8263 16.967 22.3825 16.4719 22.4071 16.4521C22.7771 16.1212 23.0817 15.8262 23.3826 15.5051C24.4543 14.3544 25.2251 13.0778 25.6185 11.6097L25.6173 11.6073Z" fill="white"/>
</svg>
