<svg width="30" height="20" viewBox="0 0 30 20" fill="none" xmlns="http://www.w3.org/2000/svg">
<g clip-path="url(#clip0_118:72)">
<path fill-rule="evenodd" clip-rule="evenodd" d="M1.66667 19.7872H28.3333C29.25 19.7872 30 19.0452 30 18.1383C30 17.2314 29.25 16.4894 28.3333 16.4894H1.66667C0.75 16.4894 0 17.2314 0 18.1383C0 19.0452 0.75 19.7872 1.66667 19.7872ZM1.66667 11.5426H28.3333C29.25 11.5426 30 10.8005 30 9.89362C30 8.9867 29.25 8.24468 28.3333 8.24468H1.66667C0.75 8.24468 0 8.9867 0 9.89362C0 10.8005 0.75 11.5426 1.66667 11.5426ZM0 1.64894C0 2.55585 0.75 3.29787 1.66667 3.29787H28.3333C29.25 3.29787 30 2.55585 30 1.64894C30 0.742021 29.25 0 28.3333 0H1.66667C0.75 0 0 0.742021 0 1.64894Z" fill="white"/>
</g>
<defs>
<clipPath id="clip0_118:72">
<rect width="30" height="19.7872" fill="white"/>
</clipPath>
</defs>
</svg>
