<svg width="40" height="40" viewBox="0 0 40 40" fill="none" xmlns="http://www.w3.org/2000/svg">
<path d="M20 0.00100708C8.95546 0.00100708 0 8.95471 0 20.0001C0 31.0455 8.95458 39.9992 20 39.9992C31.0463 39.9992 40 31.0455 40 20.0001C40 8.95471 31.0463 0.00100708 20 0.00100708ZM20 5.98098C23.6546 5.98098 26.616 8.94329 26.616 12.5961C26.616 16.2498 23.6546 19.2112 20 19.2112C16.3472 19.2112 13.3858 16.2498 13.3858 12.5961C13.3858 8.94329 16.3472 5.98098 20 5.98098ZM19.9956 34.7704C16.3507 34.7704 13.0124 33.443 10.4375 31.2458C9.81024 30.7108 9.4483 29.9263 9.4483 29.1032C9.4483 25.3985 12.4466 22.4336 16.1522 22.4336H23.8496C27.556 22.4336 30.5429 25.3985 30.5429 29.1032C30.5429 29.9272 30.1827 30.71 29.5546 31.245C26.9806 33.443 23.6414 34.7704 19.9956 34.7704Z" fill="white"/>
</svg>
