<svg width="12" height="11" viewBox="0 0 12 11" fill="none" xmlns="http://www.w3.org/2000/svg">
<g clip-path="url(#clip0_178:223)">
<path d="M11.0863 1.50936C11.2825 1.50936 11.4359 1.66285 11.4359 1.85897C11.4359 2.0551 11.2825 2.20859 11.0863 2.20859L4.1623 2.20859C4.00881 2.77138 3.49718 3.18921 2.88323 3.18921C2.15842 3.18921 1.56152 2.60083 1.56152 1.8675C1.56152 1.13417 2.15842 0.554321 2.88323 0.554321C3.48866 0.554321 4.00028 0.963624 4.15377 1.51789L11.0863 1.51789V1.50936ZM2.88323 1.23649C2.54214 1.23649 2.26075 1.51789 2.26075 1.85897C2.26075 2.20006 2.54214 2.48145 2.88323 2.48145C3.22431 2.48145 3.50571 2.20006 3.50571 1.85897C3.50571 1.51789 3.22431 1.23649 2.88323 1.23649Z" fill="#02457A"/>
<path d="M1.56152 5.49152C1.56152 5.2954 1.71501 5.14191 1.91114 5.14191H5.50959C5.66307 4.58765 6.1747 4.17834 6.78013 4.17834C7.38556 4.17834 7.89718 4.58765 8.05067 5.14191L11.0949 5.14191C11.291 5.14191 11.4445 5.2954 11.4445 5.49152C11.4445 5.68765 11.291 5.84114 11.0949 5.84114H8.05067C7.89718 6.40393 7.38555 6.82176 6.7716 6.82176C6.15765 6.82176 5.64602 6.40393 5.49253 5.84114H1.91114C1.71501 5.84114 1.56152 5.68765 1.56152 5.49152ZM6.78013 6.13106C7.12121 6.13106 7.40261 5.84966 7.40261 5.50858C7.40261 5.16749 7.12121 4.8861 6.78013 4.8861C6.43904 4.8861 6.15765 5.16749 6.15765 5.50858C6.15765 5.84966 6.43052 6.13106 6.78013 6.13106Z" fill="#02457A"/>
<path d="M8.8437 9.47368H1.91114C1.71501 9.47368 1.56152 9.3202 1.56152 9.12407C1.56152 8.92795 1.71501 8.77446 1.91114 8.77446H8.8437C8.99718 8.21167 9.50881 7.80237 10.1142 7.80237C10.839 7.80237 11.4359 8.39074 11.4359 9.12407C11.4359 9.85741 10.8476 10.4458 10.1142 10.4458C9.50881 10.4543 8.99718 10.0365 8.8437 9.47368ZM10.7367 9.1326C10.7367 8.79151 10.4553 8.51012 10.1142 8.51012C9.77315 8.51012 9.49176 8.79151 9.49176 9.1326C9.49176 9.47368 9.77315 9.75508 10.1142 9.75508C10.4553 9.75508 10.7367 9.47368 10.7367 9.1326Z" fill="#02457A"/>
</g>
<defs>
<clipPath id="clip0_178:223">
<rect width="11" height="11" fill="white" transform="matrix(0 1 1 0 0.998535 0)"/>
</clipPath>
</defs>
</svg>
