<svg width="40" height="40" viewBox="0 0 40 40" fill="none" xmlns="http://www.w3.org/2000/svg">
<g clip-path="url(#clip0)">
<path d="M20.0027 0C14.2884 0 9.61719 4.67118 9.61719 10.3855C9.61719 16.0998 14.2884 20.771 20.0027 20.771C25.717 20.771 30.3882 16.0998 30.3882 10.3855C30.3882 4.67118 25.717 0 20.0027 0Z" fill="#C4C4C4"/>
<path d="M37.826 29.0703C37.5538 28.39 37.1911 27.7551 36.7829 27.1655C34.6967 24.0816 31.4768 22.0408 27.8487 21.5419C27.3952 21.4966 26.8964 21.5872 26.5335 21.8594C24.6288 23.2653 22.3612 23.9909 20.0029 23.9909C17.6446 23.9909 15.377 23.2653 13.4722 21.8594C13.1094 21.5872 12.6105 21.4512 12.1571 21.5419C8.52893 22.0408 5.26365 24.0816 3.22285 27.1655C2.81469 27.7551 2.45185 28.4354 2.1798 29.0703C2.04377 29.3424 2.08909 29.6599 2.22511 29.932C2.58796 30.5669 3.04143 31.2019 3.44959 31.7461C4.08449 32.6078 4.76478 33.3787 5.53579 34.1043C6.17068 34.7392 6.89629 35.3288 7.62199 35.9184C11.2047 38.5942 15.5131 40 19.9576 40C24.402 40 28.7104 38.5941 32.2932 35.9184C33.0188 35.3742 33.7444 34.7392 34.3794 34.1043C35.105 33.3787 35.8306 32.6077 36.4656 31.7461C36.919 31.1565 37.3273 30.5669 37.69 29.932C37.9167 29.6599 37.962 29.3423 37.826 29.0703Z" fill="#C4C4C4"/>
</g>
<defs>
<clipPath id="clip0">
<rect width="40" height="40" fill="white"/>
</clipPath>
</defs>
</svg>
