<svg width="40" height="41" viewBox="0 0 40 41" fill="none" xmlns="http://www.w3.org/2000/svg">
<path d="M35.3125 5.44531H4.6875C2.10281 5.44531 0 7.6007 0 10.25V30.75C0 33.3993 2.10281 35.5547 4.6875 35.5547H35.3125C37.8972 35.5547 40 33.3993 40 30.75V10.25C40 7.6007 37.8972 5.44531 35.3125 5.44531ZM36.875 30.75C36.875 31.6331 36.1741 32.3516 35.3125 32.3516H4.6875C3.82594 32.3516 3.125 31.6331 3.125 30.75V10.25C3.125 9.3669 3.82594 8.64844 4.6875 8.64844H35.3125C36.1741 8.64844 36.875 9.3669 36.875 10.25V30.75Z" fill="#C4C4C4"/>
<path d="M36.6097 7.4422L20 20.1055L3.3903 7.4422L1.52515 10.0123L20 24.0976L38.4748 10.0123L36.6097 7.4422Z" fill="#C4C4C4"/>
</svg>
