<svg xmlns="http://www.w3.org/2000/svg" viewBox="0 0 581 581"><defs><style>.cls-1{fill:#fff;}.cls-2{stroke:#fff;stroke-miterlimit:10;}</style></defs><title>Recurso 7</title><g id="Capa_2" data-name="Capa 2"><g id="Capa_1-2" data-name="Capa 1"><path class="cls-1" d="M290.5,576.5A286,286,0,0,1,88.27,88.27,286,286,0,1,1,492.73,492.73,284.13,284.13,0,0,1,290.5,576.5Z"/><path d="M290.5,9A281.58,281.58,0,0,1,400.07,549.88,281.57,281.57,0,0,1,180.93,31.12,279.66,279.66,0,0,1,290.5,9m0-9C130.06,0,0,130.06,0,290.5S130.06,581,290.5,581,581,450.94,581,290.5,450.94,0,290.5,0Z"/><path class="cls-2" d="M473.24,181.84v11.68a6,6,0,1,1-12,0V181.84a6,6,0,1,1,12,0ZM440.74,244v42.48a6,6,0,1,0,12,0V244a6,6,0,1,0-12,0Zm50,122.88v30.79a6,6,0,0,1-6,6H347.4l42.37,84.21a16.25,16.25,0,1,1-29,14.62h0L311,403.65H265.08l-49.73,98.83a16.25,16.25,0,0,1-29-14.61h0l23.38-46.44a6,6,0,0,1,10.7,5.38L197,493.24a4.28,4.28,0,1,0,7.64,3.85l47-93.44H242.1l-10.78,21.42a6,6,0,0,1-10.79-5.19l.09-.19,8.07-16H91.32a6,6,0,0,1-6-6V366.87a6,6,0,0,1,6-6h11.53V137.64a6,6,0,0,1,6-6h163V112a6,6,0,0,1,6-6h20.53a6,6,0,0,1,6,6v19.68h163a6,6,0,0,1,6,6v24a6,6,0,1,1-12,0v-18H114.83V360.88h32.09a6,6,0,0,1,0,12H97.31v18.82H478.78V372.86H176.32a6,6,0,1,1,0-12h285V214.62a6,6,0,0,1,12,0V360.88h11.53A6,6,0,0,1,490.76,366.87Zm-207-235.21h8.55V118h-8.55Zm50.23,272h-9.58l47,93.45a4.33,4.33,0,0,0,3.82,2.35,4.28,4.28,0,0,0,4.28-4.27,4.19,4.19,0,0,0-.46-1.93Z"/><path d="M288.05,325.58a53,53,0,0,0,53-53c0-6.13-1.63-12-3.54-17.47q-17.67,17.47-26.86,17.47c28.24-49.49,12.72-70.7-29.69-99,3.53,35.34-19.77,51.42-29.25,60.35a53,53,0,0,0,36.32,91.63Zm5-125.58c22.91,19.44,23,34.55,5.32,65.56a14.14,14.14,0,0,0,12.28,21.14,31.5,31.5,0,0,0,15-4.2,38.88,38.88,0,1,1-64.24-38.26c.89-.84,5.41-4.84,5.61-5,3-2.69,5.46-5.07,7.9-7.68,8.7-9.31,14.95-19.65,18.14-31.54Z"/></g></g></svg>